%TF.GenerationSoftware,KiCad,Pcbnew,9.0.4*%
%TF.CreationDate,2026-03-12T01:03:25+11:00*%
%TF.ProjectId,SMEE-DESIGNPROJECT,534d4545-2d44-4455-9349-474e50524f4a,rev?*%
%TF.SameCoordinates,Original*%
%TF.FileFunction,Copper,L1,Top*%
%TF.FilePolarity,Positive*%
%FSLAX46Y46*%
G04 Gerber Fmt 4.6, Leading zero omitted, Abs format (unit mm)*
G04 Created by KiCad (PCBNEW 9.0.4) date 2026-03-12 01:03:25*
%MOMM*%
%LPD*%
G01*
G04 APERTURE LIST*
G04 Aperture macros list*
%AMRoundRect*
0 Rectangle with rounded corners*
0 $1 Rounding radius*
0 $2 $3 $4 $5 $6 $7 $8 $9 X,Y pos of 4 corners*
0 Add a 4 corners polygon primitive as box body*
4,1,4,$2,$3,$4,$5,$6,$7,$8,$9,$2,$3,0*
0 Add four circle primitives for the rounded corners*
1,1,$1+$1,$2,$3*
1,1,$1+$1,$4,$5*
1,1,$1+$1,$6,$7*
1,1,$1+$1,$8,$9*
0 Add four rect primitives between the rounded corners*
20,1,$1+$1,$2,$3,$4,$5,0*
20,1,$1+$1,$4,$5,$6,$7,0*
20,1,$1+$1,$6,$7,$8,$9,0*
20,1,$1+$1,$8,$9,$2,$3,0*%
G04 Aperture macros list end*
%TA.AperFunction,ComponentPad*%
%ADD10RoundRect,0.250000X-0.650000X0.650000X-0.650000X-0.650000X0.650000X-0.650000X0.650000X0.650000X0*%
%TD*%
%TA.AperFunction,ComponentPad*%
%ADD11C,1.800000*%
%TD*%
%TA.AperFunction,ComponentPad*%
%ADD12C,1.600000*%
%TD*%
%TA.AperFunction,ComponentPad*%
%ADD13RoundRect,0.250000X0.550000X0.550000X-0.550000X0.550000X-0.550000X-0.550000X0.550000X-0.550000X0*%
%TD*%
%TA.AperFunction,ComponentPad*%
%ADD14R,1.800000X1.800000*%
%TD*%
%TA.AperFunction,ComponentPad*%
%ADD15R,1.905000X1.905000*%
%TD*%
%TA.AperFunction,ComponentPad*%
%ADD16C,1.905000*%
%TD*%
%TA.AperFunction,ComponentPad*%
%ADD17R,1.700000X1.700000*%
%TD*%
%TA.AperFunction,ComponentPad*%
%ADD18C,1.700000*%
%TD*%
%TA.AperFunction,SMDPad,CuDef*%
%ADD19RoundRect,0.800000X-2.575000X-0.200000X2.575000X-0.200000X2.575000X0.200000X-2.575000X0.200000X0*%
%TD*%
%TA.AperFunction,SMDPad,CuDef*%
%ADD20RoundRect,0.800000X-3.950000X-0.200000X3.950000X-0.200000X3.950000X0.200000X-3.950000X0.200000X0*%
%TD*%
%TA.AperFunction,ComponentPad*%
%ADD21RoundRect,0.250000X-0.550000X-0.550000X0.550000X-0.550000X0.550000X0.550000X-0.550000X0.550000X0*%
%TD*%
%TA.AperFunction,Conductor*%
%ADD22C,1.000000*%
%TD*%
G04 APERTURE END LIST*
D10*
%TO.P,D1,1,K*%
%TO.N,/RCOUT*%
X56750000Y-71500000D03*
D11*
%TO.P,D1,2,A*%
%TO.N,Net-(D1-A)*%
X56750000Y-81660000D03*
%TD*%
D12*
%TO.P,R6,1*%
%TO.N,/OUT*%
X61750000Y-71000000D03*
%TO.P,R6,2*%
%TO.N,Net-(D1-A)*%
X61750000Y-81160000D03*
%TD*%
%TO.P,R3,1*%
%TO.N,+3.3V*%
X65750000Y-51420000D03*
%TO.P,R3,2*%
%TO.N,Net-(LED2-A)*%
X65750000Y-61580000D03*
%TD*%
D13*
%TO.P,C3,1*%
%TO.N,/RCOUT*%
X55705113Y-67500000D03*
D12*
%TO.P,C3,2*%
%TO.N,GND*%
X53205113Y-67500000D03*
%TD*%
%TO.P,R1,1*%
%TO.N,/LED_R*%
X71750000Y-61580000D03*
%TO.P,R1,2*%
%TO.N,Net-(LED1-Pad1)*%
X71750000Y-51420000D03*
%TD*%
D14*
%TO.P,LED2,1,K*%
%TO.N,GND*%
X76500000Y-61750000D03*
D11*
%TO.P,LED2,2,A*%
%TO.N,Net-(LED2-A)*%
X76500000Y-64290000D03*
%TD*%
D12*
%TO.P,R7,1*%
%TO.N,GND*%
X53500000Y-81750000D03*
%TO.P,R7,2*%
%TO.N,/RCOUT*%
X53500000Y-71590000D03*
%TD*%
D15*
%TO.P,LED1,1,1*%
%TO.N,Net-(LED1-Pad1)*%
X76750000Y-52078300D03*
D16*
%TO.P,LED1,2,2*%
%TO.N,GND*%
X76750000Y-54618300D03*
%TO.P,LED1,3,3*%
%TO.N,Net-(LED1-Pad3)*%
X76750000Y-57158300D03*
%TD*%
D12*
%TO.P,R2,1*%
%TO.N,/LED_G*%
X68750000Y-61580000D03*
%TO.P,R2,2*%
%TO.N,Net-(LED1-Pad3)*%
X68750000Y-51420000D03*
%TD*%
%TO.P,C1,1*%
%TO.N,Net-(U1-THR)*%
X70750000Y-76250000D03*
%TO.P,C1,2*%
%TO.N,GND*%
X70750000Y-81250000D03*
%TD*%
D17*
%TO.P,J1,1,Pin_1*%
%TO.N,GND*%
X52170000Y-60385000D03*
D18*
%TO.P,J1,2,Pin_2*%
%TO.N,/RCOUT*%
X54710000Y-60385000D03*
%TO.P,J1,3,Pin_3*%
%TO.N,+3.3V*%
X57250000Y-60385000D03*
%TO.P,J1,4,Pin_4*%
%TO.N,/LED_R*%
X59790000Y-60385000D03*
%TO.P,J1,5,Pin_5*%
%TO.N,/LED_G*%
X62330000Y-60385000D03*
%TD*%
D12*
%TO.P,R5,1*%
%TO.N,Net-(U1-DIS)*%
X74750000Y-68670000D03*
%TO.P,R5,2*%
%TO.N,Net-(U1-THR)*%
X74750000Y-78830000D03*
%TD*%
D19*
%TO.P,C2,1*%
%TO.N,GND*%
X54875000Y-87000000D03*
D20*
%TO.P,C2,2*%
%TO.N,Net-(D1-A)*%
X65000000Y-87000000D03*
D19*
%TO.P,C2,3*%
%TO.N,GND*%
X75125000Y-87000000D03*
%TD*%
D12*
%TO.P,R4,1*%
%TO.N,+3.3V*%
X77750000Y-78830000D03*
%TO.P,R4,2*%
%TO.N,Net-(U1-DIS)*%
X77750000Y-68670000D03*
%TD*%
D21*
%TO.P,U1,1,GND*%
%TO.N,GND*%
X64500000Y-66000000D03*
D12*
%TO.P,U1,2,TR*%
%TO.N,Net-(U1-THR)*%
X64500000Y-68540000D03*
%TO.P,U1,3,Q*%
%TO.N,/OUT*%
X64500000Y-71080000D03*
%TO.P,U1,4,R*%
%TO.N,+3.3V*%
X64500000Y-73620000D03*
%TO.P,U1,5,CV*%
%TO.N,unconnected-(U1-CV-Pad5)*%
X72120000Y-73620000D03*
%TO.P,U1,6,THR*%
%TO.N,Net-(U1-THR)*%
X72120000Y-71080000D03*
%TO.P,U1,7,DIS*%
%TO.N,Net-(U1-DIS)*%
X72120000Y-68540000D03*
%TO.P,U1,8,VCC*%
%TO.N,+3.3V*%
X72120000Y-66000000D03*
%TD*%
D22*
%TO.N,Net-(U1-THR)*%
X70500000Y-72700000D02*
X70500000Y-76000000D01*
X72120000Y-71080000D02*
X70500000Y-72700000D01*
X70500000Y-76000000D02*
X70750000Y-76250000D01*
X64500000Y-68540000D02*
X69580000Y-68540000D01*
X69580000Y-68540000D02*
X72120000Y-71080000D01*
X73330000Y-78830000D02*
X70750000Y-76250000D01*
X74750000Y-78830000D02*
X73330000Y-78830000D01*
%TO.N,/RCOUT*%
X56250000Y-71500000D02*
X56750000Y-71500000D01*
X54710000Y-66504887D02*
X54710000Y-60385000D01*
X53660000Y-71750000D02*
X56000000Y-71750000D01*
X53500000Y-71590000D02*
X53660000Y-71750000D01*
X56750000Y-71500000D02*
X56750000Y-68544887D01*
X56000000Y-71750000D02*
X56250000Y-71500000D01*
X56750000Y-68544887D02*
X55705113Y-67500000D01*
X55705113Y-67500000D02*
X54710000Y-66504887D01*
%TO.N,+3.3V*%
X57250000Y-60385000D02*
X57250000Y-59920000D01*
X76249000Y-80331000D02*
X77750000Y-78830000D01*
X65631370Y-73620000D02*
X72342370Y-80331000D01*
X64500000Y-73620000D02*
X65631370Y-73620000D01*
X57250000Y-59920000D02*
X65669000Y-51501000D01*
X65669000Y-51501000D02*
X65750000Y-51501000D01*
X72342370Y-80331000D02*
X76249000Y-80331000D01*
%TO.N,/LED_G*%
X66705000Y-59535000D02*
X68750000Y-61580000D01*
X62330000Y-60385000D02*
X63180000Y-59535000D01*
X63180000Y-59535000D02*
X66705000Y-59535000D01*
%TO.N,/LED_R*%
X71750000Y-61580000D02*
X67670000Y-57500000D01*
X62675000Y-57500000D02*
X59790000Y-60385000D01*
X67670000Y-57500000D02*
X62675000Y-57500000D01*
%TO.N,Net-(LED1-Pad1)*%
X72408300Y-52078300D02*
X71750000Y-51420000D01*
X76750000Y-52078300D02*
X72408300Y-52078300D01*
%TO.N,Net-(LED1-Pad3)*%
X68750000Y-51420000D02*
X74488300Y-57158300D01*
X74488300Y-57158300D02*
X76750000Y-57158300D01*
%TO.N,Net-(LED2-A)*%
X75710000Y-63500000D02*
X76500000Y-64290000D01*
X65750000Y-61580000D02*
X67670000Y-63500000D01*
X67670000Y-63500000D02*
X75710000Y-63500000D01*
%TO.N,Net-(U1-DIS)*%
X72250000Y-68670000D02*
X72120000Y-68540000D01*
X74750000Y-68670000D02*
X72250000Y-68670000D01*
X74750000Y-68670000D02*
X77750000Y-68670000D01*
%TO.N,/OUT*%
X62410000Y-71000000D02*
X61750000Y-71000000D01*
X64500000Y-71080000D02*
X62490000Y-71080000D01*
X62490000Y-71080000D02*
X62410000Y-71000000D01*
%TD*%
%TA.AperFunction,Conductor*%
%TO.N,+3.3V*%
G36*
X58589918Y-59519685D02*
G01*
X58635673Y-59572489D01*
X58645617Y-59641647D01*
X58633364Y-59680295D01*
X58538444Y-59866585D01*
X58472753Y-60068760D01*
X58439500Y-60278713D01*
X58439500Y-60491286D01*
X58472753Y-60701239D01*
X58472753Y-60701241D01*
X58472754Y-60701243D01*
X58536811Y-60898390D01*
X58538444Y-60903414D01*
X58634951Y-61092820D01*
X58759890Y-61264786D01*
X58910213Y-61415109D01*
X59082179Y-61540048D01*
X59082181Y-61540049D01*
X59082184Y-61540051D01*
X59271588Y-61636557D01*
X59473757Y-61702246D01*
X59683713Y-61735500D01*
X59683714Y-61735500D01*
X59896286Y-61735500D01*
X59896287Y-61735500D01*
X60106243Y-61702246D01*
X60308412Y-61636557D01*
X60497816Y-61540051D01*
X60583707Y-61477648D01*
X60669786Y-61415109D01*
X60669788Y-61415106D01*
X60669792Y-61415104D01*
X60820104Y-61264792D01*
X60820106Y-61264788D01*
X60820109Y-61264786D01*
X60945048Y-61092820D01*
X60945047Y-61092820D01*
X60945051Y-61092816D01*
X60949514Y-61084054D01*
X60997488Y-61033259D01*
X61065308Y-61016463D01*
X61131444Y-61038999D01*
X61170486Y-61084056D01*
X61174951Y-61092820D01*
X61299890Y-61264786D01*
X61450213Y-61415109D01*
X61622179Y-61540048D01*
X61622181Y-61540049D01*
X61622184Y-61540051D01*
X61811588Y-61636557D01*
X62013757Y-61702246D01*
X62223713Y-61735500D01*
X62223714Y-61735500D01*
X62436286Y-61735500D01*
X62436287Y-61735500D01*
X62646243Y-61702246D01*
X62848412Y-61636557D01*
X63037816Y-61540051D01*
X63123707Y-61477648D01*
X63209786Y-61415109D01*
X63209788Y-61415106D01*
X63209792Y-61415104D01*
X63360104Y-61264792D01*
X63360106Y-61264788D01*
X63360109Y-61264786D01*
X63485048Y-61092820D01*
X63485047Y-61092820D01*
X63485051Y-61092816D01*
X63581557Y-60903412D01*
X63647246Y-60701243D01*
X63647247Y-60701239D01*
X63656930Y-60640102D01*
X63686859Y-60576967D01*
X63746171Y-60540036D01*
X63779403Y-60535500D01*
X64658003Y-60535500D01*
X64725042Y-60555185D01*
X64770797Y-60607989D01*
X64780741Y-60677147D01*
X64758321Y-60732385D01*
X64637715Y-60898386D01*
X64544781Y-61080776D01*
X64481522Y-61275465D01*
X64449500Y-61477648D01*
X64449500Y-61682351D01*
X64481522Y-61884534D01*
X64544781Y-62079223D01*
X64637715Y-62261613D01*
X64758028Y-62427213D01*
X64902786Y-62571971D01*
X65057749Y-62684556D01*
X65068390Y-62692287D01*
X65184607Y-62751503D01*
X65250776Y-62785218D01*
X65250778Y-62785218D01*
X65250781Y-62785220D01*
X65355137Y-62819127D01*
X65445465Y-62848477D01*
X65522966Y-62860751D01*
X65593513Y-62871925D01*
X65656648Y-62901854D01*
X65661797Y-62906717D01*
X66889735Y-64134655D01*
X66889764Y-64134686D01*
X67032214Y-64277136D01*
X67032218Y-64277139D01*
X67196079Y-64386628D01*
X67196092Y-64386635D01*
X67324833Y-64439961D01*
X67367744Y-64457735D01*
X67378164Y-64462051D01*
X67474812Y-64481275D01*
X67523135Y-64490887D01*
X67571458Y-64500500D01*
X67571459Y-64500500D01*
X67571460Y-64500500D01*
X67768540Y-64500500D01*
X72449138Y-64500500D01*
X72516177Y-64520185D01*
X72536819Y-64536819D01*
X73213681Y-65213681D01*
X73247166Y-65275004D01*
X73250000Y-65301362D01*
X73250000Y-66448638D01*
X73230315Y-66515677D01*
X73213681Y-66536319D01*
X72536319Y-67213681D01*
X72509391Y-67228384D01*
X72483573Y-67244977D01*
X72477372Y-67245868D01*
X72474996Y-67247166D01*
X72448638Y-67250000D01*
X72298402Y-67250000D01*
X72279004Y-67248473D01*
X72262557Y-67245868D01*
X72222352Y-67239500D01*
X72017648Y-67239500D01*
X71977443Y-67245868D01*
X71960996Y-67248473D01*
X71941598Y-67250000D01*
X65710730Y-67250000D01*
X65643691Y-67230315D01*
X65597936Y-67177511D01*
X65587992Y-67108353D01*
X65617017Y-67044797D01*
X65623049Y-67038319D01*
X65642712Y-67018656D01*
X65734814Y-66869334D01*
X65789999Y-66702797D01*
X65800500Y-66600009D01*
X65800499Y-65399992D01*
X65789999Y-65297203D01*
X65734814Y-65130666D01*
X65642712Y-64981344D01*
X65518656Y-64857288D01*
X65369334Y-64765186D01*
X65202797Y-64710001D01*
X65202795Y-64710000D01*
X65100010Y-64699500D01*
X63899998Y-64699500D01*
X63899981Y-64699501D01*
X63797203Y-64710000D01*
X63797200Y-64710001D01*
X63630668Y-64765185D01*
X63630663Y-64765187D01*
X63481342Y-64857289D01*
X63357289Y-64981342D01*
X63265187Y-65130663D01*
X63265185Y-65130668D01*
X63237349Y-65214670D01*
X63210001Y-65297203D01*
X63210001Y-65297204D01*
X63210000Y-65297204D01*
X63199500Y-65399983D01*
X63199500Y-66600001D01*
X63199501Y-66600018D01*
X63210000Y-66702796D01*
X63210001Y-66702799D01*
X63241284Y-66797203D01*
X63265186Y-66869334D01*
X63357288Y-67018656D01*
X63481344Y-67142712D01*
X63630666Y-67234814D01*
X63712570Y-67261954D01*
X63770015Y-67301727D01*
X63796838Y-67366243D01*
X63784523Y-67435018D01*
X63746451Y-67479978D01*
X63652787Y-67548028D01*
X63652782Y-67548032D01*
X63508028Y-67692786D01*
X63387715Y-67858386D01*
X63294781Y-68040776D01*
X63231522Y-68235465D01*
X63199500Y-68437648D01*
X63199500Y-68642351D01*
X63231522Y-68844534D01*
X63294781Y-69039223D01*
X63387715Y-69221613D01*
X63508028Y-69387213D01*
X63652786Y-69531971D01*
X63790537Y-69632051D01*
X63818390Y-69652287D01*
X63909840Y-69698883D01*
X63911080Y-69699515D01*
X63961876Y-69747490D01*
X63978671Y-69815311D01*
X63956134Y-69881446D01*
X63911080Y-69920485D01*
X63818386Y-69967715D01*
X63697123Y-70055818D01*
X63631317Y-70079298D01*
X63624238Y-70079500D01*
X62826815Y-70079500D01*
X62825037Y-70079224D01*
X62824126Y-70079471D01*
X62817127Y-70077999D01*
X62789309Y-70073692D01*
X62784258Y-70072089D01*
X62755165Y-70060038D01*
X62701836Y-70037949D01*
X62634409Y-70024536D01*
X62627846Y-70022454D01*
X62617697Y-70015616D01*
X62592467Y-70004581D01*
X62431609Y-69887712D01*
X62249223Y-69794781D01*
X62054534Y-69731522D01*
X61879995Y-69703878D01*
X61852352Y-69699500D01*
X61647648Y-69699500D01*
X61623329Y-69703351D01*
X61445465Y-69731522D01*
X61250776Y-69794781D01*
X61068386Y-69887715D01*
X60902786Y-70008028D01*
X60758028Y-70152786D01*
X60637715Y-70318386D01*
X60544781Y-70500776D01*
X60481522Y-70695465D01*
X60449500Y-70897648D01*
X60449500Y-71102351D01*
X60481522Y-71304534D01*
X60544781Y-71499223D01*
X60637715Y-71681613D01*
X60758028Y-71847213D01*
X60902786Y-71991971D01*
X61036639Y-72089219D01*
X61068390Y-72112287D01*
X61184607Y-72171503D01*
X61250776Y-72205218D01*
X61250778Y-72205218D01*
X61250781Y-72205220D01*
X61315000Y-72226086D01*
X61445465Y-72268477D01*
X61546557Y-72284488D01*
X61647648Y-72300500D01*
X61647649Y-72300500D01*
X61852351Y-72300500D01*
X61852352Y-72300500D01*
X62054534Y-72268477D01*
X62249219Y-72205220D01*
X62431610Y-72112287D01*
X62442764Y-72104182D01*
X62508570Y-72080702D01*
X62515651Y-72080500D01*
X62588540Y-72080500D01*
X63624238Y-72080500D01*
X63691277Y-72100185D01*
X63697119Y-72104179D01*
X63818390Y-72192287D01*
X63934607Y-72251503D01*
X64000776Y-72285218D01*
X64000778Y-72285218D01*
X64000781Y-72285220D01*
X64105137Y-72319127D01*
X64195465Y-72348477D01*
X64214697Y-72351523D01*
X64397648Y-72380500D01*
X64397649Y-72380500D01*
X64602351Y-72380500D01*
X64602352Y-72380500D01*
X64804534Y-72348477D01*
X64999219Y-72285220D01*
X65181610Y-72192287D01*
X65244683Y-72146462D01*
X65303115Y-72104010D01*
X65368922Y-72080530D01*
X65436975Y-72096356D01*
X65485670Y-72146462D01*
X65500000Y-72204328D01*
X65500000Y-73948638D01*
X65480315Y-74015677D01*
X65463681Y-74036319D01*
X65036319Y-74463681D01*
X64974996Y-74497166D01*
X64948638Y-74500000D01*
X59551362Y-74500000D01*
X59484323Y-74480315D01*
X59463681Y-74463681D01*
X58036319Y-73036319D01*
X58002834Y-72974996D01*
X58000000Y-72948638D01*
X58000000Y-72642006D01*
X58018460Y-72576910D01*
X58084814Y-72469334D01*
X58139999Y-72302797D01*
X58150500Y-72200009D01*
X58150499Y-70799992D01*
X58139999Y-70697203D01*
X58084814Y-70530666D01*
X58052153Y-70477713D01*
X58018461Y-70423089D01*
X58000000Y-70357993D01*
X58000000Y-66000000D01*
X56036319Y-64036319D01*
X56002834Y-63974996D01*
X56000000Y-63948638D01*
X56000000Y-60804736D01*
X56006069Y-60766418D01*
X56027246Y-60701243D01*
X56060500Y-60491287D01*
X56060500Y-60490862D01*
X56060545Y-60490706D01*
X56060883Y-60486424D01*
X56061782Y-60486494D01*
X56080185Y-60423823D01*
X56096819Y-60403181D01*
X56963681Y-59536319D01*
X57025004Y-59502834D01*
X57051362Y-59500000D01*
X58522879Y-59500000D01*
X58589918Y-59519685D01*
G37*
%TD.AperFunction*%
%TD*%
%TA.AperFunction,Conductor*%
%TO.N,Net-(D1-A)*%
G36*
X64265677Y-80451349D02*
G01*
X64286319Y-80467983D01*
X69713681Y-85895345D01*
X69747166Y-85956668D01*
X69750000Y-85983026D01*
X69750000Y-86651272D01*
X69749915Y-86655863D01*
X69749500Y-86667062D01*
X69749500Y-87332935D01*
X69749915Y-87344109D01*
X69750000Y-87348700D01*
X69750000Y-87681664D01*
X60250000Y-87681664D01*
X60250000Y-87348726D01*
X60250085Y-87344134D01*
X60250086Y-87344109D01*
X60250500Y-87332937D01*
X60250499Y-86667064D01*
X60250085Y-86655888D01*
X60250000Y-86651298D01*
X60250000Y-84931664D01*
X58000000Y-82681664D01*
X56551362Y-82681664D01*
X56484323Y-82661979D01*
X56463681Y-82645345D01*
X56271538Y-82453202D01*
X56238053Y-82391879D01*
X56238327Y-82337933D01*
X56265282Y-82219840D01*
X56300500Y-81907273D01*
X56300500Y-81592727D01*
X56265282Y-81280160D01*
X56195289Y-80973500D01*
X56159556Y-80871380D01*
X56155995Y-80801602D01*
X56188913Y-80742750D01*
X56463683Y-80467980D01*
X56525004Y-80434498D01*
X56551362Y-80431664D01*
X64198638Y-80431664D01*
X64265677Y-80451349D01*
G37*
%TD.AperFunction*%
%TD*%
%TA.AperFunction,Conductor*%
%TO.N,GND*%
G36*
X63842203Y-50507031D02*
G01*
X63875597Y-50509469D01*
X63889451Y-50516429D01*
X63904656Y-50519454D01*
X63932493Y-50538054D01*
X63962411Y-50553085D01*
X63972545Y-50564815D01*
X63985438Y-50573430D01*
X64004039Y-50601269D01*
X64025926Y-50626603D01*
X64030800Y-50641320D01*
X64039414Y-50654212D01*
X64045945Y-50687050D01*
X64056472Y-50718832D01*
X64055343Y-50734294D01*
X64058368Y-50749500D01*
X64051836Y-50782335D01*
X64049399Y-50815729D01*
X64045306Y-50830561D01*
X64041394Y-50840007D01*
X63997457Y-51003979D01*
X63997208Y-51004883D01*
X63975799Y-51047494D01*
X63954722Y-51090236D01*
X63954014Y-51090856D01*
X63953592Y-51091697D01*
X63933247Y-51114724D01*
X56167628Y-58880343D01*
X56143145Y-58901814D01*
X56131586Y-58910684D01*
X56044451Y-58953657D01*
X55947504Y-58960014D01*
X55855504Y-58928786D01*
X55828428Y-58910695D01*
X55740289Y-58843064D01*
X55740283Y-58843060D01*
X55740281Y-58843059D01*
X55740279Y-58843058D01*
X55530217Y-58721778D01*
X55530201Y-58721770D01*
X55306105Y-58628948D01*
X55306103Y-58628947D01*
X55306100Y-58628946D01*
X55306096Y-58628945D01*
X55306082Y-58628940D01*
X55071795Y-58566163D01*
X55071790Y-58566162D01*
X54831288Y-58534500D01*
X54588712Y-58534500D01*
X54348209Y-58566162D01*
X54348204Y-58566163D01*
X54113917Y-58628940D01*
X54113894Y-58628948D01*
X53889798Y-58721770D01*
X53889782Y-58721778D01*
X53679720Y-58843058D01*
X53679710Y-58843064D01*
X53487268Y-58990729D01*
X53487258Y-58990738D01*
X53315738Y-59162258D01*
X53315729Y-59162268D01*
X53168064Y-59354710D01*
X53168058Y-59354720D01*
X53046778Y-59564782D01*
X53046770Y-59564798D01*
X52953948Y-59788894D01*
X52953940Y-59788917D01*
X52891163Y-60023204D01*
X52891162Y-60023209D01*
X52859500Y-60263712D01*
X52859500Y-60506287D01*
X52891162Y-60746790D01*
X52891163Y-60746795D01*
X52953940Y-60981082D01*
X52953948Y-60981105D01*
X53046770Y-61205201D01*
X53046778Y-61205217D01*
X53172140Y-61422349D01*
X53171047Y-61422979D01*
X53204714Y-61504250D01*
X53209500Y-61552835D01*
X53209500Y-66622974D01*
X53209501Y-66622990D01*
X53246446Y-66856251D01*
X53246447Y-66856255D01*
X53277677Y-66952371D01*
X53280608Y-66961393D01*
X53319432Y-67080879D01*
X53426657Y-67291321D01*
X53540593Y-67448139D01*
X53565484Y-67482398D01*
X53831683Y-67748598D01*
X53885659Y-67829379D01*
X53904613Y-67924666D01*
X53904613Y-68114208D01*
X53904614Y-68114216D01*
X53915017Y-68246412D01*
X53970017Y-68464683D01*
X54063106Y-68669626D01*
X54063108Y-68669629D01*
X54063109Y-68669631D01*
X54191290Y-68854649D01*
X54191291Y-68854650D01*
X54191294Y-68854654D01*
X54350459Y-69013819D01*
X54350462Y-69013821D01*
X54350463Y-69013822D01*
X54535481Y-69142003D01*
X54535487Y-69142007D01*
X54740430Y-69235096D01*
X54958701Y-69290096D01*
X55020039Y-69294923D01*
X55057559Y-69305504D01*
X55095788Y-69313109D01*
X55104015Y-69318606D01*
X55113542Y-69321293D01*
X55144156Y-69345427D01*
X55176570Y-69367085D01*
X55182068Y-69375314D01*
X55189840Y-69381441D01*
X55208886Y-69415450D01*
X55230546Y-69447867D01*
X55232476Y-69457574D01*
X55237312Y-69466208D01*
X55249500Y-69543155D01*
X55249500Y-69828887D01*
X55230546Y-69924175D01*
X55176570Y-70004957D01*
X55176566Y-70004959D01*
X55136183Y-70045342D01*
X55136177Y-70045350D01*
X55069009Y-70142302D01*
X55052873Y-70157903D01*
X55040401Y-70176570D01*
X55018284Y-70191347D01*
X54999164Y-70209835D01*
X54978283Y-70218075D01*
X54959619Y-70230546D01*
X54933534Y-70235734D01*
X54908791Y-70245499D01*
X54864331Y-70249500D01*
X54795194Y-70249500D01*
X54699906Y-70230546D01*
X54643615Y-70198047D01*
X54502450Y-70089727D01*
X54478832Y-70076091D01*
X54298054Y-69971718D01*
X54298043Y-69971713D01*
X54177222Y-69921667D01*
X54079993Y-69881394D01*
X53852014Y-69820307D01*
X53852007Y-69820306D01*
X53618011Y-69789500D01*
X53381989Y-69789500D01*
X53147992Y-69820306D01*
X53147990Y-69820306D01*
X53147986Y-69820307D01*
X53000974Y-69859699D01*
X52920010Y-69881393D01*
X52920007Y-69881394D01*
X52701956Y-69971713D01*
X52701945Y-69971718D01*
X52497559Y-70089721D01*
X52497549Y-70089727D01*
X52310301Y-70233408D01*
X52310297Y-70233411D01*
X52143411Y-70400297D01*
X52143408Y-70400301D01*
X51999727Y-70587549D01*
X51999721Y-70587559D01*
X51881718Y-70791945D01*
X51881713Y-70791956D01*
X51791394Y-71010007D01*
X51730307Y-71237986D01*
X51699500Y-71471989D01*
X51699500Y-71708011D01*
X51730307Y-71942014D01*
X51789800Y-72164044D01*
X51791393Y-72169989D01*
X51791394Y-72169992D01*
X51881713Y-72388043D01*
X51881718Y-72388054D01*
X51993643Y-72581912D01*
X51999727Y-72592450D01*
X52143408Y-72779699D01*
X52310301Y-72946592D01*
X52497550Y-73090273D01*
X52497559Y-73090278D01*
X52701945Y-73208281D01*
X52701948Y-73208282D01*
X52701951Y-73208284D01*
X52920007Y-73298606D01*
X53147986Y-73359693D01*
X53381989Y-73390500D01*
X53618011Y-73390500D01*
X53852014Y-73359693D01*
X54079993Y-73298606D01*
X54142316Y-73272791D01*
X54150373Y-73269454D01*
X54245660Y-73250500D01*
X55445171Y-73250500D01*
X55540459Y-73269454D01*
X55548146Y-73272791D01*
X55685311Y-73335094D01*
X55685314Y-73335094D01*
X55685317Y-73335096D01*
X55903588Y-73390096D01*
X55903591Y-73390096D01*
X55903594Y-73390097D01*
X55969685Y-73395298D01*
X56035783Y-73400500D01*
X56942211Y-73400499D01*
X57037499Y-73419453D01*
X57118280Y-73473429D01*
X57155618Y-73521208D01*
X57196755Y-73589638D01*
X57196757Y-73589640D01*
X57196758Y-73589642D01*
X57317736Y-73738011D01*
X57325323Y-73747315D01*
X58752685Y-75174677D01*
X58752694Y-75174685D01*
X58752699Y-75174690D01*
X58832767Y-75246610D01*
X58853407Y-75263242D01*
X58853412Y-75263246D01*
X59012626Y-75368308D01*
X59201033Y-75445083D01*
X59268072Y-75464768D01*
X59348580Y-75484823D01*
X59348960Y-75484918D01*
X59551342Y-75505498D01*
X59551362Y-75505500D01*
X59551368Y-75505500D01*
X64948632Y-75505500D01*
X64948638Y-75505500D01*
X65056129Y-75499738D01*
X65082487Y-75496904D01*
X65203302Y-75472147D01*
X65300452Y-75471589D01*
X65390425Y-75508250D01*
X65429353Y-75540010D01*
X71364860Y-81475517D01*
X71555936Y-81614343D01*
X71719350Y-81697606D01*
X71719354Y-81697609D01*
X71766371Y-81721565D01*
X71766374Y-81721566D01*
X71766378Y-81721568D01*
X71991002Y-81794553D01*
X72224278Y-81831500D01*
X72224282Y-81831500D01*
X76367088Y-81831500D01*
X76367092Y-81831500D01*
X76600368Y-81794553D01*
X76824992Y-81721568D01*
X77035434Y-81614343D01*
X77226510Y-81475517D01*
X78055275Y-80646750D01*
X78136054Y-80592776D01*
X78166888Y-80582309D01*
X78329993Y-80538606D01*
X78548049Y-80448284D01*
X78752450Y-80330273D01*
X78939699Y-80186592D01*
X79074430Y-80051861D01*
X79155212Y-79997885D01*
X79250500Y-79978931D01*
X79345788Y-79997885D01*
X79426570Y-80051861D01*
X79480546Y-80132643D01*
X79499500Y-80227931D01*
X79499500Y-84897360D01*
X79480546Y-84992648D01*
X79426570Y-85073429D01*
X78500000Y-85999999D01*
X78500000Y-86000000D01*
X71755500Y-86000000D01*
X71755500Y-85983026D01*
X71744007Y-85768631D01*
X71741173Y-85742273D01*
X71706833Y-85530366D01*
X71626218Y-85255815D01*
X71507350Y-84995532D01*
X71500559Y-84983096D01*
X71473869Y-84934215D01*
X71361967Y-84760094D01*
X71319166Y-84693494D01*
X71319164Y-84693491D01*
X71213736Y-84571821D01*
X71131784Y-84477242D01*
X65704422Y-79049880D01*
X65704412Y-79049871D01*
X65704407Y-79049866D01*
X65544683Y-78906397D01*
X65524051Y-78889772D01*
X65524049Y-78889770D01*
X65349945Y-78764224D01*
X65098806Y-78627089D01*
X64830705Y-78527089D01*
X64793976Y-78516304D01*
X64763668Y-78507405D01*
X64763653Y-78507401D01*
X64763643Y-78507398D01*
X64484052Y-78446577D01*
X64198638Y-78426164D01*
X56551362Y-78426164D01*
X56477477Y-78430124D01*
X56336991Y-78437655D01*
X56336977Y-78437656D01*
X56336967Y-78437657D01*
X56310609Y-78440491D01*
X56310606Y-78440491D01*
X56310601Y-78440492D01*
X56098761Y-78474817D01*
X56098738Y-78474822D01*
X55824202Y-78555426D01*
X55824186Y-78555432D01*
X55563927Y-78674282D01*
X55563899Y-78674296D01*
X55502552Y-78707792D01*
X55502541Y-78707799D01*
X55261829Y-78862496D01*
X55045583Y-79049874D01*
X55045570Y-79049886D01*
X54770823Y-79324632D01*
X54770808Y-79324648D01*
X54595754Y-79524605D01*
X54595746Y-79524615D01*
X54438605Y-79763741D01*
X54438604Y-79763743D01*
X54405695Y-79822580D01*
X54405693Y-79822584D01*
X54405689Y-79822591D01*
X54405688Y-79822594D01*
X54366691Y-79904638D01*
X54291638Y-80062546D01*
X54291636Y-80062550D01*
X54205436Y-80335395D01*
X54205435Y-80335399D01*
X54158940Y-80617737D01*
X54153100Y-80903806D01*
X54153101Y-80903830D01*
X54156659Y-80973564D01*
X54156662Y-80973598D01*
X54156663Y-80973617D01*
X54191599Y-81257611D01*
X54191599Y-81257615D01*
X54262074Y-81517101D01*
X54264536Y-81526956D01*
X54281889Y-81602986D01*
X54286566Y-81630510D01*
X54293434Y-81691456D01*
X54295000Y-81719339D01*
X54295000Y-81780659D01*
X54293434Y-81808541D01*
X54286525Y-81869854D01*
X54283790Y-81888054D01*
X54254715Y-82042443D01*
X54232853Y-82327736D01*
X54232579Y-82381702D01*
X54237662Y-82534953D01*
X54278384Y-82818173D01*
X54359002Y-83092734D01*
X54359004Y-83092740D01*
X54477866Y-83353010D01*
X54511349Y-83414331D01*
X54666054Y-83655054D01*
X54666054Y-83655055D01*
X54794958Y-83803819D01*
X54853435Y-83871305D01*
X55045578Y-84063448D01*
X55205309Y-84206924D01*
X55225951Y-84223558D01*
X55400055Y-84349104D01*
X55651194Y-84486239D01*
X55919293Y-84586238D01*
X55986332Y-84605923D01*
X55986347Y-84605927D01*
X56265950Y-84666751D01*
X56551362Y-84687164D01*
X57066154Y-84687164D01*
X57161442Y-84706118D01*
X57242224Y-84760094D01*
X58171570Y-85689440D01*
X58225546Y-85770222D01*
X58244500Y-85865510D01*
X58244500Y-86000000D01*
X51500000Y-86000000D01*
X51499999Y-85999999D01*
X50573430Y-85073429D01*
X50519454Y-84992648D01*
X50500500Y-84897360D01*
X50500500Y-50749500D01*
X50519454Y-50654212D01*
X50573430Y-50573430D01*
X50654212Y-50519454D01*
X50749500Y-50500500D01*
X63809368Y-50500500D01*
X63842203Y-50507031D01*
G37*
%TD.AperFunction*%
%TA.AperFunction,Conductor*%
G36*
X79345788Y-50519454D02*
G01*
X79426570Y-50573430D01*
X79480546Y-50654212D01*
X79499500Y-50749500D01*
X79480546Y-50844788D01*
X79426570Y-50925570D01*
X79345788Y-50979546D01*
X79250500Y-50998500D01*
X79148894Y-50998500D01*
X79499442Y-67266705D01*
X79482545Y-67362379D01*
X79430322Y-67444305D01*
X79350722Y-67500009D01*
X79255864Y-67521011D01*
X79160190Y-67504114D01*
X79078264Y-67451891D01*
X79074430Y-67448139D01*
X78939702Y-67313411D01*
X78939699Y-67313408D01*
X78752450Y-67169727D01*
X78694276Y-67136140D01*
X78548054Y-67051718D01*
X78548043Y-67051713D01*
X78427222Y-67001667D01*
X78329993Y-66961394D01*
X78102014Y-66900307D01*
X78102007Y-66900306D01*
X77868011Y-66869500D01*
X77631989Y-66869500D01*
X77397992Y-66900306D01*
X77397990Y-66900306D01*
X77397986Y-66900307D01*
X77225640Y-66946487D01*
X77170010Y-66961393D01*
X77170007Y-66961394D01*
X76951956Y-67051713D01*
X76951945Y-67051718D01*
X76805724Y-67136140D01*
X76713725Y-67167370D01*
X76681224Y-67169500D01*
X75818776Y-67169500D01*
X75723488Y-67150546D01*
X75694276Y-67136140D01*
X75548054Y-67051718D01*
X75548043Y-67051713D01*
X75427222Y-67001667D01*
X75329993Y-66961394D01*
X75102014Y-66900307D01*
X75102007Y-66900306D01*
X74868011Y-66869500D01*
X74631989Y-66869500D01*
X74631987Y-66869500D01*
X74519078Y-66884364D01*
X74422132Y-66878009D01*
X74334996Y-66835038D01*
X74270938Y-66761993D01*
X74239709Y-66669993D01*
X74238857Y-66612302D01*
X74245725Y-66544756D01*
X74255500Y-66448638D01*
X74255500Y-65301362D01*
X74253434Y-65262825D01*
X74254396Y-65256133D01*
X74253077Y-65249500D01*
X74261277Y-65208274D01*
X74267260Y-65166662D01*
X74270711Y-65160844D01*
X74272031Y-65154212D01*
X74295383Y-65119262D01*
X74316835Y-65083107D01*
X74322249Y-65079053D01*
X74326007Y-65073430D01*
X74360960Y-65050075D01*
X74394612Y-65024884D01*
X74401165Y-65023211D01*
X74406789Y-65019454D01*
X74448016Y-65011253D01*
X74488749Y-65000857D01*
X74502077Y-65000500D01*
X74571966Y-65000500D01*
X74667254Y-65019454D01*
X74748036Y-65073430D01*
X74785934Y-65126368D01*
X74787761Y-65125314D01*
X74791834Y-65132369D01*
X74791836Y-65132373D01*
X74859459Y-65249500D01*
X74916398Y-65348122D01*
X74916401Y-65348127D01*
X75068056Y-65545769D01*
X75068065Y-65545779D01*
X75244220Y-65721934D01*
X75244230Y-65721943D01*
X75368729Y-65817474D01*
X75441873Y-65873599D01*
X75657627Y-65998164D01*
X75887793Y-66093502D01*
X76128435Y-66157982D01*
X76375435Y-66190500D01*
X76624565Y-66190500D01*
X76871565Y-66157982D01*
X77112207Y-66093502D01*
X77342373Y-65998164D01*
X77558127Y-65873599D01*
X77755776Y-65721938D01*
X77931938Y-65545776D01*
X78083599Y-65348127D01*
X78208164Y-65132373D01*
X78303502Y-64902207D01*
X78367982Y-64661565D01*
X78400500Y-64414565D01*
X78400500Y-64165435D01*
X78367982Y-63918435D01*
X78303502Y-63677793D01*
X78208164Y-63447627D01*
X78083599Y-63231873D01*
X77931938Y-63034224D01*
X77755776Y-62858062D01*
X77755773Y-62858060D01*
X77755769Y-62858056D01*
X77558127Y-62706401D01*
X77558122Y-62706398D01*
X77500304Y-62673017D01*
X77342373Y-62581836D01*
X77342371Y-62581835D01*
X77342369Y-62581834D01*
X77342365Y-62581832D01*
X77198834Y-62522380D01*
X77112207Y-62486498D01*
X76871565Y-62422018D01*
X76871561Y-62422017D01*
X76871556Y-62422016D01*
X76819188Y-62415121D01*
X76727190Y-62383890D01*
X76689981Y-62357594D01*
X76687514Y-62355487D01*
X76687510Y-62355483D01*
X76496434Y-62216657D01*
X76285992Y-62109432D01*
X76285989Y-62109431D01*
X76285984Y-62109429D01*
X76157484Y-62067677D01*
X76061368Y-62036447D01*
X76061366Y-62036446D01*
X76061364Y-62036446D01*
X75828103Y-61999501D01*
X75828094Y-61999500D01*
X75828092Y-61999500D01*
X75828088Y-61999500D01*
X73794739Y-61999500D01*
X73699451Y-61980546D01*
X73618669Y-61926570D01*
X73564693Y-61845788D01*
X73545739Y-61750500D01*
X73547869Y-61718003D01*
X73550499Y-61698016D01*
X73550500Y-61698015D01*
X73550500Y-61461989D01*
X73544352Y-61415289D01*
X73519693Y-61227986D01*
X73458606Y-61000007D01*
X73368284Y-60781951D01*
X73347983Y-60746789D01*
X73250278Y-60577559D01*
X73250272Y-60577549D01*
X73106592Y-60390301D01*
X72939699Y-60223408D01*
X72752450Y-60079727D01*
X72752440Y-60079721D01*
X72548054Y-59961718D01*
X72548043Y-59961713D01*
X72427222Y-59911667D01*
X72329993Y-59871394D01*
X72166896Y-59827692D01*
X72079762Y-59784722D01*
X72055274Y-59763247D01*
X70537679Y-58245652D01*
X68647510Y-56355483D01*
X68456434Y-56216657D01*
X68245992Y-56109432D01*
X68245989Y-56109431D01*
X68245984Y-56109429D01*
X68117484Y-56067677D01*
X68021368Y-56036447D01*
X68021366Y-56036446D01*
X68021364Y-56036446D01*
X67788103Y-55999501D01*
X67788094Y-55999500D01*
X67788092Y-55999500D01*
X67788088Y-55999500D01*
X63893667Y-55999500D01*
X63798379Y-55980546D01*
X63717597Y-55926570D01*
X63663621Y-55845788D01*
X63644667Y-55750500D01*
X63663621Y-55655212D01*
X63717597Y-55574430D01*
X65464226Y-53827800D01*
X66055276Y-53236749D01*
X66136055Y-53182776D01*
X66166888Y-53172309D01*
X66329993Y-53128606D01*
X66548049Y-53038284D01*
X66752450Y-52920273D01*
X66939699Y-52776592D01*
X67073930Y-52642361D01*
X67154712Y-52588385D01*
X67250000Y-52569431D01*
X67345288Y-52588385D01*
X67426070Y-52642361D01*
X67560301Y-52776592D01*
X67747550Y-52920273D01*
X67747559Y-52920278D01*
X67951945Y-53038281D01*
X67951948Y-53038282D01*
X67951951Y-53038284D01*
X68170007Y-53128606D01*
X68333101Y-53172306D01*
X68420236Y-53215277D01*
X68444724Y-53236751D01*
X71053760Y-55845788D01*
X73510790Y-58302818D01*
X73510794Y-58302821D01*
X73671387Y-58419499D01*
X73671388Y-58419499D01*
X73690394Y-58433308D01*
X73701867Y-58441643D01*
X73912308Y-58548868D01*
X74136932Y-58621853D01*
X74370208Y-58658800D01*
X75412812Y-58658800D01*
X75508100Y-58677754D01*
X75564393Y-58710255D01*
X75662634Y-58785638D01*
X75662639Y-58785641D01*
X75662643Y-58785644D01*
X75884357Y-58913650D01*
X76120882Y-59011622D01*
X76368171Y-59077883D01*
X76621994Y-59111300D01*
X76878006Y-59111300D01*
X77131829Y-59077883D01*
X77379118Y-59011622D01*
X77615643Y-58913650D01*
X77837357Y-58785644D01*
X78040465Y-58629793D01*
X78221493Y-58448765D01*
X78377344Y-58245657D01*
X78505350Y-58023943D01*
X78603322Y-57787418D01*
X78669583Y-57540129D01*
X78703000Y-57286306D01*
X78703000Y-57030294D01*
X78669583Y-56776471D01*
X78603322Y-56529182D01*
X78505350Y-56292657D01*
X78377344Y-56070943D01*
X78350874Y-56036447D01*
X78221497Y-55867840D01*
X78221496Y-55867839D01*
X78221493Y-55867835D01*
X78040465Y-55686807D01*
X78040460Y-55686803D01*
X78040459Y-55686802D01*
X77837367Y-55530963D01*
X77837352Y-55530953D01*
X77777937Y-55496650D01*
X77615643Y-55402950D01*
X77615641Y-55402949D01*
X77615639Y-55402948D01*
X77615635Y-55402946D01*
X77468139Y-55341851D01*
X77379118Y-55304978D01*
X77131829Y-55238717D01*
X77131824Y-55238716D01*
X77131827Y-55238716D01*
X76878006Y-55205300D01*
X76621994Y-55205300D01*
X76368174Y-55238716D01*
X76120888Y-55304976D01*
X76120882Y-55304978D01*
X75884364Y-55402946D01*
X75884360Y-55402948D01*
X75662647Y-55530953D01*
X75662634Y-55530961D01*
X75564393Y-55606345D01*
X75535183Y-55620749D01*
X75508100Y-55638846D01*
X75491989Y-55642050D01*
X75477257Y-55649316D01*
X75412812Y-55657800D01*
X75212968Y-55657800D01*
X75117680Y-55638846D01*
X75036898Y-55584870D01*
X73455898Y-54003870D01*
X73401922Y-53923088D01*
X73382968Y-53827800D01*
X73401922Y-53732512D01*
X73455898Y-53651730D01*
X73536680Y-53597754D01*
X73631968Y-53578800D01*
X74835142Y-53578800D01*
X74930430Y-53597754D01*
X75011212Y-53651730D01*
X75028117Y-53670441D01*
X75086391Y-53741909D01*
X75244093Y-53870498D01*
X75424451Y-53964709D01*
X75620082Y-54020686D01*
X75739463Y-54031300D01*
X77760536Y-54031299D01*
X77879918Y-54020686D01*
X78075549Y-53964709D01*
X78255907Y-53870498D01*
X78413609Y-53741909D01*
X78542198Y-53584207D01*
X78636409Y-53403849D01*
X78692386Y-53208218D01*
X78703000Y-53088837D01*
X78702999Y-51067764D01*
X78692386Y-50948382D01*
X78655077Y-50817995D01*
X78647087Y-50721173D01*
X78676759Y-50628660D01*
X78739574Y-50554544D01*
X78825972Y-50510107D01*
X78894471Y-50500500D01*
X79250500Y-50500500D01*
X79345788Y-50519454D01*
G37*
%TD.AperFunction*%
%TD*%
%TA.AperFunction,Conductor*%
%TO.N,GND*%
G36*
X58244500Y-86651261D02*
G01*
X58244844Y-86688453D01*
X58244929Y-86693043D01*
X58244951Y-86693809D01*
X58244999Y-86697257D01*
X58244999Y-87302701D01*
X58244952Y-87306101D01*
X58244933Y-87306769D01*
X58244849Y-87311286D01*
X58244848Y-87311358D01*
X58244848Y-87311376D01*
X58244500Y-87348726D01*
X58244500Y-87681664D01*
X58249387Y-87750000D01*
X58249684Y-87754145D01*
X58250000Y-87762991D01*
X58250000Y-150000000D01*
X58250484Y-150115252D01*
X58252163Y-150164404D01*
X58258354Y-150345627D01*
X58274084Y-150575584D01*
X58297657Y-150804889D01*
X58329041Y-151033231D01*
X58347283Y-151139027D01*
X58368208Y-151260389D01*
X58406574Y-151445018D01*
X58415109Y-151486091D01*
X58469675Y-151710003D01*
X58469680Y-151710020D01*
X58531869Y-151931975D01*
X58588989Y-152111943D01*
X58601604Y-152151690D01*
X58678782Y-152368849D01*
X58763362Y-152583330D01*
X58855180Y-152794717D01*
X58954176Y-153002875D01*
X58954182Y-153002886D01*
X59060228Y-153207546D01*
X59173200Y-153408467D01*
X59173207Y-153408478D01*
X59292969Y-153605420D01*
X59419384Y-153798153D01*
X59419386Y-153798156D01*
X59552312Y-153986470D01*
X59691591Y-154170136D01*
X59817804Y-154325273D01*
X59837067Y-154348951D01*
X59988539Y-154522666D01*
X60145879Y-154691135D01*
X60308864Y-154854120D01*
X60477333Y-155011460D01*
X60651048Y-155162932D01*
X60651055Y-155162938D01*
X60651060Y-155162942D01*
X60829864Y-155308409D01*
X61013530Y-155447688D01*
X61201844Y-155580614D01*
X61201846Y-155580615D01*
X61394579Y-155707030D01*
X61503246Y-155773111D01*
X61591533Y-155826800D01*
X61792454Y-155939772D01*
X61792456Y-155939773D01*
X61997124Y-156045823D01*
X62205282Y-156144819D01*
X62416669Y-156236637D01*
X62416687Y-156236644D01*
X62416696Y-156236648D01*
X62631128Y-156321209D01*
X62631145Y-156321215D01*
X62631150Y-156321217D01*
X62701286Y-156346143D01*
X62848322Y-156398400D01*
X63068025Y-156468131D01*
X63289980Y-156530320D01*
X63513929Y-156584895D01*
X63739611Y-156631792D01*
X63940812Y-156666482D01*
X63966768Y-156670958D01*
X64033156Y-156680082D01*
X64195119Y-156702344D01*
X64424414Y-156725916D01*
X64654380Y-156741646D01*
X64884748Y-156749516D01*
X65115242Y-156749516D01*
X65115252Y-156749516D01*
X65345620Y-156741646D01*
X65575586Y-156725916D01*
X65804881Y-156702344D01*
X65996017Y-156676072D01*
X66033231Y-156670958D01*
X66033237Y-156670957D01*
X66260389Y-156631792D01*
X66486071Y-156584895D01*
X66710020Y-156530320D01*
X66931975Y-156468131D01*
X67151678Y-156398400D01*
X67368872Y-156321209D01*
X67583304Y-156236648D01*
X67583322Y-156236639D01*
X67583330Y-156236637D01*
X67794717Y-156144819D01*
X67794716Y-156144819D01*
X67794724Y-156144816D01*
X68002886Y-156045818D01*
X68207546Y-155939772D01*
X68408467Y-155826800D01*
X68605413Y-155707034D01*
X68605420Y-155707030D01*
X68678519Y-155659083D01*
X68798156Y-155580614D01*
X68986470Y-155447688D01*
X69170136Y-155308409D01*
X69348940Y-155162942D01*
X69522673Y-155011454D01*
X69691133Y-154854123D01*
X69854123Y-154691133D01*
X70011454Y-154522673D01*
X70162942Y-154348940D01*
X70308409Y-154170136D01*
X70447688Y-153986470D01*
X70580614Y-153798156D01*
X70659083Y-153678519D01*
X70707030Y-153605420D01*
X70726650Y-153573154D01*
X70826800Y-153408467D01*
X70939772Y-153207546D01*
X71045818Y-153002886D01*
X71144816Y-152794724D01*
X71236648Y-152583304D01*
X71321209Y-152368872D01*
X71398400Y-152151678D01*
X71468131Y-151931975D01*
X71530320Y-151710020D01*
X71584895Y-151486071D01*
X71631792Y-151260389D01*
X71670957Y-151033237D01*
X71702344Y-150804881D01*
X71725916Y-150575586D01*
X71741646Y-150345620D01*
X71749516Y-150115252D01*
X71750000Y-150000000D01*
X71750000Y-87762991D01*
X71750316Y-87754145D01*
X71755500Y-87681664D01*
X71755500Y-87348700D01*
X71755156Y-87311576D01*
X71755071Y-87306985D01*
X71755048Y-87306156D01*
X71755000Y-87302710D01*
X71755000Y-86697259D01*
X71755048Y-86693811D01*
X71755070Y-86693009D01*
X71755071Y-86692987D01*
X71755156Y-86688396D01*
X71755500Y-86651272D01*
X71755500Y-86000000D01*
X78500000Y-86000000D01*
X78500000Y-86870679D01*
X78499618Y-86880402D01*
X78499500Y-86881902D01*
X78499500Y-87118095D01*
X78499617Y-87119581D01*
X78500000Y-87129315D01*
X78500000Y-150000000D01*
X78499999Y-150000371D01*
X78499999Y-150000372D01*
X78499515Y-150161780D01*
X78499480Y-150164404D01*
X78491663Y-150487791D01*
X78491554Y-150490786D01*
X78475938Y-150813646D01*
X78475757Y-150816637D01*
X78452343Y-151139027D01*
X78452090Y-151142013D01*
X78420892Y-151463750D01*
X78420567Y-151466728D01*
X78381603Y-151787627D01*
X78381206Y-151790598D01*
X78334497Y-152110474D01*
X78334028Y-152113434D01*
X78279610Y-152432046D01*
X78279070Y-152434993D01*
X78216964Y-152752227D01*
X78216353Y-152755160D01*
X78146600Y-153070800D01*
X78145918Y-153073718D01*
X78068563Y-153387560D01*
X78067810Y-153390461D01*
X77982885Y-153702372D01*
X77982064Y-153705253D01*
X77889629Y-154015021D01*
X77888737Y-154017882D01*
X77788859Y-154325273D01*
X77787899Y-154328112D01*
X77680596Y-154633075D01*
X77679567Y-154635889D01*
X77564955Y-154938097D01*
X77563859Y-154940886D01*
X77441945Y-155240316D01*
X77440781Y-155243077D01*
X77311699Y-155539402D01*
X77310469Y-155542135D01*
X77174258Y-155835266D01*
X77172963Y-155837968D01*
X77029701Y-156127739D01*
X77028341Y-156130409D01*
X76878101Y-156416667D01*
X76876676Y-156419303D01*
X76719589Y-156701801D01*
X76718101Y-156704402D01*
X76554231Y-156983025D01*
X76552681Y-156985589D01*
X76382114Y-157260191D01*
X76380502Y-157262717D01*
X76203377Y-157533076D01*
X76201705Y-157535563D01*
X76018059Y-157801620D01*
X76016327Y-157804065D01*
X75826345Y-158065553D01*
X75824555Y-158067956D01*
X75628280Y-158324816D01*
X75626432Y-158327175D01*
X75423996Y-158579231D01*
X75422091Y-158581544D01*
X75213666Y-158828586D01*
X75211706Y-158830853D01*
X74997356Y-159072803D01*
X74995342Y-159075022D01*
X74775211Y-159311720D01*
X74773145Y-159313889D01*
X74547340Y-159545220D01*
X74545220Y-159547340D01*
X74313889Y-159773145D01*
X74311720Y-159775211D01*
X74075022Y-159995342D01*
X74072803Y-159997356D01*
X73830853Y-160211706D01*
X73828586Y-160213666D01*
X73581544Y-160422091D01*
X73579231Y-160423996D01*
X73327175Y-160626432D01*
X73324816Y-160628280D01*
X73067956Y-160824555D01*
X73065553Y-160826345D01*
X72804065Y-161016327D01*
X72801620Y-161018059D01*
X72535563Y-161201705D01*
X72533076Y-161203377D01*
X72262717Y-161380502D01*
X72260191Y-161382114D01*
X71985589Y-161552681D01*
X71983025Y-161554231D01*
X71704402Y-161718101D01*
X71701801Y-161719589D01*
X71419303Y-161876676D01*
X71416667Y-161878101D01*
X71130409Y-162028341D01*
X71127739Y-162029701D01*
X70837968Y-162172963D01*
X70835266Y-162174258D01*
X70542135Y-162310469D01*
X70539402Y-162311699D01*
X70243077Y-162440781D01*
X70240316Y-162441945D01*
X69940886Y-162563859D01*
X69938097Y-162564955D01*
X69635889Y-162679567D01*
X69633075Y-162680596D01*
X69328112Y-162787899D01*
X69325273Y-162788859D01*
X69017882Y-162888737D01*
X69015021Y-162889629D01*
X68705253Y-162982064D01*
X68702372Y-162982885D01*
X68390461Y-163067810D01*
X68387560Y-163068563D01*
X68073718Y-163145918D01*
X68070800Y-163146600D01*
X67755160Y-163216353D01*
X67752227Y-163216964D01*
X67434993Y-163279070D01*
X67432046Y-163279610D01*
X67113434Y-163334028D01*
X67110474Y-163334497D01*
X66790598Y-163381206D01*
X66787627Y-163381603D01*
X66466728Y-163420567D01*
X66463750Y-163420892D01*
X66142013Y-163452090D01*
X66139027Y-163452343D01*
X65816637Y-163475757D01*
X65813646Y-163475938D01*
X65490786Y-163491554D01*
X65487791Y-163491663D01*
X65164612Y-163499475D01*
X65161616Y-163499511D01*
X64838384Y-163499511D01*
X64835388Y-163499475D01*
X64512208Y-163491663D01*
X64509213Y-163491554D01*
X64186353Y-163475938D01*
X64183362Y-163475757D01*
X63860972Y-163452343D01*
X63857986Y-163452090D01*
X63536249Y-163420892D01*
X63533271Y-163420567D01*
X63212372Y-163381603D01*
X63209401Y-163381206D01*
X62889525Y-163334497D01*
X62886565Y-163334028D01*
X62567953Y-163279610D01*
X62565006Y-163279070D01*
X62247772Y-163216964D01*
X62244839Y-163216353D01*
X61929199Y-163146600D01*
X61926281Y-163145918D01*
X61612439Y-163068563D01*
X61609538Y-163067810D01*
X61297627Y-162982885D01*
X61294746Y-162982064D01*
X61051240Y-162909401D01*
X60984965Y-162889625D01*
X60982131Y-162888741D01*
X60828421Y-162838798D01*
X60674726Y-162788859D01*
X60671887Y-162787899D01*
X60366924Y-162680596D01*
X60364110Y-162679567D01*
X60061902Y-162564955D01*
X60059113Y-162563859D01*
X59759683Y-162441945D01*
X59756922Y-162440781D01*
X59460597Y-162311699D01*
X59457864Y-162310469D01*
X59164733Y-162174258D01*
X59162031Y-162172963D01*
X58872260Y-162029701D01*
X58869590Y-162028341D01*
X58583332Y-161878101D01*
X58580696Y-161876676D01*
X58298198Y-161719589D01*
X58295597Y-161718101D01*
X58016974Y-161554231D01*
X58014410Y-161552681D01*
X57739808Y-161382114D01*
X57737282Y-161380502D01*
X57466923Y-161203377D01*
X57464436Y-161201705D01*
X57198379Y-161018059D01*
X57195934Y-161016327D01*
X56934446Y-160826345D01*
X56932043Y-160824555D01*
X56675183Y-160628280D01*
X56672824Y-160626432D01*
X56420768Y-160423996D01*
X56418455Y-160422091D01*
X56171413Y-160213666D01*
X56169146Y-160211706D01*
X55927196Y-159997356D01*
X55924977Y-159995342D01*
X55688279Y-159775211D01*
X55686110Y-159773145D01*
X55610492Y-159699334D01*
X55454753Y-159547314D01*
X55452685Y-159545246D01*
X55226854Y-159313889D01*
X55224788Y-159311720D01*
X55004657Y-159075022D01*
X55002643Y-159072803D01*
X54788293Y-158830853D01*
X54786333Y-158828586D01*
X54577908Y-158581544D01*
X54576003Y-158579231D01*
X54373567Y-158327175D01*
X54371719Y-158324816D01*
X54175444Y-158067956D01*
X54173654Y-158065553D01*
X53983672Y-157804065D01*
X53981940Y-157801620D01*
X53798294Y-157535563D01*
X53796622Y-157533076D01*
X53619497Y-157262717D01*
X53617885Y-157260191D01*
X53447318Y-156985589D01*
X53445768Y-156983025D01*
X53281898Y-156704402D01*
X53280410Y-156701801D01*
X53185056Y-156530320D01*
X53123322Y-156419302D01*
X53121898Y-156416667D01*
X53027411Y-156236637D01*
X52971638Y-156130370D01*
X52970318Y-156127779D01*
X52827033Y-155837963D01*
X52825741Y-155835266D01*
X52689530Y-155542135D01*
X52688300Y-155539402D01*
X52559218Y-155243077D01*
X52558054Y-155240316D01*
X52509901Y-155122049D01*
X52436134Y-154940871D01*
X52435044Y-154938097D01*
X52320432Y-154635889D01*
X52319403Y-154633075D01*
X52212088Y-154328076D01*
X52211140Y-154325273D01*
X52111241Y-154017816D01*
X52110390Y-154015085D01*
X52017932Y-153705245D01*
X52017114Y-153702372D01*
X51932189Y-153390461D01*
X51931436Y-153387560D01*
X51854081Y-153073718D01*
X51853399Y-153070800D01*
X51838391Y-153002886D01*
X51783639Y-152755126D01*
X51783035Y-152752227D01*
X51749969Y-152583330D01*
X51720929Y-152434993D01*
X51720389Y-152432046D01*
X51709595Y-152368849D01*
X51665962Y-152113380D01*
X51665502Y-152110474D01*
X51618784Y-151790531D01*
X51618403Y-151787685D01*
X51579430Y-151466710D01*
X51579107Y-151463750D01*
X51559388Y-151260389D01*
X51547902Y-151141939D01*
X51547662Y-151139102D01*
X51524238Y-150816577D01*
X51524064Y-150813706D01*
X51508444Y-150490774D01*
X51508336Y-150487791D01*
X51504900Y-150345627D01*
X51500517Y-150164315D01*
X51500485Y-150161872D01*
X51500000Y-150000000D01*
X51500000Y-87129315D01*
X51500383Y-87119581D01*
X51500500Y-87118095D01*
X51500500Y-86881902D01*
X51500382Y-86880402D01*
X51500000Y-86870679D01*
X51500000Y-86000000D01*
X58244500Y-86000000D01*
X58244500Y-86651261D01*
G37*
%TD.AperFunction*%
%TD*%
%TA.AperFunction,Conductor*%
%TO.N,Net-(D1-A)*%
G36*
X69750000Y-149999781D02*
G01*
X69749998Y-150000399D01*
X69749998Y-150000401D01*
X69749527Y-150094665D01*
X69749426Y-150099103D01*
X69741713Y-150288036D01*
X69741403Y-150293085D01*
X69726020Y-150481185D01*
X69725505Y-150486218D01*
X69702459Y-150673558D01*
X69701739Y-150678565D01*
X69671075Y-150864787D01*
X69670152Y-150869761D01*
X69631910Y-151054616D01*
X69630784Y-151059548D01*
X69585040Y-151242661D01*
X69583714Y-151247543D01*
X69530536Y-151428650D01*
X69529012Y-151433473D01*
X69468500Y-151612237D01*
X69466781Y-151616995D01*
X69399018Y-151793166D01*
X69397106Y-151797850D01*
X69322211Y-151971115D01*
X69320109Y-151975717D01*
X69238222Y-152145757D01*
X69235935Y-152150269D01*
X69147164Y-152316858D01*
X69144694Y-152321273D01*
X69049208Y-152484093D01*
X69046561Y-152488403D01*
X68944535Y-152647159D01*
X68941713Y-152651358D01*
X68833265Y-152805865D01*
X68830275Y-152809946D01*
X68715630Y-152959881D01*
X68712476Y-152963836D01*
X68591815Y-153108966D01*
X68588502Y-153112790D01*
X68462010Y-153252889D01*
X68458544Y-153256574D01*
X68326446Y-153391394D01*
X68322833Y-153394933D01*
X68185345Y-153524256D01*
X68181589Y-153527647D01*
X68038945Y-153651248D01*
X68035056Y-153654482D01*
X67887490Y-153772162D01*
X67883471Y-153775235D01*
X67731228Y-153886798D01*
X67727087Y-153889704D01*
X67570413Y-153994969D01*
X67566157Y-153997704D01*
X67405322Y-154096489D01*
X67400959Y-154099048D01*
X67236231Y-154191190D01*
X67231767Y-154193569D01*
X67063424Y-154278913D01*
X67058893Y-154281095D01*
X66887178Y-154359514D01*
X66882553Y-154361514D01*
X66707780Y-154432865D01*
X66703058Y-154434681D01*
X66525558Y-154498830D01*
X66520767Y-154500452D01*
X66340778Y-154557315D01*
X66335924Y-154558740D01*
X66153781Y-154608210D01*
X66148872Y-154609436D01*
X65964861Y-154651435D01*
X65959908Y-154652460D01*
X65774331Y-154686920D01*
X65769339Y-154687742D01*
X65582522Y-154714602D01*
X65577501Y-154715219D01*
X65389718Y-154734440D01*
X65384675Y-154734853D01*
X65196282Y-154746396D01*
X65191229Y-154746602D01*
X65002530Y-154750453D01*
X64997470Y-154750453D01*
X64808770Y-154746602D01*
X64803717Y-154746396D01*
X64615324Y-154734853D01*
X64610281Y-154734440D01*
X64422498Y-154715219D01*
X64417477Y-154714602D01*
X64230660Y-154687742D01*
X64225668Y-154686920D01*
X64040091Y-154652460D01*
X64035138Y-154651435D01*
X63851127Y-154609436D01*
X63846218Y-154608210D01*
X63664075Y-154558740D01*
X63659221Y-154557315D01*
X63479232Y-154500452D01*
X63474441Y-154498830D01*
X63296941Y-154434681D01*
X63292219Y-154432865D01*
X63117446Y-154361514D01*
X63112838Y-154359522D01*
X62941087Y-154281086D01*
X62936603Y-154278926D01*
X62768232Y-154193569D01*
X62763768Y-154191190D01*
X62599040Y-154099048D01*
X62594677Y-154096489D01*
X62433842Y-153997704D01*
X62429586Y-153994969D01*
X62272912Y-153889704D01*
X62268771Y-153886798D01*
X62116528Y-153775235D01*
X62112509Y-153772162D01*
X61964943Y-153654482D01*
X61961054Y-153651248D01*
X61818410Y-153527647D01*
X61814654Y-153524256D01*
X61677166Y-153394933D01*
X61673553Y-153391394D01*
X61541455Y-153256574D01*
X61537989Y-153252889D01*
X61411497Y-153112790D01*
X61408184Y-153108966D01*
X61287523Y-152963836D01*
X61284369Y-152959881D01*
X61169724Y-152809946D01*
X61166734Y-152805865D01*
X61058286Y-152651358D01*
X61055489Y-152647197D01*
X60953417Y-152488370D01*
X60950791Y-152484093D01*
X60855305Y-152321273D01*
X60852835Y-152316858D01*
X60764064Y-152150269D01*
X60761777Y-152145757D01*
X60679890Y-151975717D01*
X60677788Y-151971115D01*
X60666050Y-151943960D01*
X60602883Y-151797827D01*
X60600990Y-151793189D01*
X60533209Y-151616972D01*
X60531507Y-151612260D01*
X60470985Y-151433469D01*
X60469463Y-151428650D01*
X60416285Y-151247543D01*
X60414959Y-151242661D01*
X60413253Y-151235835D01*
X60369206Y-151059511D01*
X60368097Y-151054653D01*
X60329844Y-150869745D01*
X60328924Y-150864787D01*
X60298260Y-150678565D01*
X60297540Y-150673558D01*
X60274494Y-150486218D01*
X60273979Y-150481185D01*
X60258596Y-150293085D01*
X60258286Y-150288036D01*
X60250571Y-150099058D01*
X60250473Y-150094708D01*
X60250002Y-150000399D01*
X60250000Y-149999781D01*
X60250000Y-87681664D01*
X69750000Y-87681664D01*
X69750000Y-149999781D01*
G37*
%TD.AperFunction*%
%TD*%
M02*
