%TF.GenerationSoftware,KiCad,Pcbnew,9.0.4*%
%TF.CreationDate,2026-03-12T01:03:25+11:00*%
%TF.ProjectId,SMEE-DESIGNPROJECT,534d4545-2d44-4455-9349-474e50524f4a,rev?*%
%TF.SameCoordinates,Original*%
%TF.FileFunction,Legend,Top*%
%TF.FilePolarity,Positive*%
%FSLAX46Y46*%
G04 Gerber Fmt 4.6, Leading zero omitted, Abs format (unit mm)*
G04 Created by KiCad (PCBNEW 9.0.4) date 2026-03-12 01:03:25*
%MOMM*%
%LPD*%
G01*
G04 APERTURE LIST*
%ADD10C,0.150000*%
%ADD11C,0.300000*%
%ADD12C,0.120000*%
%ADD13C,0.152400*%
%ADD14C,0.100000*%
G04 APERTURE END LIST*
D10*
X51672438Y-64039398D02*
X51624819Y-64134636D01*
X51624819Y-64134636D02*
X51624819Y-64277493D01*
X51624819Y-64277493D02*
X51672438Y-64420350D01*
X51672438Y-64420350D02*
X51767676Y-64515588D01*
X51767676Y-64515588D02*
X51862914Y-64563207D01*
X51862914Y-64563207D02*
X52053390Y-64610826D01*
X52053390Y-64610826D02*
X52196247Y-64610826D01*
X52196247Y-64610826D02*
X52386723Y-64563207D01*
X52386723Y-64563207D02*
X52481961Y-64515588D01*
X52481961Y-64515588D02*
X52577200Y-64420350D01*
X52577200Y-64420350D02*
X52624819Y-64277493D01*
X52624819Y-64277493D02*
X52624819Y-64182255D01*
X52624819Y-64182255D02*
X52577200Y-64039398D01*
X52577200Y-64039398D02*
X52529580Y-63991779D01*
X52529580Y-63991779D02*
X52196247Y-63991779D01*
X52196247Y-63991779D02*
X52196247Y-64182255D01*
X52624819Y-63563207D02*
X51624819Y-63563207D01*
X51624819Y-63563207D02*
X52624819Y-62991779D01*
X52624819Y-62991779D02*
X51624819Y-62991779D01*
X52624819Y-62515588D02*
X51624819Y-62515588D01*
X51624819Y-62515588D02*
X51624819Y-62277493D01*
X51624819Y-62277493D02*
X51672438Y-62134636D01*
X51672438Y-62134636D02*
X51767676Y-62039398D01*
X51767676Y-62039398D02*
X51862914Y-61991779D01*
X51862914Y-61991779D02*
X52053390Y-61944160D01*
X52053390Y-61944160D02*
X52196247Y-61944160D01*
X52196247Y-61944160D02*
X52386723Y-61991779D01*
X52386723Y-61991779D02*
X52481961Y-62039398D01*
X52481961Y-62039398D02*
X52577200Y-62134636D01*
X52577200Y-62134636D02*
X52624819Y-62277493D01*
X52624819Y-62277493D02*
X52624819Y-62515588D01*
X54204819Y-64027255D02*
X54204819Y-63836779D01*
X54204819Y-63836779D02*
X54252438Y-63741541D01*
X54252438Y-63741541D02*
X54347676Y-63646303D01*
X54347676Y-63646303D02*
X54538152Y-63598684D01*
X54538152Y-63598684D02*
X54871485Y-63598684D01*
X54871485Y-63598684D02*
X55061961Y-63646303D01*
X55061961Y-63646303D02*
X55157200Y-63741541D01*
X55157200Y-63741541D02*
X55204819Y-63836779D01*
X55204819Y-63836779D02*
X55204819Y-64027255D01*
X55204819Y-64027255D02*
X55157200Y-64122493D01*
X55157200Y-64122493D02*
X55061961Y-64217731D01*
X55061961Y-64217731D02*
X54871485Y-64265350D01*
X54871485Y-64265350D02*
X54538152Y-64265350D01*
X54538152Y-64265350D02*
X54347676Y-64217731D01*
X54347676Y-64217731D02*
X54252438Y-64122493D01*
X54252438Y-64122493D02*
X54204819Y-64027255D01*
X54204819Y-63170112D02*
X55014342Y-63170112D01*
X55014342Y-63170112D02*
X55109580Y-63122493D01*
X55109580Y-63122493D02*
X55157200Y-63074874D01*
X55157200Y-63074874D02*
X55204819Y-62979636D01*
X55204819Y-62979636D02*
X55204819Y-62789160D01*
X55204819Y-62789160D02*
X55157200Y-62693922D01*
X55157200Y-62693922D02*
X55109580Y-62646303D01*
X55109580Y-62646303D02*
X55014342Y-62598684D01*
X55014342Y-62598684D02*
X54204819Y-62598684D01*
X54204819Y-62265350D02*
X54204819Y-61693922D01*
X55204819Y-61979636D02*
X54204819Y-61979636D01*
X56704819Y-64693921D02*
X56704819Y-64074874D01*
X56704819Y-64074874D02*
X57085771Y-64408207D01*
X57085771Y-64408207D02*
X57085771Y-64265350D01*
X57085771Y-64265350D02*
X57133390Y-64170112D01*
X57133390Y-64170112D02*
X57181009Y-64122493D01*
X57181009Y-64122493D02*
X57276247Y-64074874D01*
X57276247Y-64074874D02*
X57514342Y-64074874D01*
X57514342Y-64074874D02*
X57609580Y-64122493D01*
X57609580Y-64122493D02*
X57657200Y-64170112D01*
X57657200Y-64170112D02*
X57704819Y-64265350D01*
X57704819Y-64265350D02*
X57704819Y-64551064D01*
X57704819Y-64551064D02*
X57657200Y-64646302D01*
X57657200Y-64646302D02*
X57609580Y-64693921D01*
X57609580Y-63646302D02*
X57657200Y-63598683D01*
X57657200Y-63598683D02*
X57704819Y-63646302D01*
X57704819Y-63646302D02*
X57657200Y-63693921D01*
X57657200Y-63693921D02*
X57609580Y-63646302D01*
X57609580Y-63646302D02*
X57704819Y-63646302D01*
X56704819Y-63265350D02*
X56704819Y-62646303D01*
X56704819Y-62646303D02*
X57085771Y-62979636D01*
X57085771Y-62979636D02*
X57085771Y-62836779D01*
X57085771Y-62836779D02*
X57133390Y-62741541D01*
X57133390Y-62741541D02*
X57181009Y-62693922D01*
X57181009Y-62693922D02*
X57276247Y-62646303D01*
X57276247Y-62646303D02*
X57514342Y-62646303D01*
X57514342Y-62646303D02*
X57609580Y-62693922D01*
X57609580Y-62693922D02*
X57657200Y-62741541D01*
X57657200Y-62741541D02*
X57704819Y-62836779D01*
X57704819Y-62836779D02*
X57704819Y-63122493D01*
X57704819Y-63122493D02*
X57657200Y-63217731D01*
X57657200Y-63217731D02*
X57609580Y-63265350D01*
X56704819Y-62360588D02*
X57704819Y-62027255D01*
X57704819Y-62027255D02*
X56704819Y-61693922D01*
X62704819Y-65360589D02*
X62704819Y-65836779D01*
X62704819Y-65836779D02*
X61704819Y-65836779D01*
X62181009Y-65027255D02*
X62181009Y-64693922D01*
X62704819Y-64551065D02*
X62704819Y-65027255D01*
X62704819Y-65027255D02*
X61704819Y-65027255D01*
X61704819Y-65027255D02*
X61704819Y-64551065D01*
X62704819Y-64122493D02*
X61704819Y-64122493D01*
X61704819Y-64122493D02*
X61704819Y-63884398D01*
X61704819Y-63884398D02*
X61752438Y-63741541D01*
X61752438Y-63741541D02*
X61847676Y-63646303D01*
X61847676Y-63646303D02*
X61942914Y-63598684D01*
X61942914Y-63598684D02*
X62133390Y-63551065D01*
X62133390Y-63551065D02*
X62276247Y-63551065D01*
X62276247Y-63551065D02*
X62466723Y-63598684D01*
X62466723Y-63598684D02*
X62561961Y-63646303D01*
X62561961Y-63646303D02*
X62657200Y-63741541D01*
X62657200Y-63741541D02*
X62704819Y-63884398D01*
X62704819Y-63884398D02*
X62704819Y-64122493D01*
X62800057Y-63360589D02*
X62800057Y-62598684D01*
X61752438Y-61836779D02*
X61704819Y-61932017D01*
X61704819Y-61932017D02*
X61704819Y-62074874D01*
X61704819Y-62074874D02*
X61752438Y-62217731D01*
X61752438Y-62217731D02*
X61847676Y-62312969D01*
X61847676Y-62312969D02*
X61942914Y-62360588D01*
X61942914Y-62360588D02*
X62133390Y-62408207D01*
X62133390Y-62408207D02*
X62276247Y-62408207D01*
X62276247Y-62408207D02*
X62466723Y-62360588D01*
X62466723Y-62360588D02*
X62561961Y-62312969D01*
X62561961Y-62312969D02*
X62657200Y-62217731D01*
X62657200Y-62217731D02*
X62704819Y-62074874D01*
X62704819Y-62074874D02*
X62704819Y-61979636D01*
X62704819Y-61979636D02*
X62657200Y-61836779D01*
X62657200Y-61836779D02*
X62609580Y-61789160D01*
X62609580Y-61789160D02*
X62276247Y-61789160D01*
X62276247Y-61789160D02*
X62276247Y-61979636D01*
X60204819Y-65360589D02*
X60204819Y-65836779D01*
X60204819Y-65836779D02*
X59204819Y-65836779D01*
X59681009Y-65027255D02*
X59681009Y-64693922D01*
X60204819Y-64551065D02*
X60204819Y-65027255D01*
X60204819Y-65027255D02*
X59204819Y-65027255D01*
X59204819Y-65027255D02*
X59204819Y-64551065D01*
X60204819Y-64122493D02*
X59204819Y-64122493D01*
X59204819Y-64122493D02*
X59204819Y-63884398D01*
X59204819Y-63884398D02*
X59252438Y-63741541D01*
X59252438Y-63741541D02*
X59347676Y-63646303D01*
X59347676Y-63646303D02*
X59442914Y-63598684D01*
X59442914Y-63598684D02*
X59633390Y-63551065D01*
X59633390Y-63551065D02*
X59776247Y-63551065D01*
X59776247Y-63551065D02*
X59966723Y-63598684D01*
X59966723Y-63598684D02*
X60061961Y-63646303D01*
X60061961Y-63646303D02*
X60157200Y-63741541D01*
X60157200Y-63741541D02*
X60204819Y-63884398D01*
X60204819Y-63884398D02*
X60204819Y-64122493D01*
X60300057Y-63360589D02*
X60300057Y-62598684D01*
X60204819Y-61789160D02*
X59728628Y-62122493D01*
X60204819Y-62360588D02*
X59204819Y-62360588D01*
X59204819Y-62360588D02*
X59204819Y-61979636D01*
X59204819Y-61979636D02*
X59252438Y-61884398D01*
X59252438Y-61884398D02*
X59300057Y-61836779D01*
X59300057Y-61836779D02*
X59395295Y-61789160D01*
X59395295Y-61789160D02*
X59538152Y-61789160D01*
X59538152Y-61789160D02*
X59633390Y-61836779D01*
X59633390Y-61836779D02*
X59681009Y-61884398D01*
X59681009Y-61884398D02*
X59728628Y-61979636D01*
X59728628Y-61979636D02*
X59728628Y-62360588D01*
D11*
X66229400Y-145357142D02*
X66372257Y-144928571D01*
X66372257Y-144928571D02*
X66372257Y-144214285D01*
X66372257Y-144214285D02*
X66229400Y-143928571D01*
X66229400Y-143928571D02*
X66086542Y-143785713D01*
X66086542Y-143785713D02*
X65800828Y-143642856D01*
X65800828Y-143642856D02*
X65515114Y-143642856D01*
X65515114Y-143642856D02*
X65229400Y-143785713D01*
X65229400Y-143785713D02*
X65086542Y-143928571D01*
X65086542Y-143928571D02*
X64943685Y-144214285D01*
X64943685Y-144214285D02*
X64800828Y-144785713D01*
X64800828Y-144785713D02*
X64657971Y-145071428D01*
X64657971Y-145071428D02*
X64515114Y-145214285D01*
X64515114Y-145214285D02*
X64229400Y-145357142D01*
X64229400Y-145357142D02*
X63943685Y-145357142D01*
X63943685Y-145357142D02*
X63657971Y-145214285D01*
X63657971Y-145214285D02*
X63515114Y-145071428D01*
X63515114Y-145071428D02*
X63372257Y-144785713D01*
X63372257Y-144785713D02*
X63372257Y-144071428D01*
X63372257Y-144071428D02*
X63515114Y-143642856D01*
X66372257Y-142357142D02*
X63372257Y-142357142D01*
X63372257Y-142357142D02*
X65515114Y-141357142D01*
X65515114Y-141357142D02*
X63372257Y-140357142D01*
X63372257Y-140357142D02*
X66372257Y-140357142D01*
X64800828Y-138928571D02*
X64800828Y-137928571D01*
X66372257Y-137499999D02*
X66372257Y-138928571D01*
X66372257Y-138928571D02*
X63372257Y-138928571D01*
X63372257Y-138928571D02*
X63372257Y-137499999D01*
X64800828Y-136214285D02*
X64800828Y-135214285D01*
X66372257Y-134785713D02*
X66372257Y-136214285D01*
X66372257Y-136214285D02*
X63372257Y-136214285D01*
X63372257Y-136214285D02*
X63372257Y-134785713D01*
X66229400Y-131357142D02*
X66372257Y-130928571D01*
X66372257Y-130928571D02*
X66372257Y-130214285D01*
X66372257Y-130214285D02*
X66229400Y-129928571D01*
X66229400Y-129928571D02*
X66086542Y-129785713D01*
X66086542Y-129785713D02*
X65800828Y-129642856D01*
X65800828Y-129642856D02*
X65515114Y-129642856D01*
X65515114Y-129642856D02*
X65229400Y-129785713D01*
X65229400Y-129785713D02*
X65086542Y-129928571D01*
X65086542Y-129928571D02*
X64943685Y-130214285D01*
X64943685Y-130214285D02*
X64800828Y-130785713D01*
X64800828Y-130785713D02*
X64657971Y-131071428D01*
X64657971Y-131071428D02*
X64515114Y-131214285D01*
X64515114Y-131214285D02*
X64229400Y-131357142D01*
X64229400Y-131357142D02*
X63943685Y-131357142D01*
X63943685Y-131357142D02*
X63657971Y-131214285D01*
X63657971Y-131214285D02*
X63515114Y-131071428D01*
X63515114Y-131071428D02*
X63372257Y-130785713D01*
X63372257Y-130785713D02*
X63372257Y-130071428D01*
X63372257Y-130071428D02*
X63515114Y-129642856D01*
X63372257Y-127785713D02*
X63372257Y-127214285D01*
X63372257Y-127214285D02*
X63515114Y-126928570D01*
X63515114Y-126928570D02*
X63800828Y-126642856D01*
X63800828Y-126642856D02*
X64372257Y-126499999D01*
X64372257Y-126499999D02*
X65372257Y-126499999D01*
X65372257Y-126499999D02*
X65943685Y-126642856D01*
X65943685Y-126642856D02*
X66229400Y-126928570D01*
X66229400Y-126928570D02*
X66372257Y-127214285D01*
X66372257Y-127214285D02*
X66372257Y-127785713D01*
X66372257Y-127785713D02*
X66229400Y-128071428D01*
X66229400Y-128071428D02*
X65943685Y-128357142D01*
X65943685Y-128357142D02*
X65372257Y-128499999D01*
X65372257Y-128499999D02*
X64372257Y-128499999D01*
X64372257Y-128499999D02*
X63800828Y-128357142D01*
X63800828Y-128357142D02*
X63515114Y-128071428D01*
X63515114Y-128071428D02*
X63372257Y-127785713D01*
X66372257Y-125214285D02*
X63372257Y-125214285D01*
X66372257Y-122357142D02*
X66372257Y-123785714D01*
X66372257Y-123785714D02*
X63372257Y-123785714D01*
X66229400Y-119214286D02*
X66372257Y-118785715D01*
X66372257Y-118785715D02*
X66372257Y-118071429D01*
X66372257Y-118071429D02*
X66229400Y-117785715D01*
X66229400Y-117785715D02*
X66086542Y-117642857D01*
X66086542Y-117642857D02*
X65800828Y-117500000D01*
X65800828Y-117500000D02*
X65515114Y-117500000D01*
X65515114Y-117500000D02*
X65229400Y-117642857D01*
X65229400Y-117642857D02*
X65086542Y-117785715D01*
X65086542Y-117785715D02*
X64943685Y-118071429D01*
X64943685Y-118071429D02*
X64800828Y-118642857D01*
X64800828Y-118642857D02*
X64657971Y-118928572D01*
X64657971Y-118928572D02*
X64515114Y-119071429D01*
X64515114Y-119071429D02*
X64229400Y-119214286D01*
X64229400Y-119214286D02*
X63943685Y-119214286D01*
X63943685Y-119214286D02*
X63657971Y-119071429D01*
X63657971Y-119071429D02*
X63515114Y-118928572D01*
X63515114Y-118928572D02*
X63372257Y-118642857D01*
X63372257Y-118642857D02*
X63372257Y-117928572D01*
X63372257Y-117928572D02*
X63515114Y-117500000D01*
X64800828Y-116214286D02*
X64800828Y-115214286D01*
X66372257Y-114785714D02*
X66372257Y-116214286D01*
X66372257Y-116214286D02*
X63372257Y-116214286D01*
X63372257Y-116214286D02*
X63372257Y-114785714D01*
X66372257Y-113500000D02*
X63372257Y-113500000D01*
X63372257Y-113500000D02*
X66372257Y-111785714D01*
X66372257Y-111785714D02*
X63372257Y-111785714D01*
X66229400Y-110500000D02*
X66372257Y-110071429D01*
X66372257Y-110071429D02*
X66372257Y-109357143D01*
X66372257Y-109357143D02*
X66229400Y-109071429D01*
X66229400Y-109071429D02*
X66086542Y-108928571D01*
X66086542Y-108928571D02*
X65800828Y-108785714D01*
X65800828Y-108785714D02*
X65515114Y-108785714D01*
X65515114Y-108785714D02*
X65229400Y-108928571D01*
X65229400Y-108928571D02*
X65086542Y-109071429D01*
X65086542Y-109071429D02*
X64943685Y-109357143D01*
X64943685Y-109357143D02*
X64800828Y-109928571D01*
X64800828Y-109928571D02*
X64657971Y-110214286D01*
X64657971Y-110214286D02*
X64515114Y-110357143D01*
X64515114Y-110357143D02*
X64229400Y-110500000D01*
X64229400Y-110500000D02*
X63943685Y-110500000D01*
X63943685Y-110500000D02*
X63657971Y-110357143D01*
X63657971Y-110357143D02*
X63515114Y-110214286D01*
X63515114Y-110214286D02*
X63372257Y-109928571D01*
X63372257Y-109928571D02*
X63372257Y-109214286D01*
X63372257Y-109214286D02*
X63515114Y-108785714D01*
X63372257Y-106928571D02*
X63372257Y-106357143D01*
X63372257Y-106357143D02*
X63515114Y-106071428D01*
X63515114Y-106071428D02*
X63800828Y-105785714D01*
X63800828Y-105785714D02*
X64372257Y-105642857D01*
X64372257Y-105642857D02*
X65372257Y-105642857D01*
X65372257Y-105642857D02*
X65943685Y-105785714D01*
X65943685Y-105785714D02*
X66229400Y-106071428D01*
X66229400Y-106071428D02*
X66372257Y-106357143D01*
X66372257Y-106357143D02*
X66372257Y-106928571D01*
X66372257Y-106928571D02*
X66229400Y-107214286D01*
X66229400Y-107214286D02*
X65943685Y-107500000D01*
X65943685Y-107500000D02*
X65372257Y-107642857D01*
X65372257Y-107642857D02*
X64372257Y-107642857D01*
X64372257Y-107642857D02*
X63800828Y-107500000D01*
X63800828Y-107500000D02*
X63515114Y-107214286D01*
X63515114Y-107214286D02*
X63372257Y-106928571D01*
X66372257Y-102642857D02*
X64943685Y-103642857D01*
X66372257Y-104357143D02*
X63372257Y-104357143D01*
X63372257Y-104357143D02*
X63372257Y-103214286D01*
X63372257Y-103214286D02*
X63515114Y-102928571D01*
X63515114Y-102928571D02*
X63657971Y-102785714D01*
X63657971Y-102785714D02*
X63943685Y-102642857D01*
X63943685Y-102642857D02*
X64372257Y-102642857D01*
X64372257Y-102642857D02*
X64657971Y-102785714D01*
X64657971Y-102785714D02*
X64800828Y-102928571D01*
X64800828Y-102928571D02*
X64943685Y-103214286D01*
X64943685Y-103214286D02*
X64943685Y-104357143D01*
D10*
X56011905Y-84034819D02*
X56011905Y-83034819D01*
X56011905Y-83034819D02*
X56250000Y-83034819D01*
X56250000Y-83034819D02*
X56392857Y-83082438D01*
X56392857Y-83082438D02*
X56488095Y-83177676D01*
X56488095Y-83177676D02*
X56535714Y-83272914D01*
X56535714Y-83272914D02*
X56583333Y-83463390D01*
X56583333Y-83463390D02*
X56583333Y-83606247D01*
X56583333Y-83606247D02*
X56535714Y-83796723D01*
X56535714Y-83796723D02*
X56488095Y-83891961D01*
X56488095Y-83891961D02*
X56392857Y-83987200D01*
X56392857Y-83987200D02*
X56250000Y-84034819D01*
X56250000Y-84034819D02*
X56011905Y-84034819D01*
X57535714Y-84034819D02*
X56964286Y-84034819D01*
X57250000Y-84034819D02*
X57250000Y-83034819D01*
X57250000Y-83034819D02*
X57154762Y-83177676D01*
X57154762Y-83177676D02*
X57059524Y-83272914D01*
X57059524Y-83272914D02*
X56964286Y-83320533D01*
X59104819Y-71761904D02*
X58104819Y-71761904D01*
X59104819Y-71190476D02*
X58533390Y-71619047D01*
X58104819Y-71190476D02*
X58676247Y-71761904D01*
X61583333Y-83954819D02*
X61250000Y-83478628D01*
X61011905Y-83954819D02*
X61011905Y-82954819D01*
X61011905Y-82954819D02*
X61392857Y-82954819D01*
X61392857Y-82954819D02*
X61488095Y-83002438D01*
X61488095Y-83002438D02*
X61535714Y-83050057D01*
X61535714Y-83050057D02*
X61583333Y-83145295D01*
X61583333Y-83145295D02*
X61583333Y-83288152D01*
X61583333Y-83288152D02*
X61535714Y-83383390D01*
X61535714Y-83383390D02*
X61488095Y-83431009D01*
X61488095Y-83431009D02*
X61392857Y-83478628D01*
X61392857Y-83478628D02*
X61011905Y-83478628D01*
X62440476Y-82954819D02*
X62250000Y-82954819D01*
X62250000Y-82954819D02*
X62154762Y-83002438D01*
X62154762Y-83002438D02*
X62107143Y-83050057D01*
X62107143Y-83050057D02*
X62011905Y-83192914D01*
X62011905Y-83192914D02*
X61964286Y-83383390D01*
X61964286Y-83383390D02*
X61964286Y-83764342D01*
X61964286Y-83764342D02*
X62011905Y-83859580D01*
X62011905Y-83859580D02*
X62059524Y-83907200D01*
X62059524Y-83907200D02*
X62154762Y-83954819D01*
X62154762Y-83954819D02*
X62345238Y-83954819D01*
X62345238Y-83954819D02*
X62440476Y-83907200D01*
X62440476Y-83907200D02*
X62488095Y-83859580D01*
X62488095Y-83859580D02*
X62535714Y-83764342D01*
X62535714Y-83764342D02*
X62535714Y-83526247D01*
X62535714Y-83526247D02*
X62488095Y-83431009D01*
X62488095Y-83431009D02*
X62440476Y-83383390D01*
X62440476Y-83383390D02*
X62345238Y-83335771D01*
X62345238Y-83335771D02*
X62154762Y-83335771D01*
X62154762Y-83335771D02*
X62059524Y-83383390D01*
X62059524Y-83383390D02*
X62011905Y-83431009D01*
X62011905Y-83431009D02*
X61964286Y-83526247D01*
X65583333Y-63954819D02*
X65250000Y-63478628D01*
X65011905Y-63954819D02*
X65011905Y-62954819D01*
X65011905Y-62954819D02*
X65392857Y-62954819D01*
X65392857Y-62954819D02*
X65488095Y-63002438D01*
X65488095Y-63002438D02*
X65535714Y-63050057D01*
X65535714Y-63050057D02*
X65583333Y-63145295D01*
X65583333Y-63145295D02*
X65583333Y-63288152D01*
X65583333Y-63288152D02*
X65535714Y-63383390D01*
X65535714Y-63383390D02*
X65488095Y-63431009D01*
X65488095Y-63431009D02*
X65392857Y-63478628D01*
X65392857Y-63478628D02*
X65011905Y-63478628D01*
X65916667Y-62954819D02*
X66535714Y-62954819D01*
X66535714Y-62954819D02*
X66202381Y-63335771D01*
X66202381Y-63335771D02*
X66345238Y-63335771D01*
X66345238Y-63335771D02*
X66440476Y-63383390D01*
X66440476Y-63383390D02*
X66488095Y-63431009D01*
X66488095Y-63431009D02*
X66535714Y-63526247D01*
X66535714Y-63526247D02*
X66535714Y-63764342D01*
X66535714Y-63764342D02*
X66488095Y-63859580D01*
X66488095Y-63859580D02*
X66440476Y-63907200D01*
X66440476Y-63907200D02*
X66345238Y-63954819D01*
X66345238Y-63954819D02*
X66059524Y-63954819D01*
X66059524Y-63954819D02*
X65964286Y-63907200D01*
X65964286Y-63907200D02*
X65916667Y-63859580D01*
X58038446Y-67859580D02*
X57990827Y-67907200D01*
X57990827Y-67907200D02*
X57847970Y-67954819D01*
X57847970Y-67954819D02*
X57752732Y-67954819D01*
X57752732Y-67954819D02*
X57609875Y-67907200D01*
X57609875Y-67907200D02*
X57514637Y-67811961D01*
X57514637Y-67811961D02*
X57467018Y-67716723D01*
X57467018Y-67716723D02*
X57419399Y-67526247D01*
X57419399Y-67526247D02*
X57419399Y-67383390D01*
X57419399Y-67383390D02*
X57467018Y-67192914D01*
X57467018Y-67192914D02*
X57514637Y-67097676D01*
X57514637Y-67097676D02*
X57609875Y-67002438D01*
X57609875Y-67002438D02*
X57752732Y-66954819D01*
X57752732Y-66954819D02*
X57847970Y-66954819D01*
X57847970Y-66954819D02*
X57990827Y-67002438D01*
X57990827Y-67002438D02*
X58038446Y-67050057D01*
X58371780Y-66954819D02*
X58990827Y-66954819D01*
X58990827Y-66954819D02*
X58657494Y-67335771D01*
X58657494Y-67335771D02*
X58800351Y-67335771D01*
X58800351Y-67335771D02*
X58895589Y-67383390D01*
X58895589Y-67383390D02*
X58943208Y-67431009D01*
X58943208Y-67431009D02*
X58990827Y-67526247D01*
X58990827Y-67526247D02*
X58990827Y-67764342D01*
X58990827Y-67764342D02*
X58943208Y-67859580D01*
X58943208Y-67859580D02*
X58895589Y-67907200D01*
X58895589Y-67907200D02*
X58800351Y-67954819D01*
X58800351Y-67954819D02*
X58514637Y-67954819D01*
X58514637Y-67954819D02*
X58419399Y-67907200D01*
X58419399Y-67907200D02*
X58371780Y-67859580D01*
X71583333Y-63954819D02*
X71250000Y-63478628D01*
X71011905Y-63954819D02*
X71011905Y-62954819D01*
X71011905Y-62954819D02*
X71392857Y-62954819D01*
X71392857Y-62954819D02*
X71488095Y-63002438D01*
X71488095Y-63002438D02*
X71535714Y-63050057D01*
X71535714Y-63050057D02*
X71583333Y-63145295D01*
X71583333Y-63145295D02*
X71583333Y-63288152D01*
X71583333Y-63288152D02*
X71535714Y-63383390D01*
X71535714Y-63383390D02*
X71488095Y-63431009D01*
X71488095Y-63431009D02*
X71392857Y-63478628D01*
X71392857Y-63478628D02*
X71011905Y-63478628D01*
X72535714Y-63954819D02*
X71964286Y-63954819D01*
X72250000Y-63954819D02*
X72250000Y-62954819D01*
X72250000Y-62954819D02*
X72154762Y-63097676D01*
X72154762Y-63097676D02*
X72059524Y-63192914D01*
X72059524Y-63192914D02*
X71964286Y-63240533D01*
X75380952Y-67454819D02*
X74904762Y-67454819D01*
X74904762Y-67454819D02*
X74904762Y-66454819D01*
X75714286Y-66931009D02*
X76047619Y-66931009D01*
X76190476Y-67454819D02*
X75714286Y-67454819D01*
X75714286Y-67454819D02*
X75714286Y-66454819D01*
X75714286Y-66454819D02*
X76190476Y-66454819D01*
X76619048Y-67454819D02*
X76619048Y-66454819D01*
X76619048Y-66454819D02*
X76857143Y-66454819D01*
X76857143Y-66454819D02*
X77000000Y-66502438D01*
X77000000Y-66502438D02*
X77095238Y-66597676D01*
X77095238Y-66597676D02*
X77142857Y-66692914D01*
X77142857Y-66692914D02*
X77190476Y-66883390D01*
X77190476Y-66883390D02*
X77190476Y-67026247D01*
X77190476Y-67026247D02*
X77142857Y-67216723D01*
X77142857Y-67216723D02*
X77095238Y-67311961D01*
X77095238Y-67311961D02*
X77000000Y-67407200D01*
X77000000Y-67407200D02*
X76857143Y-67454819D01*
X76857143Y-67454819D02*
X76619048Y-67454819D01*
X77571429Y-66550057D02*
X77619048Y-66502438D01*
X77619048Y-66502438D02*
X77714286Y-66454819D01*
X77714286Y-66454819D02*
X77952381Y-66454819D01*
X77952381Y-66454819D02*
X78047619Y-66502438D01*
X78047619Y-66502438D02*
X78095238Y-66550057D01*
X78095238Y-66550057D02*
X78142857Y-66645295D01*
X78142857Y-66645295D02*
X78142857Y-66740533D01*
X78142857Y-66740533D02*
X78095238Y-66883390D01*
X78095238Y-66883390D02*
X77523810Y-67454819D01*
X77523810Y-67454819D02*
X78142857Y-67454819D01*
X53333333Y-84124819D02*
X53000000Y-83648628D01*
X52761905Y-84124819D02*
X52761905Y-83124819D01*
X52761905Y-83124819D02*
X53142857Y-83124819D01*
X53142857Y-83124819D02*
X53238095Y-83172438D01*
X53238095Y-83172438D02*
X53285714Y-83220057D01*
X53285714Y-83220057D02*
X53333333Y-83315295D01*
X53333333Y-83315295D02*
X53333333Y-83458152D01*
X53333333Y-83458152D02*
X53285714Y-83553390D01*
X53285714Y-83553390D02*
X53238095Y-83601009D01*
X53238095Y-83601009D02*
X53142857Y-83648628D01*
X53142857Y-83648628D02*
X52761905Y-83648628D01*
X53666667Y-83124819D02*
X54333333Y-83124819D01*
X54333333Y-83124819D02*
X53904762Y-84124819D01*
X75630952Y-59454819D02*
X75154762Y-59454819D01*
X75154762Y-59454819D02*
X75154762Y-58454819D01*
X75964286Y-58931009D02*
X76297619Y-58931009D01*
X76440476Y-59454819D02*
X75964286Y-59454819D01*
X75964286Y-59454819D02*
X75964286Y-58454819D01*
X75964286Y-58454819D02*
X76440476Y-58454819D01*
X76869048Y-59454819D02*
X76869048Y-58454819D01*
X76869048Y-58454819D02*
X77107143Y-58454819D01*
X77107143Y-58454819D02*
X77250000Y-58502438D01*
X77250000Y-58502438D02*
X77345238Y-58597676D01*
X77345238Y-58597676D02*
X77392857Y-58692914D01*
X77392857Y-58692914D02*
X77440476Y-58883390D01*
X77440476Y-58883390D02*
X77440476Y-59026247D01*
X77440476Y-59026247D02*
X77392857Y-59216723D01*
X77392857Y-59216723D02*
X77345238Y-59311961D01*
X77345238Y-59311961D02*
X77250000Y-59407200D01*
X77250000Y-59407200D02*
X77107143Y-59454819D01*
X77107143Y-59454819D02*
X76869048Y-59454819D01*
X78392857Y-59454819D02*
X77821429Y-59454819D01*
X78107143Y-59454819D02*
X78107143Y-58454819D01*
X78107143Y-58454819D02*
X78011905Y-58597676D01*
X78011905Y-58597676D02*
X77916667Y-58692914D01*
X77916667Y-58692914D02*
X77821429Y-58740533D01*
X68583333Y-63954819D02*
X68250000Y-63478628D01*
X68011905Y-63954819D02*
X68011905Y-62954819D01*
X68011905Y-62954819D02*
X68392857Y-62954819D01*
X68392857Y-62954819D02*
X68488095Y-63002438D01*
X68488095Y-63002438D02*
X68535714Y-63050057D01*
X68535714Y-63050057D02*
X68583333Y-63145295D01*
X68583333Y-63145295D02*
X68583333Y-63288152D01*
X68583333Y-63288152D02*
X68535714Y-63383390D01*
X68535714Y-63383390D02*
X68488095Y-63431009D01*
X68488095Y-63431009D02*
X68392857Y-63478628D01*
X68392857Y-63478628D02*
X68011905Y-63478628D01*
X68964286Y-63050057D02*
X69011905Y-63002438D01*
X69011905Y-63002438D02*
X69107143Y-62954819D01*
X69107143Y-62954819D02*
X69345238Y-62954819D01*
X69345238Y-62954819D02*
X69440476Y-63002438D01*
X69440476Y-63002438D02*
X69488095Y-63050057D01*
X69488095Y-63050057D02*
X69535714Y-63145295D01*
X69535714Y-63145295D02*
X69535714Y-63240533D01*
X69535714Y-63240533D02*
X69488095Y-63383390D01*
X69488095Y-63383390D02*
X68916667Y-63954819D01*
X68916667Y-63954819D02*
X69535714Y-63954819D01*
X70583333Y-83359580D02*
X70535714Y-83407200D01*
X70535714Y-83407200D02*
X70392857Y-83454819D01*
X70392857Y-83454819D02*
X70297619Y-83454819D01*
X70297619Y-83454819D02*
X70154762Y-83407200D01*
X70154762Y-83407200D02*
X70059524Y-83311961D01*
X70059524Y-83311961D02*
X70011905Y-83216723D01*
X70011905Y-83216723D02*
X69964286Y-83026247D01*
X69964286Y-83026247D02*
X69964286Y-82883390D01*
X69964286Y-82883390D02*
X70011905Y-82692914D01*
X70011905Y-82692914D02*
X70059524Y-82597676D01*
X70059524Y-82597676D02*
X70154762Y-82502438D01*
X70154762Y-82502438D02*
X70297619Y-82454819D01*
X70297619Y-82454819D02*
X70392857Y-82454819D01*
X70392857Y-82454819D02*
X70535714Y-82502438D01*
X70535714Y-82502438D02*
X70583333Y-82550057D01*
X71535714Y-83454819D02*
X70964286Y-83454819D01*
X71250000Y-83454819D02*
X71250000Y-82454819D01*
X71250000Y-82454819D02*
X71154762Y-82597676D01*
X71154762Y-82597676D02*
X71059524Y-82692914D01*
X71059524Y-82692914D02*
X70964286Y-82740533D01*
X74583333Y-81124819D02*
X74250000Y-80648628D01*
X74011905Y-81124819D02*
X74011905Y-80124819D01*
X74011905Y-80124819D02*
X74392857Y-80124819D01*
X74392857Y-80124819D02*
X74488095Y-80172438D01*
X74488095Y-80172438D02*
X74535714Y-80220057D01*
X74535714Y-80220057D02*
X74583333Y-80315295D01*
X74583333Y-80315295D02*
X74583333Y-80458152D01*
X74583333Y-80458152D02*
X74535714Y-80553390D01*
X74535714Y-80553390D02*
X74488095Y-80601009D01*
X74488095Y-80601009D02*
X74392857Y-80648628D01*
X74392857Y-80648628D02*
X74011905Y-80648628D01*
X75488095Y-80124819D02*
X75011905Y-80124819D01*
X75011905Y-80124819D02*
X74964286Y-80601009D01*
X74964286Y-80601009D02*
X75011905Y-80553390D01*
X75011905Y-80553390D02*
X75107143Y-80505771D01*
X75107143Y-80505771D02*
X75345238Y-80505771D01*
X75345238Y-80505771D02*
X75440476Y-80553390D01*
X75440476Y-80553390D02*
X75488095Y-80601009D01*
X75488095Y-80601009D02*
X75535714Y-80696247D01*
X75535714Y-80696247D02*
X75535714Y-80934342D01*
X75535714Y-80934342D02*
X75488095Y-81029580D01*
X75488095Y-81029580D02*
X75440476Y-81077200D01*
X75440476Y-81077200D02*
X75345238Y-81124819D01*
X75345238Y-81124819D02*
X75107143Y-81124819D01*
X75107143Y-81124819D02*
X75011905Y-81077200D01*
X75011905Y-81077200D02*
X74964286Y-81029580D01*
X72289160Y-85572200D02*
X72432017Y-85619819D01*
X72432017Y-85619819D02*
X72670112Y-85619819D01*
X72670112Y-85619819D02*
X72765350Y-85572200D01*
X72765350Y-85572200D02*
X72812969Y-85524580D01*
X72812969Y-85524580D02*
X72860588Y-85429342D01*
X72860588Y-85429342D02*
X72860588Y-85334104D01*
X72860588Y-85334104D02*
X72812969Y-85238866D01*
X72812969Y-85238866D02*
X72765350Y-85191247D01*
X72765350Y-85191247D02*
X72670112Y-85143628D01*
X72670112Y-85143628D02*
X72479636Y-85096009D01*
X72479636Y-85096009D02*
X72384398Y-85048390D01*
X72384398Y-85048390D02*
X72336779Y-85000771D01*
X72336779Y-85000771D02*
X72289160Y-84905533D01*
X72289160Y-84905533D02*
X72289160Y-84810295D01*
X72289160Y-84810295D02*
X72336779Y-84715057D01*
X72336779Y-84715057D02*
X72384398Y-84667438D01*
X72384398Y-84667438D02*
X72479636Y-84619819D01*
X72479636Y-84619819D02*
X72717731Y-84619819D01*
X72717731Y-84619819D02*
X72860588Y-84667438D01*
X73432017Y-85619819D02*
X73336779Y-85572200D01*
X73336779Y-85572200D02*
X73289160Y-85524580D01*
X73289160Y-85524580D02*
X73241541Y-85429342D01*
X73241541Y-85429342D02*
X73241541Y-85143628D01*
X73241541Y-85143628D02*
X73289160Y-85048390D01*
X73289160Y-85048390D02*
X73336779Y-85000771D01*
X73336779Y-85000771D02*
X73432017Y-84953152D01*
X73432017Y-84953152D02*
X73574874Y-84953152D01*
X73574874Y-84953152D02*
X73670112Y-85000771D01*
X73670112Y-85000771D02*
X73717731Y-85048390D01*
X73717731Y-85048390D02*
X73765350Y-85143628D01*
X73765350Y-85143628D02*
X73765350Y-85429342D01*
X73765350Y-85429342D02*
X73717731Y-85524580D01*
X73717731Y-85524580D02*
X73670112Y-85572200D01*
X73670112Y-85572200D02*
X73574874Y-85619819D01*
X73574874Y-85619819D02*
X73432017Y-85619819D01*
X74193922Y-85619819D02*
X74193922Y-84953152D01*
X74193922Y-84619819D02*
X74146303Y-84667438D01*
X74146303Y-84667438D02*
X74193922Y-84715057D01*
X74193922Y-84715057D02*
X74241541Y-84667438D01*
X74241541Y-84667438D02*
X74193922Y-84619819D01*
X74193922Y-84619819D02*
X74193922Y-84715057D01*
X74812969Y-85619819D02*
X74717731Y-85572200D01*
X74717731Y-85572200D02*
X74670112Y-85476961D01*
X74670112Y-85476961D02*
X74670112Y-84619819D01*
X76432017Y-85619819D02*
X75955827Y-85619819D01*
X75955827Y-85619819D02*
X75955827Y-84619819D01*
X76765351Y-85619819D02*
X76765351Y-84953152D01*
X76765351Y-84619819D02*
X76717732Y-84667438D01*
X76717732Y-84667438D02*
X76765351Y-84715057D01*
X76765351Y-84715057D02*
X76812970Y-84667438D01*
X76812970Y-84667438D02*
X76765351Y-84619819D01*
X76765351Y-84619819D02*
X76765351Y-84715057D01*
X77241541Y-84953152D02*
X77241541Y-85619819D01*
X77241541Y-85048390D02*
X77289160Y-85000771D01*
X77289160Y-85000771D02*
X77384398Y-84953152D01*
X77384398Y-84953152D02*
X77527255Y-84953152D01*
X77527255Y-84953152D02*
X77622493Y-85000771D01*
X77622493Y-85000771D02*
X77670112Y-85096009D01*
X77670112Y-85096009D02*
X77670112Y-85619819D01*
X78527255Y-85572200D02*
X78432017Y-85619819D01*
X78432017Y-85619819D02*
X78241541Y-85619819D01*
X78241541Y-85619819D02*
X78146303Y-85572200D01*
X78146303Y-85572200D02*
X78098684Y-85476961D01*
X78098684Y-85476961D02*
X78098684Y-85096009D01*
X78098684Y-85096009D02*
X78146303Y-85000771D01*
X78146303Y-85000771D02*
X78241541Y-84953152D01*
X78241541Y-84953152D02*
X78432017Y-84953152D01*
X78432017Y-84953152D02*
X78527255Y-85000771D01*
X78527255Y-85000771D02*
X78574874Y-85096009D01*
X78574874Y-85096009D02*
X78574874Y-85191247D01*
X78574874Y-85191247D02*
X78098684Y-85286485D01*
X77583333Y-81124819D02*
X77250000Y-80648628D01*
X77011905Y-81124819D02*
X77011905Y-80124819D01*
X77011905Y-80124819D02*
X77392857Y-80124819D01*
X77392857Y-80124819D02*
X77488095Y-80172438D01*
X77488095Y-80172438D02*
X77535714Y-80220057D01*
X77535714Y-80220057D02*
X77583333Y-80315295D01*
X77583333Y-80315295D02*
X77583333Y-80458152D01*
X77583333Y-80458152D02*
X77535714Y-80553390D01*
X77535714Y-80553390D02*
X77488095Y-80601009D01*
X77488095Y-80601009D02*
X77392857Y-80648628D01*
X77392857Y-80648628D02*
X77011905Y-80648628D01*
X78440476Y-80458152D02*
X78440476Y-81124819D01*
X78202381Y-80077200D02*
X77964286Y-80791485D01*
X77964286Y-80791485D02*
X78583333Y-80791485D01*
X65738095Y-75454819D02*
X65738095Y-76264342D01*
X65738095Y-76264342D02*
X65785714Y-76359580D01*
X65785714Y-76359580D02*
X65833333Y-76407200D01*
X65833333Y-76407200D02*
X65928571Y-76454819D01*
X65928571Y-76454819D02*
X66119047Y-76454819D01*
X66119047Y-76454819D02*
X66214285Y-76407200D01*
X66214285Y-76407200D02*
X66261904Y-76359580D01*
X66261904Y-76359580D02*
X66309523Y-76264342D01*
X66309523Y-76264342D02*
X66309523Y-75454819D01*
X67309523Y-76454819D02*
X66738095Y-76454819D01*
X67023809Y-76454819D02*
X67023809Y-75454819D01*
X67023809Y-75454819D02*
X66928571Y-75597676D01*
X66928571Y-75597676D02*
X66833333Y-75692914D01*
X66833333Y-75692914D02*
X66738095Y-75740533D01*
D12*
%TO.C,D1*%
X56750000Y-72640000D02*
X56750000Y-73860000D01*
X58220000Y-74640000D02*
X55280000Y-74640000D01*
X58220000Y-74760000D02*
X55280000Y-74760000D01*
X58220000Y-74880000D02*
X55280000Y-74880000D01*
X56750000Y-80520000D02*
X56750000Y-79300000D01*
X58220000Y-73860000D02*
X55280000Y-73860000D01*
X55280000Y-79300000D01*
X58220000Y-79300000D01*
X58220000Y-73860000D01*
%TO.C,R6*%
X61750000Y-72040000D02*
X61750000Y-72810000D01*
X61750000Y-80120000D02*
X61750000Y-79350000D01*
X63120000Y-72810000D02*
X60380000Y-72810000D01*
X60380000Y-79350000D01*
X63120000Y-79350000D01*
X63120000Y-72810000D01*
%TO.C,R3*%
X65750000Y-52460000D02*
X65750000Y-53230000D01*
X65750000Y-60540000D02*
X65750000Y-59770000D01*
X67120000Y-53230000D02*
X64380000Y-53230000D01*
X64380000Y-59770000D01*
X67120000Y-59770000D01*
X67120000Y-53230000D01*
%TO.C,C3*%
X57259888Y-68975000D02*
X56759888Y-68975000D01*
X57009888Y-69225000D02*
X57009888Y-68725000D01*
X54455113Y-70080000D02*
X54455113Y-64920000D01*
X54415113Y-70080000D02*
X54415113Y-64920000D01*
X54375113Y-70079000D02*
X54375113Y-64921000D01*
X54335113Y-70077000D02*
X54335113Y-64923000D01*
X54295113Y-70075000D02*
X54295113Y-64925000D01*
X54255113Y-70072000D02*
X54255113Y-64928000D01*
X54215113Y-70069000D02*
X54215113Y-68540000D01*
X54215113Y-66460000D02*
X54215113Y-64931000D01*
X54175113Y-70065000D02*
X54175113Y-68540000D01*
X54175113Y-66460000D02*
X54175113Y-64935000D01*
X54135113Y-70060000D02*
X54135113Y-68540000D01*
X54135113Y-66460000D02*
X54135113Y-64940000D01*
X54095113Y-70055000D02*
X54095113Y-68540000D01*
X54095113Y-66460000D02*
X54095113Y-64945000D01*
X54055113Y-70049000D02*
X54055113Y-68540000D01*
X54055113Y-66460000D02*
X54055113Y-64951000D01*
X54015113Y-70043000D02*
X54015113Y-68540000D01*
X54015113Y-66460000D02*
X54015113Y-64957000D01*
X53975113Y-70036000D02*
X53975113Y-68540000D01*
X53975113Y-66460000D02*
X53975113Y-64964000D01*
X53935113Y-70028000D02*
X53935113Y-68540000D01*
X53935113Y-66460000D02*
X53935113Y-64972000D01*
X53895113Y-70019000D02*
X53895113Y-68540000D01*
X53895113Y-66460000D02*
X53895113Y-64981000D01*
X53855113Y-70010000D02*
X53855113Y-68540000D01*
X53855113Y-66460000D02*
X53855113Y-64990000D01*
X53815113Y-70001000D02*
X53815113Y-68540000D01*
X53815113Y-66460000D02*
X53815113Y-64999000D01*
X53775113Y-69990000D02*
X53775113Y-68540000D01*
X53775113Y-66460000D02*
X53775113Y-65010000D01*
X53735113Y-69979000D02*
X53735113Y-68540000D01*
X53735113Y-66460000D02*
X53735113Y-65021000D01*
X53695113Y-69967000D02*
X53695113Y-68540000D01*
X53695113Y-66460000D02*
X53695113Y-65033000D01*
X53655113Y-69955000D02*
X53655113Y-68540000D01*
X53655113Y-66460000D02*
X53655113Y-65045000D01*
X53615113Y-69942000D02*
X53615113Y-68540000D01*
X53615113Y-66460000D02*
X53615113Y-65058000D01*
X53575113Y-69928000D02*
X53575113Y-68540000D01*
X53575113Y-66460000D02*
X53575113Y-65072000D01*
X53535113Y-69913000D02*
X53535113Y-68540000D01*
X53535113Y-66460000D02*
X53535113Y-65087000D01*
X53495113Y-69898000D02*
X53495113Y-68540000D01*
X53495113Y-66460000D02*
X53495113Y-65102000D01*
X53455113Y-69882000D02*
X53455113Y-68540000D01*
X53455113Y-66460000D02*
X53455113Y-65118000D01*
X53415113Y-69865000D02*
X53415113Y-68540000D01*
X53415113Y-66460000D02*
X53415113Y-65135000D01*
X53375113Y-69847000D02*
X53375113Y-68540000D01*
X53375113Y-66460000D02*
X53375113Y-65153000D01*
X53335113Y-69829000D02*
X53335113Y-68540000D01*
X53335113Y-66460000D02*
X53335113Y-65171000D01*
X53295113Y-69809000D02*
X53295113Y-68540000D01*
X53295113Y-66460000D02*
X53295113Y-65191000D01*
X53255113Y-69789000D02*
X53255113Y-68540000D01*
X53255113Y-66460000D02*
X53255113Y-65211000D01*
X53215113Y-69768000D02*
X53215113Y-68540000D01*
X53215113Y-66460000D02*
X53215113Y-65232000D01*
X53175113Y-69746000D02*
X53175113Y-68540000D01*
X53175113Y-66460000D02*
X53175113Y-65254000D01*
X53135113Y-69723000D02*
X53135113Y-68540000D01*
X53135113Y-66460000D02*
X53135113Y-65277000D01*
X53095113Y-69699000D02*
X53095113Y-68540000D01*
X53095113Y-66460000D02*
X53095113Y-65301000D01*
X53055113Y-69675000D02*
X53055113Y-68540000D01*
X53055113Y-66460000D02*
X53055113Y-65325000D01*
X53015113Y-69649000D02*
X53015113Y-68540000D01*
X53015113Y-66460000D02*
X53015113Y-65351000D01*
X52975113Y-69622000D02*
X52975113Y-68540000D01*
X52975113Y-66460000D02*
X52975113Y-65378000D01*
X52935113Y-69594000D02*
X52935113Y-68540000D01*
X52935113Y-66460000D02*
X52935113Y-65406000D01*
X52895113Y-69565000D02*
X52895113Y-68540000D01*
X52895113Y-66460000D02*
X52895113Y-65435000D01*
X52855113Y-69535000D02*
X52855113Y-68540000D01*
X52855113Y-66460000D02*
X52855113Y-65465000D01*
X52815113Y-69503000D02*
X52815113Y-68540000D01*
X52815113Y-66460000D02*
X52815113Y-65497000D01*
X52775113Y-69470000D02*
X52775113Y-68540000D01*
X52775113Y-66460000D02*
X52775113Y-65530000D01*
X52735113Y-69436000D02*
X52735113Y-68540000D01*
X52735113Y-66460000D02*
X52735113Y-65564000D01*
X52695113Y-69401000D02*
X52695113Y-68540000D01*
X52695113Y-66460000D02*
X52695113Y-65599000D01*
X52655113Y-69364000D02*
X52655113Y-68540000D01*
X52655113Y-66460000D02*
X52655113Y-65636000D01*
X52615113Y-69325000D02*
X52615113Y-68540000D01*
X52615113Y-66460000D02*
X52615113Y-65675000D01*
X52575113Y-69285000D02*
X52575113Y-68540000D01*
X52575113Y-66460000D02*
X52575113Y-65715000D01*
X52535113Y-69243000D02*
X52535113Y-68540000D01*
X52535113Y-66460000D02*
X52535113Y-65757000D01*
X52495113Y-69199000D02*
X52495113Y-68540000D01*
X52495113Y-66460000D02*
X52495113Y-65801000D01*
X52455113Y-69152000D02*
X52455113Y-68540000D01*
X52455113Y-66460000D02*
X52455113Y-65848000D01*
X52415113Y-69104000D02*
X52415113Y-68540000D01*
X52415113Y-66460000D02*
X52415113Y-65896000D01*
X52375113Y-69053000D02*
X52375113Y-68540000D01*
X52375113Y-66460000D02*
X52375113Y-65947000D01*
X52335113Y-68999000D02*
X52335113Y-68540000D01*
X52335113Y-66460000D02*
X52335113Y-66001000D01*
X52295113Y-68943000D02*
X52295113Y-68540000D01*
X52295113Y-66460000D02*
X52295113Y-66057000D01*
X52255113Y-68883000D02*
X52255113Y-68540000D01*
X52255113Y-66460000D02*
X52255113Y-66117000D01*
X52215113Y-68819000D02*
X52215113Y-68540000D01*
X52215113Y-66460000D02*
X52215113Y-66181000D01*
X52175113Y-68751000D02*
X52175113Y-68540000D01*
X52175113Y-66460000D02*
X52175113Y-66249000D01*
X52135113Y-68677000D02*
X52135113Y-66323000D01*
X52095113Y-68598000D02*
X52095113Y-66402000D01*
X52055113Y-68511000D02*
X52055113Y-66489000D01*
X52015113Y-68414000D02*
X52015113Y-66586000D01*
X51975113Y-68305000D02*
X51975113Y-66695000D01*
X51935113Y-68177000D02*
X51935113Y-66823000D01*
X51895113Y-68017000D02*
X51895113Y-66983000D01*
X51855113Y-67783000D02*
X51855113Y-67217000D01*
X57075113Y-67500000D02*
G75*
G02*
X51835113Y-67500000I-2620000J0D01*
G01*
X51835113Y-67500000D02*
G75*
G02*
X57075113Y-67500000I2620000J0D01*
G01*
%TO.C,R1*%
X71750000Y-60540000D02*
X71750000Y-59770000D01*
X71750000Y-52460000D02*
X71750000Y-53230000D01*
X70380000Y-59770000D02*
X73120000Y-59770000D01*
X73120000Y-53230000D01*
X70380000Y-53230000D01*
X70380000Y-59770000D01*
%TO.C,LED2*%
X78045000Y-60460000D02*
X74955000Y-60460000D01*
X78044830Y-60460000D02*
G75*
G02*
X76500000Y-66010000I-1544830J-2560000D01*
G01*
X76500000Y-66010000D02*
G75*
G02*
X74955170Y-60460000I0J2990000D01*
G01*
X79000000Y-63020000D02*
G75*
G02*
X74000000Y-63020000I-2500000J0D01*
G01*
X74000000Y-63020000D02*
G75*
G02*
X79000000Y-63020000I2500000J0D01*
G01*
%TO.C,R7*%
X53500000Y-80710000D02*
X53500000Y-79940000D01*
X53500000Y-72630000D02*
X53500000Y-73400000D01*
X52130000Y-79940000D02*
X54870000Y-79940000D01*
X54870000Y-73400000D01*
X52130000Y-73400000D01*
X52130000Y-79940000D01*
D13*
%TO.C,LED1*%
X76750000Y-50465400D02*
X76750000Y-50793060D01*
X78035241Y-52180444D02*
G75*
G02*
X78031337Y-57058210I-1285241J-2437856D01*
G01*
X75468665Y-57058211D02*
G75*
G02*
X75464762Y-52180443I1281335J2439911D01*
G01*
D12*
%TO.C,R2*%
X68750000Y-60540000D02*
X68750000Y-59770000D01*
X68750000Y-52460000D02*
X68750000Y-53230000D01*
X67380000Y-59770000D02*
X70120000Y-59770000D01*
X70120000Y-53230000D01*
X67380000Y-53230000D01*
X67380000Y-59770000D01*
%TO.C,C1*%
X73070000Y-75630000D02*
X73070000Y-81870000D01*
X71585000Y-75630000D02*
X73070000Y-75630000D01*
X68430000Y-75630000D02*
X69915000Y-75630000D01*
X73070000Y-81870000D02*
X71585000Y-81870000D01*
X69915000Y-81870000D02*
X68430000Y-81870000D01*
X68430000Y-81870000D02*
X68430000Y-75630000D01*
%TO.C,J1*%
X50900000Y-61655000D02*
X50900000Y-60385000D01*
X52170000Y-61655000D02*
X50900000Y-61655000D01*
X54280000Y-59307642D02*
X54280000Y-58995000D01*
X55140000Y-59307642D02*
X55140000Y-58995000D01*
X56820000Y-59307642D02*
X56820000Y-58995000D01*
X57680000Y-59307642D02*
X57680000Y-58995000D01*
X59360000Y-59307642D02*
X59360000Y-58995000D01*
X60220000Y-59307642D02*
X60220000Y-58995000D01*
X61900000Y-59307642D02*
X61900000Y-58995000D01*
X62760000Y-59307642D02*
X62760000Y-58995000D01*
X51740000Y-59225000D02*
X51740000Y-58995000D01*
X52600000Y-59225000D02*
X52600000Y-58995000D01*
X50790000Y-58995000D02*
X63710000Y-58995000D01*
X53440000Y-58995000D02*
X53440000Y-56235000D01*
X55980000Y-58995000D02*
X55980000Y-56235000D01*
X58520000Y-58995000D02*
X58520000Y-56235000D01*
X61060000Y-58995000D02*
X61060000Y-56235000D01*
X63710000Y-58995000D02*
X63710000Y-56235000D01*
X50790000Y-56235000D02*
X50790000Y-58995000D01*
X54280000Y-56235000D02*
X54280000Y-50235000D01*
X56820000Y-56235000D02*
X56820000Y-50235000D01*
X59360000Y-56235000D02*
X59360000Y-50235000D01*
X61900000Y-56235000D02*
X61900000Y-50235000D01*
X63710000Y-56235000D02*
X50790000Y-56235000D01*
X54280000Y-50235000D02*
X55140000Y-50235000D01*
X55140000Y-50235000D02*
X55140000Y-56235000D01*
X56820000Y-50235000D02*
X57680000Y-50235000D01*
X57680000Y-50235000D02*
X57680000Y-56235000D01*
X59360000Y-50235000D02*
X60220000Y-50235000D01*
X60220000Y-50235000D02*
X60220000Y-56235000D01*
X61900000Y-50235000D02*
X62760000Y-50235000D01*
X62760000Y-50235000D02*
X62760000Y-56235000D01*
X51740000Y-56235000D02*
X52600000Y-56235000D01*
X52600000Y-50235000D01*
X51740000Y-50235000D01*
X51740000Y-56235000D01*
G36*
X51740000Y-56235000D02*
G01*
X52600000Y-56235000D01*
X52600000Y-50235000D01*
X51740000Y-50235000D01*
X51740000Y-56235000D01*
G37*
%TO.C,R5*%
X74750000Y-69710000D02*
X74750000Y-70480000D01*
X74750000Y-77790000D02*
X74750000Y-77020000D01*
X76120000Y-70480000D02*
X73380000Y-70480000D01*
X73380000Y-77020000D01*
X76120000Y-77020000D01*
X76120000Y-70480000D01*
D14*
%TO.C,C2*%
X51000000Y-86000000D02*
X79000000Y-86000000D01*
D12*
%TO.C,R4*%
X77750000Y-77790000D02*
X77750000Y-77020000D01*
X77750000Y-69710000D02*
X77750000Y-70480000D01*
X76380000Y-77020000D02*
X79120000Y-77020000D01*
X79120000Y-70480000D01*
X76380000Y-70480000D01*
X76380000Y-77020000D01*
%TO.C,U1*%
X65660000Y-64670000D02*
X65660000Y-74950000D01*
X65660000Y-74950000D02*
X70960000Y-74950000D01*
X67310000Y-64670000D02*
X65660000Y-64670000D01*
X70960000Y-64670000D02*
X69310000Y-64670000D01*
X70960000Y-74950000D02*
X70960000Y-64670000D01*
X69310000Y-64670000D02*
G75*
G02*
X67310000Y-64670000I-1000000J0D01*
G01*
%TD*%
M02*
