%TF.GenerationSoftware,KiCad,Pcbnew,9.0.4*%
%TF.CreationDate,2026-03-12T01:03:25+11:00*%
%TF.ProjectId,SMEE-DESIGNPROJECT,534d4545-2d44-4455-9349-474e50524f4a,rev?*%
%TF.SameCoordinates,Original*%
%TF.FileFunction,Soldermask,Top*%
%TF.FilePolarity,Negative*%
%FSLAX46Y46*%
G04 Gerber Fmt 4.6, Leading zero omitted, Abs format (unit mm)*
G04 Created by KiCad (PCBNEW 9.0.4) date 2026-03-12 01:03:25*
%MOMM*%
%LPD*%
G01*
G04 APERTURE LIST*
G04 Aperture macros list*
%AMRoundRect*
0 Rectangle with rounded corners*
0 $1 Rounding radius*
0 $2 $3 $4 $5 $6 $7 $8 $9 X,Y pos of 4 corners*
0 Add a 4 corners polygon primitive as box body*
4,1,4,$2,$3,$4,$5,$6,$7,$8,$9,$2,$3,0*
0 Add four circle primitives for the rounded corners*
1,1,$1+$1,$2,$3*
1,1,$1+$1,$4,$5*
1,1,$1+$1,$6,$7*
1,1,$1+$1,$8,$9*
0 Add four rect primitives between the rounded corners*
20,1,$1+$1,$2,$3,$4,$5,0*
20,1,$1+$1,$4,$5,$6,$7,0*
20,1,$1+$1,$6,$7,$8,$9,0*
20,1,$1+$1,$8,$9,$2,$3,0*%
G04 Aperture macros list end*
%ADD10RoundRect,0.250000X-0.650000X0.650000X-0.650000X-0.650000X0.650000X-0.650000X0.650000X0.650000X0*%
%ADD11C,1.800000*%
%ADD12C,1.600000*%
%ADD13RoundRect,0.250000X0.550000X0.550000X-0.550000X0.550000X-0.550000X-0.550000X0.550000X-0.550000X0*%
%ADD14R,1.800000X1.800000*%
%ADD15R,1.905000X1.905000*%
%ADD16C,1.905000*%
%ADD17R,1.700000X1.700000*%
%ADD18C,1.700000*%
%ADD19RoundRect,0.250000X-0.550000X-0.550000X0.550000X-0.550000X0.550000X0.550000X-0.550000X0.550000X0*%
G04 APERTURE END LIST*
D10*
%TO.C,D1*%
X56750000Y-71500000D03*
D11*
X56750000Y-81660000D03*
%TD*%
D12*
%TO.C,R6*%
X61750000Y-71000000D03*
X61750000Y-81160000D03*
%TD*%
%TO.C,R3*%
X65750000Y-51420000D03*
X65750000Y-61580000D03*
%TD*%
D13*
%TO.C,C3*%
X55705113Y-67500000D03*
D12*
X53205113Y-67500000D03*
%TD*%
%TO.C,R1*%
X71750000Y-61580000D03*
X71750000Y-51420000D03*
%TD*%
D14*
%TO.C,LED2*%
X76500000Y-61750000D03*
D11*
X76500000Y-64290000D03*
%TD*%
D12*
%TO.C,R7*%
X53500000Y-81750000D03*
X53500000Y-71590000D03*
%TD*%
D15*
%TO.C,LED1*%
X76750000Y-52078300D03*
D16*
X76750000Y-54618300D03*
X76750000Y-57158300D03*
%TD*%
D12*
%TO.C,R2*%
X68750000Y-61580000D03*
X68750000Y-51420000D03*
%TD*%
%TO.C,C1*%
X70750000Y-76250000D03*
X70750000Y-81250000D03*
%TD*%
D17*
%TO.C,J1*%
X52170000Y-60385000D03*
D18*
X54710000Y-60385000D03*
X57250000Y-60385000D03*
X59790000Y-60385000D03*
X62330000Y-60385000D03*
%TD*%
D12*
%TO.C,R5*%
X74750000Y-68670000D03*
X74750000Y-78830000D03*
%TD*%
%TO.C,R4*%
X77750000Y-78830000D03*
X77750000Y-68670000D03*
%TD*%
D19*
%TO.C,U1*%
X64500000Y-66000000D03*
D12*
X64500000Y-68540000D03*
X64500000Y-71080000D03*
X64500000Y-73620000D03*
X72120000Y-73620000D03*
X72120000Y-71080000D03*
X72120000Y-68540000D03*
X72120000Y-66000000D03*
%TD*%
M02*
