M48
; DRILL file {KiCad 9.0.4} date 2026-03-12T01:03:31+1100
; FORMAT={-:-/ absolute / metric / decimal}
; #@! TF.CreationDate,2026-03-12T01:03:31+11:00
; #@! TF.GenerationSoftware,Kicad,Pcbnew,9.0.4
; #@! TF.FileFunction,Plated,1,2,PTH
FMAT,2
METRIC
; #@! TA.AperFunction,Plated,PTH,ComponentDrill
T1C0.800
; #@! TA.AperFunction,Plated,PTH,ComponentDrill
T2C0.900
; #@! TA.AperFunction,Plated,PTH,ComponentDrill
T3C1.000
; #@! TA.AperFunction,Plated,PTH,ComponentDrill
T4C1.397
%
G90
G05
T1
X53.205Y-67.5
X53.5Y-71.59
X53.5Y-81.75
X55.705Y-67.5
X61.75Y-71.0
X61.75Y-81.16
X64.5Y-66.0
X64.5Y-68.54
X64.5Y-71.08
X64.5Y-73.62
X65.75Y-51.42
X65.75Y-61.58
X68.75Y-51.42
X68.75Y-61.58
X70.75Y-76.25
X70.75Y-81.25
X71.75Y-51.42
X71.75Y-61.58
X72.12Y-66.0
X72.12Y-68.54
X72.12Y-71.08
X72.12Y-73.62
X74.75Y-68.67
X74.75Y-78.83
X77.75Y-68.67
X77.75Y-78.83
T2
X56.75Y-71.5
X56.75Y-81.66
X76.5Y-61.75
X76.5Y-64.29
T3
X52.17Y-60.385
X54.71Y-60.385
X57.25Y-60.385
X59.79Y-60.385
X62.33Y-60.385
T4
X76.75Y-52.078
X76.75Y-54.618
X76.75Y-57.158
M30
