%TF.GenerationSoftware,KiCad,Pcbnew,9.0.4*%
%TF.CreationDate,2026-03-03T00:13:03+11:00*%
%TF.ProjectId,SMEE-DESIGNPROJECT,534d4545-2d44-4455-9349-474e50524f4a,1*%
%TF.SameCoordinates,Original*%
%TF.FileFunction,Copper,L2,Bot*%
%TF.FilePolarity,Positive*%
%FSLAX46Y46*%
G04 Gerber Fmt 4.6, Leading zero omitted, Abs format (unit mm)*
G04 Created by KiCad (PCBNEW 9.0.4) date 2026-03-03 00:13:03*
%MOMM*%
%LPD*%
G01*
G04 APERTURE LIST*
G04 Aperture macros list*
%AMRoundRect*
0 Rectangle with rounded corners*
0 $1 Rounding radius*
0 $2 $3 $4 $5 $6 $7 $8 $9 X,Y pos of 4 corners*
0 Add a 4 corners polygon primitive as box body*
4,1,4,$2,$3,$4,$5,$6,$7,$8,$9,$2,$3,0*
0 Add four circle primitives for the rounded corners*
1,1,$1+$1,$2,$3*
1,1,$1+$1,$4,$5*
1,1,$1+$1,$6,$7*
1,1,$1+$1,$8,$9*
0 Add four rect primitives between the rounded corners*
20,1,$1+$1,$2,$3,$4,$5,0*
20,1,$1+$1,$4,$5,$6,$7,0*
20,1,$1+$1,$6,$7,$8,$9,0*
20,1,$1+$1,$8,$9,$2,$3,0*%
G04 Aperture macros list end*
%TA.AperFunction,ComponentPad*%
%ADD10C,1.600000*%
%TD*%
%TA.AperFunction,ComponentPad*%
%ADD11RoundRect,0.250000X-0.550000X-0.550000X0.550000X-0.550000X0.550000X0.550000X-0.550000X0.550000X0*%
%TD*%
%TA.AperFunction,ComponentPad*%
%ADD12R,1.905000X1.905000*%
%TD*%
%TA.AperFunction,ComponentPad*%
%ADD13C,1.905000*%
%TD*%
%TA.AperFunction,ComponentPad*%
%ADD14R,1.800000X1.800000*%
%TD*%
%TA.AperFunction,ComponentPad*%
%ADD15C,1.800000*%
%TD*%
%TA.AperFunction,ComponentPad*%
%ADD16RoundRect,0.250000X-0.650000X-0.650000X0.650000X-0.650000X0.650000X0.650000X-0.650000X0.650000X0*%
%TD*%
%TA.AperFunction,ComponentPad*%
%ADD17R,1.700000X1.700000*%
%TD*%
%TA.AperFunction,ComponentPad*%
%ADD18C,1.700000*%
%TD*%
G04 APERTURE END LIST*
D10*
%TO.P,C1,1*%
%TO.N,Net-(U2-THR)*%
X135000000Y-75625000D03*
%TO.P,C1,2*%
%TO.N,GND*%
X140000000Y-75625000D03*
%TD*%
D11*
%TO.P,U2,1,GND*%
%TO.N,GND*%
X118195000Y-65065000D03*
D10*
%TO.P,U2,2,TR*%
%TO.N,Net-(U2-THR)*%
X118195000Y-67605000D03*
%TO.P,U2,3,Q*%
%TO.N,/Out*%
X118195000Y-70145000D03*
%TO.P,U2,4,R*%
%TO.N,+3.3V*%
X118195000Y-72685000D03*
%TO.P,U2,5,CV*%
%TO.N,unconnected-(U2-CV-Pad5)*%
X125815000Y-72685000D03*
%TO.P,U2,6,THR*%
%TO.N,Net-(U2-THR)*%
X125815000Y-70145000D03*
%TO.P,U2,7,DIS*%
%TO.N,Net-(U2-DIS)*%
X125815000Y-67605000D03*
%TO.P,U2,8,VCC*%
%TO.N,+3.3V*%
X125815000Y-65065000D03*
%TD*%
%TO.P,R7,1*%
%TO.N,Net-(LED1-Pad1)*%
X133000000Y-49045000D03*
%TO.P,R7,2*%
%TO.N,/LED_R*%
X133000000Y-59205000D03*
%TD*%
%TO.P,R6,1*%
%TO.N,/Out*%
X118170000Y-75875000D03*
%TO.P,R6,2*%
%TO.N,Net-(D1-A)*%
X128330000Y-75875000D03*
%TD*%
%TO.P,R1,1*%
%TO.N,+3.3V*%
X129920000Y-68625000D03*
%TO.P,R1,2*%
%TO.N,Net-(U2-DIS)*%
X140080000Y-68625000D03*
%TD*%
D12*
%TO.P,LED1,1,1*%
%TO.N,Net-(LED1-Pad1)*%
X138250000Y-48335000D03*
D13*
%TO.P,LED1,2,2*%
%TO.N,GND*%
X138250000Y-50875000D03*
%TO.P,LED1,3,3*%
%TO.N,Net-(LED1-Pad3)*%
X138250000Y-53415000D03*
%TD*%
D14*
%TO.P,LED2,1,K*%
%TO.N,Net-(LED2-K)*%
X139250000Y-59375000D03*
D15*
%TO.P,LED2,2,A*%
%TO.N,+3.3V*%
X136710000Y-59375000D03*
%TD*%
D11*
%TO.P,C3,1*%
%TO.N,/Aout*%
X118294888Y-86625000D03*
D10*
%TO.P,C3,2*%
%TO.N,GND*%
X120794888Y-86625000D03*
%TD*%
D16*
%TO.P,D1,1,K*%
%TO.N,/Aout*%
X118170000Y-79125000D03*
D15*
%TO.P,D1,2,A*%
%TO.N,Net-(D1-A)*%
X128330000Y-79125000D03*
%TD*%
D10*
%TO.P,R5,1*%
%TO.N,GND*%
X128330000Y-82375000D03*
%TO.P,R5,2*%
%TO.N,/Aout*%
X118170000Y-82375000D03*
%TD*%
%TO.P,R4,1*%
%TO.N,Net-(LED2-K)*%
X140080000Y-65625000D03*
%TO.P,R4,2*%
%TO.N,GND*%
X129920000Y-65625000D03*
%TD*%
%TO.P,R2,1*%
%TO.N,Net-(U2-DIS)*%
X140080000Y-71625000D03*
%TO.P,R2,2*%
%TO.N,Net-(U2-THR)*%
X129920000Y-71625000D03*
%TD*%
%TO.P,R3,1*%
%TO.N,Net-(LED1-Pad3)*%
X130000000Y-49045000D03*
%TO.P,R3,2*%
%TO.N,/LED_G*%
X130000000Y-59205000D03*
%TD*%
D17*
%TO.P,J1,1,Pin_1*%
%TO.N,/Aout*%
X118960000Y-59125000D03*
D18*
%TO.P,J1,2,Pin_2*%
%TO.N,unconnected-(J1-Pin_2-Pad2)*%
X118960000Y-56585000D03*
%TO.P,J1,3,Pin_3*%
%TO.N,+3.3V*%
X121500000Y-59125000D03*
%TO.P,J1,4,Pin_4*%
%TO.N,/LED_R*%
X121500000Y-56585000D03*
%TO.P,J1,5,Pin_5*%
%TO.N,GND*%
X124040000Y-59125000D03*
%TO.P,J1,6,Pin_6*%
%TO.N,/LED_G*%
X124040000Y-56585000D03*
%TD*%
%TA.AperFunction,Conductor*%
%TO.N,GND*%
G36*
X136274565Y-46594454D02*
G01*
X136355347Y-46648430D01*
X136409323Y-46729212D01*
X136428277Y-46824500D01*
X136409323Y-46919788D01*
X136399986Y-46939774D01*
X136363591Y-47009451D01*
X136363590Y-47009453D01*
X136363590Y-47009454D01*
X136307615Y-47205078D01*
X136307614Y-47205082D01*
X136297000Y-47324463D01*
X136297000Y-49345531D01*
X136297001Y-49345543D01*
X136307613Y-49464914D01*
X136307613Y-49464917D01*
X136307614Y-49464918D01*
X136363591Y-49660549D01*
X136457802Y-49840907D01*
X136586391Y-49998609D01*
X136744093Y-50127198D01*
X136924451Y-50221409D01*
X137120082Y-50277386D01*
X137239463Y-50288000D01*
X139260536Y-50287999D01*
X139379918Y-50277386D01*
X139575549Y-50221409D01*
X139755907Y-50127198D01*
X139913609Y-49998609D01*
X140042198Y-49840907D01*
X140136409Y-49660549D01*
X140192386Y-49464918D01*
X140203000Y-49345537D01*
X140202999Y-47324464D01*
X140192386Y-47205082D01*
X140136409Y-47009451D01*
X140100017Y-46939782D01*
X140072701Y-46846549D01*
X140083143Y-46749957D01*
X140129754Y-46664713D01*
X140205438Y-46603795D01*
X140298674Y-46576478D01*
X140320723Y-46575500D01*
X141050500Y-46575500D01*
X141145788Y-46594454D01*
X141226570Y-46648430D01*
X141280546Y-46729212D01*
X141299500Y-46824500D01*
X141299500Y-57602137D01*
X141280546Y-57697425D01*
X141226570Y-57778207D01*
X141145788Y-57832183D01*
X141050500Y-57851137D01*
X140955212Y-57832183D01*
X140874430Y-57778207D01*
X140865126Y-57767909D01*
X140861113Y-57763896D01*
X140861109Y-57763891D01*
X140703407Y-57635302D01*
X140703402Y-57635299D01*
X140523053Y-57541093D01*
X140523052Y-57541092D01*
X140523049Y-57541091D01*
X140327418Y-57485114D01*
X140208037Y-57474500D01*
X140208035Y-57474500D01*
X138291968Y-57474500D01*
X138291956Y-57474501D01*
X138172585Y-57485113D01*
X137976954Y-57541090D01*
X137976946Y-57541093D01*
X137796596Y-57635299D01*
X137786053Y-57642249D01*
X137784372Y-57639698D01*
X137718061Y-57674858D01*
X137621343Y-57684058D01*
X137551290Y-57666386D01*
X137322212Y-57571500D01*
X137322211Y-57571499D01*
X137322207Y-57571498D01*
X137081565Y-57507018D01*
X137081558Y-57507017D01*
X136834565Y-57474500D01*
X136585435Y-57474500D01*
X136338441Y-57507017D01*
X136338439Y-57507017D01*
X136338435Y-57507018D01*
X136211266Y-57541093D01*
X136097796Y-57571497D01*
X136097793Y-57571498D01*
X135867634Y-57666832D01*
X135867630Y-57666834D01*
X135651877Y-57791398D01*
X135651872Y-57791401D01*
X135454230Y-57943056D01*
X135454220Y-57943065D01*
X135278065Y-58119220D01*
X135278056Y-58119230D01*
X135126401Y-58316872D01*
X135126399Y-58316876D01*
X135061279Y-58429667D01*
X134997220Y-58502711D01*
X134910084Y-58545682D01*
X134813137Y-58552036D01*
X134721138Y-58520806D01*
X134648094Y-58456747D01*
X134623200Y-58413618D01*
X134621891Y-58414265D01*
X134618281Y-58406945D01*
X134500278Y-58202559D01*
X134500272Y-58202549D01*
X134442252Y-58126936D01*
X134356592Y-58015301D01*
X134189699Y-57848408D01*
X134002450Y-57704727D01*
X134002440Y-57704721D01*
X133798054Y-57586718D01*
X133798043Y-57586713D01*
X133677222Y-57536667D01*
X133579993Y-57496394D01*
X133352014Y-57435307D01*
X133352007Y-57435306D01*
X133118011Y-57404500D01*
X132881989Y-57404500D01*
X132647992Y-57435306D01*
X132647990Y-57435306D01*
X132647986Y-57435307D01*
X132501713Y-57474501D01*
X132420010Y-57496393D01*
X132420007Y-57496394D01*
X132201956Y-57586713D01*
X132201945Y-57586718D01*
X131997559Y-57704721D01*
X131997549Y-57704727D01*
X131810301Y-57848408D01*
X131810297Y-57848411D01*
X131676070Y-57982639D01*
X131595288Y-58036615D01*
X131500000Y-58055569D01*
X131404712Y-58036615D01*
X131323930Y-57982639D01*
X131189702Y-57848411D01*
X131189699Y-57848408D01*
X131002450Y-57704727D01*
X131002440Y-57704721D01*
X130798054Y-57586718D01*
X130798043Y-57586713D01*
X130677222Y-57536667D01*
X130579993Y-57496394D01*
X130352014Y-57435307D01*
X130352007Y-57435306D01*
X130118011Y-57404500D01*
X129881989Y-57404500D01*
X129647992Y-57435306D01*
X129647990Y-57435306D01*
X129647986Y-57435307D01*
X129501713Y-57474501D01*
X129420010Y-57496393D01*
X129420007Y-57496394D01*
X129201956Y-57586713D01*
X129201945Y-57586718D01*
X128997559Y-57704721D01*
X128997549Y-57704727D01*
X128810301Y-57848408D01*
X128810297Y-57848411D01*
X128643411Y-58015297D01*
X128643408Y-58015301D01*
X128499727Y-58202549D01*
X128499721Y-58202559D01*
X128381718Y-58406945D01*
X128381713Y-58406956D01*
X128305092Y-58591937D01*
X128291394Y-58625007D01*
X128230307Y-58852986D01*
X128199500Y-59086989D01*
X128199500Y-59323011D01*
X128230307Y-59557014D01*
X128274269Y-59721082D01*
X128291393Y-59784989D01*
X128291394Y-59784992D01*
X128381713Y-60003043D01*
X128381718Y-60003054D01*
X128479405Y-60172252D01*
X128499727Y-60207450D01*
X128643408Y-60394699D01*
X128810301Y-60561592D01*
X128997550Y-60705273D01*
X128997559Y-60705278D01*
X129201945Y-60823281D01*
X129201948Y-60823282D01*
X129201951Y-60823284D01*
X129420007Y-60913606D01*
X129647986Y-60974693D01*
X129881989Y-61005500D01*
X130118011Y-61005500D01*
X130352014Y-60974693D01*
X130579993Y-60913606D01*
X130798049Y-60823284D01*
X131002450Y-60705273D01*
X131189699Y-60561592D01*
X131323930Y-60427361D01*
X131404712Y-60373385D01*
X131500000Y-60354431D01*
X131595288Y-60373385D01*
X131676070Y-60427361D01*
X131810301Y-60561592D01*
X131997550Y-60705273D01*
X131997559Y-60705278D01*
X132201945Y-60823281D01*
X132201948Y-60823282D01*
X132201951Y-60823284D01*
X132420007Y-60913606D01*
X132647986Y-60974693D01*
X132881989Y-61005500D01*
X133118011Y-61005500D01*
X133352014Y-60974693D01*
X133579993Y-60913606D01*
X133798049Y-60823284D01*
X134002450Y-60705273D01*
X134189699Y-60561592D01*
X134356592Y-60394699D01*
X134500273Y-60207450D01*
X134537460Y-60143039D01*
X134601517Y-60069996D01*
X134688652Y-60027025D01*
X134785599Y-60020670D01*
X134877599Y-60051899D01*
X134950644Y-60115957D01*
X134983146Y-60172252D01*
X135001832Y-60217365D01*
X135001834Y-60217369D01*
X135126398Y-60433122D01*
X135126401Y-60433127D01*
X135278056Y-60630769D01*
X135278065Y-60630779D01*
X135454220Y-60806934D01*
X135454230Y-60806943D01*
X135475529Y-60823286D01*
X135651873Y-60958599D01*
X135867627Y-61083164D01*
X136097793Y-61178502D01*
X136338435Y-61242982D01*
X136585435Y-61275500D01*
X136834565Y-61275500D01*
X137081565Y-61242982D01*
X137322207Y-61178502D01*
X137551289Y-61083612D01*
X137646576Y-61064659D01*
X137741864Y-61083613D01*
X137784981Y-61109365D01*
X137786048Y-61107748D01*
X137796588Y-61114694D01*
X137796593Y-61114698D01*
X137976951Y-61208909D01*
X138172582Y-61264886D01*
X138291963Y-61275500D01*
X140208036Y-61275499D01*
X140327418Y-61264886D01*
X140523049Y-61208909D01*
X140703407Y-61114698D01*
X140861109Y-60986109D01*
X140861117Y-60986098D01*
X140870038Y-60977179D01*
X140871677Y-60978818D01*
X140932415Y-60928643D01*
X141025295Y-60900141D01*
X141122012Y-60909352D01*
X141207842Y-60954874D01*
X141269719Y-61029777D01*
X141298221Y-61122657D01*
X141299500Y-61147862D01*
X141299500Y-63818760D01*
X141280546Y-63914048D01*
X141226570Y-63994830D01*
X141145788Y-64048806D01*
X141050500Y-64067760D01*
X140955212Y-64048806D01*
X140926000Y-64034400D01*
X140878054Y-64006718D01*
X140878043Y-64006713D01*
X140757222Y-63956667D01*
X140659993Y-63916394D01*
X140432014Y-63855307D01*
X140432007Y-63855306D01*
X140198011Y-63824500D01*
X139961989Y-63824500D01*
X139727992Y-63855306D01*
X139727990Y-63855306D01*
X139727986Y-63855307D01*
X139555640Y-63901487D01*
X139500010Y-63916393D01*
X139500007Y-63916394D01*
X139281956Y-64006713D01*
X139281945Y-64006718D01*
X139077559Y-64124721D01*
X139077549Y-64124727D01*
X138890301Y-64268408D01*
X138890297Y-64268411D01*
X138723411Y-64435297D01*
X138723408Y-64435301D01*
X138579727Y-64622549D01*
X138579721Y-64622559D01*
X138461718Y-64826945D01*
X138461713Y-64826956D01*
X138411994Y-64946989D01*
X138371394Y-65045007D01*
X138310307Y-65272986D01*
X138279500Y-65506989D01*
X138279500Y-65743011D01*
X138310307Y-65977014D01*
X138371394Y-66204993D01*
X138391983Y-66254699D01*
X138461713Y-66423043D01*
X138461718Y-66423054D01*
X138565356Y-66602559D01*
X138579727Y-66627450D01*
X138723408Y-66814699D01*
X138723411Y-66814702D01*
X138857639Y-66948930D01*
X138911615Y-67029712D01*
X138930569Y-67125000D01*
X138911615Y-67220288D01*
X138857639Y-67301070D01*
X138723411Y-67435297D01*
X138723408Y-67435301D01*
X138579727Y-67622549D01*
X138579721Y-67622559D01*
X138461718Y-67826945D01*
X138461713Y-67826956D01*
X138407845Y-67957007D01*
X138371394Y-68045007D01*
X138310307Y-68272986D01*
X138279500Y-68506989D01*
X138279500Y-68743011D01*
X138310307Y-68977014D01*
X138354663Y-69142551D01*
X138371393Y-69204989D01*
X138371394Y-69204992D01*
X138461713Y-69423043D01*
X138461718Y-69423054D01*
X138543677Y-69565010D01*
X138579727Y-69627450D01*
X138723408Y-69814699D01*
X138723411Y-69814702D01*
X138857639Y-69948930D01*
X138911615Y-70029712D01*
X138930569Y-70125000D01*
X138911615Y-70220288D01*
X138857639Y-70301070D01*
X138723411Y-70435297D01*
X138723408Y-70435301D01*
X138579727Y-70622549D01*
X138579721Y-70622559D01*
X138461718Y-70826945D01*
X138461713Y-70826956D01*
X138413624Y-70943054D01*
X138371394Y-71045007D01*
X138310307Y-71272986D01*
X138310306Y-71272990D01*
X138310306Y-71272992D01*
X138287332Y-71447502D01*
X138279500Y-71506989D01*
X138279500Y-71743011D01*
X138310307Y-71977014D01*
X138344603Y-72105007D01*
X138371393Y-72204989D01*
X138371394Y-72204992D01*
X138461713Y-72423043D01*
X138461718Y-72423054D01*
X138579721Y-72627440D01*
X138579727Y-72627450D01*
X138723408Y-72814699D01*
X138890301Y-72981592D01*
X139077550Y-73125273D01*
X139077559Y-73125278D01*
X139281945Y-73243281D01*
X139281948Y-73243282D01*
X139281951Y-73243284D01*
X139500007Y-73333606D01*
X139727986Y-73394693D01*
X139961989Y-73425500D01*
X140198011Y-73425500D01*
X140432014Y-73394693D01*
X140659993Y-73333606D01*
X140878049Y-73243284D01*
X140926002Y-73215598D01*
X141017996Y-73184370D01*
X141114943Y-73190723D01*
X141202079Y-73233692D01*
X141266139Y-73306736D01*
X141297369Y-73398735D01*
X141299500Y-73431239D01*
X141299500Y-91876000D01*
X141280546Y-91971288D01*
X141226570Y-92052070D01*
X141145788Y-92106046D01*
X141050500Y-92125000D01*
X116449500Y-92125000D01*
X116354212Y-92106046D01*
X116273430Y-92052070D01*
X116219454Y-91971288D01*
X116200500Y-91876000D01*
X116200500Y-87938301D01*
X116219454Y-87843013D01*
X116273430Y-87762231D01*
X116354212Y-87708255D01*
X116449500Y-87689301D01*
X116544788Y-87708255D01*
X116625570Y-87762231D01*
X116654178Y-87796499D01*
X116781065Y-87979649D01*
X116781066Y-87979650D01*
X116781069Y-87979654D01*
X116940234Y-88138819D01*
X117125262Y-88267007D01*
X117330205Y-88360096D01*
X117548476Y-88415096D01*
X117548479Y-88415096D01*
X117548482Y-88415097D01*
X117614573Y-88420298D01*
X117680671Y-88425500D01*
X118909104Y-88425499D01*
X119041300Y-88415096D01*
X119259571Y-88360096D01*
X119464514Y-88267007D01*
X119649542Y-88138819D01*
X119808707Y-87979654D01*
X119936895Y-87794626D01*
X120029984Y-87589683D01*
X120084984Y-87371412D01*
X120095388Y-87239217D01*
X120095387Y-86010784D01*
X120084984Y-85878588D01*
X120029984Y-85660317D01*
X119936895Y-85455374D01*
X119936891Y-85455368D01*
X119808710Y-85270350D01*
X119808709Y-85270349D01*
X119808707Y-85270346D01*
X119649542Y-85111181D01*
X119649538Y-85111178D01*
X119649537Y-85111177D01*
X119464519Y-84982996D01*
X119464517Y-84982995D01*
X119464514Y-84982993D01*
X119327664Y-84920833D01*
X119259574Y-84889905D01*
X119259572Y-84889904D01*
X119259571Y-84889904D01*
X119041300Y-84834904D01*
X119041299Y-84834903D01*
X119041296Y-84834903D01*
X119041293Y-84834902D01*
X118909110Y-84824500D01*
X117680679Y-84824500D01*
X117548475Y-84834904D01*
X117330201Y-84889905D01*
X117176829Y-84959570D01*
X117125262Y-84982993D01*
X117125260Y-84982993D01*
X117125256Y-84982996D01*
X116940238Y-85111177D01*
X116781068Y-85270347D01*
X116654178Y-85453501D01*
X116584332Y-85521033D01*
X116493960Y-85556697D01*
X116396818Y-85555061D01*
X116307697Y-85516376D01*
X116240165Y-85446530D01*
X116204501Y-85356158D01*
X116200500Y-85311698D01*
X116200500Y-83494005D01*
X116219454Y-83398717D01*
X116273430Y-83317935D01*
X116354212Y-83263959D01*
X116449500Y-83245005D01*
X116544788Y-83263959D01*
X116625570Y-83317935D01*
X116665141Y-83369507D01*
X116669727Y-83377450D01*
X116813408Y-83564699D01*
X116980301Y-83731592D01*
X117167550Y-83875273D01*
X117167559Y-83875278D01*
X117371945Y-83993281D01*
X117371948Y-83993282D01*
X117371951Y-83993284D01*
X117590007Y-84083606D01*
X117817986Y-84144693D01*
X118051989Y-84175500D01*
X118288011Y-84175500D01*
X118522014Y-84144693D01*
X118749993Y-84083606D01*
X118968049Y-83993284D01*
X119172450Y-83875273D01*
X119359699Y-83731592D01*
X119526592Y-83564699D01*
X119670273Y-83377450D01*
X119788284Y-83173049D01*
X119878606Y-82954993D01*
X119939693Y-82727014D01*
X119970500Y-82493011D01*
X119970500Y-82256989D01*
X119939693Y-82022986D01*
X119878606Y-81795007D01*
X119788284Y-81576951D01*
X119670273Y-81372550D01*
X119526592Y-81185301D01*
X119513869Y-81172578D01*
X119459893Y-81091796D01*
X119440939Y-80996508D01*
X119459893Y-80901220D01*
X119513869Y-80820438D01*
X119548134Y-80791832D01*
X119624654Y-80738819D01*
X119783819Y-80579654D01*
X119912007Y-80394626D01*
X120005096Y-80189683D01*
X120060096Y-79971412D01*
X120060415Y-79967369D01*
X120070499Y-79839228D01*
X120070500Y-79839217D01*
X120070499Y-78410784D01*
X120060096Y-78278588D01*
X120005096Y-78060317D01*
X119912007Y-77855374D01*
X119783819Y-77670346D01*
X119624654Y-77511181D01*
X119548136Y-77458169D01*
X119480604Y-77388323D01*
X119444940Y-77297950D01*
X119446576Y-77200809D01*
X119485261Y-77111688D01*
X119513874Y-77077417D01*
X119526583Y-77064708D01*
X119526592Y-77064699D01*
X119670273Y-76877450D01*
X119788284Y-76673049D01*
X119878606Y-76454993D01*
X119939693Y-76227014D01*
X119970500Y-75993011D01*
X119970500Y-75756989D01*
X119939693Y-75522986D01*
X119878606Y-75295007D01*
X119788284Y-75076951D01*
X119741841Y-74996510D01*
X119670278Y-74872559D01*
X119670272Y-74872549D01*
X119526592Y-74685301D01*
X119359699Y-74518408D01*
X119318943Y-74487134D01*
X119254886Y-74414091D01*
X119223656Y-74322092D01*
X119230011Y-74225145D01*
X119272981Y-74138009D01*
X119318941Y-74092049D01*
X119384699Y-74041592D01*
X119551592Y-73874699D01*
X119695273Y-73687450D01*
X119813284Y-73483049D01*
X119903606Y-73264993D01*
X119964693Y-73037014D01*
X119995500Y-72803011D01*
X119995500Y-72566989D01*
X119964693Y-72332986D01*
X119903606Y-72105007D01*
X119813284Y-71886951D01*
X119695273Y-71682550D01*
X119606285Y-71566579D01*
X119563317Y-71479446D01*
X119556962Y-71382499D01*
X119588191Y-71290500D01*
X119606281Y-71263425D01*
X119695273Y-71147450D01*
X119813284Y-70943049D01*
X119903606Y-70724993D01*
X119964693Y-70497014D01*
X119995500Y-70263011D01*
X119995500Y-70026989D01*
X119964693Y-69792986D01*
X119903606Y-69565007D01*
X119813284Y-69346951D01*
X119695273Y-69142550D01*
X119606285Y-69026579D01*
X119563317Y-68939446D01*
X119556962Y-68842499D01*
X119588191Y-68750500D01*
X119606281Y-68723425D01*
X119695273Y-68607450D01*
X119813284Y-68403049D01*
X119903606Y-68184993D01*
X119964693Y-67957014D01*
X119995500Y-67723011D01*
X119995500Y-67486989D01*
X119964693Y-67252986D01*
X119903606Y-67025007D01*
X119813284Y-66806951D01*
X119791841Y-66769811D01*
X119695278Y-66602559D01*
X119695273Y-66602550D01*
X119551592Y-66415301D01*
X119384699Y-66248408D01*
X119197450Y-66104727D01*
X119197440Y-66104721D01*
X118993054Y-65986718D01*
X118993043Y-65986713D01*
X118872222Y-65936667D01*
X118774993Y-65896394D01*
X118547014Y-65835307D01*
X118547007Y-65835306D01*
X118313011Y-65804500D01*
X118076989Y-65804500D01*
X117842992Y-65835306D01*
X117842990Y-65835306D01*
X117842986Y-65835307D01*
X117670640Y-65881487D01*
X117615010Y-65896393D01*
X117615007Y-65896394D01*
X117396956Y-65986713D01*
X117396945Y-65986718D01*
X117192559Y-66104721D01*
X117192549Y-66104727D01*
X117005301Y-66248408D01*
X117005297Y-66248411D01*
X116838411Y-66415297D01*
X116838408Y-66415301D01*
X116694727Y-66602549D01*
X116694720Y-66602559D01*
X116665140Y-66653795D01*
X116601081Y-66726840D01*
X116513945Y-66769811D01*
X116416998Y-66776165D01*
X116325000Y-66744935D01*
X116251955Y-66680876D01*
X116208984Y-66593740D01*
X116200500Y-66529295D01*
X116200500Y-64946989D01*
X124014500Y-64946989D01*
X124014500Y-65183011D01*
X124045307Y-65417014D01*
X124069416Y-65506989D01*
X124106393Y-65644989D01*
X124106394Y-65644992D01*
X124196713Y-65863043D01*
X124196718Y-65863054D01*
X124268113Y-65986713D01*
X124314727Y-66067450D01*
X124343326Y-66104721D01*
X124403713Y-66183419D01*
X124446683Y-66270555D01*
X124453037Y-66367502D01*
X124421807Y-66459501D01*
X124403713Y-66486581D01*
X124314726Y-66602551D01*
X124314721Y-66602559D01*
X124196718Y-66806945D01*
X124196713Y-66806956D01*
X124106394Y-67025007D01*
X124045307Y-67252986D01*
X124045306Y-67252990D01*
X124045306Y-67252992D01*
X124021305Y-67435297D01*
X124014500Y-67486989D01*
X124014500Y-67723011D01*
X124045307Y-67957014D01*
X124106394Y-68184993D01*
X124146667Y-68282222D01*
X124196713Y-68403043D01*
X124196718Y-68403054D01*
X124314721Y-68607440D01*
X124314727Y-68607450D01*
X124401650Y-68720731D01*
X124403713Y-68723419D01*
X124446683Y-68810555D01*
X124453037Y-68907502D01*
X124421807Y-68999501D01*
X124403713Y-69026581D01*
X124314726Y-69142551D01*
X124314721Y-69142559D01*
X124196718Y-69346945D01*
X124196713Y-69346956D01*
X124106394Y-69565007D01*
X124045307Y-69792986D01*
X124045306Y-69792990D01*
X124045306Y-69792992D01*
X124042448Y-69814699D01*
X124014500Y-70026989D01*
X124014500Y-70263011D01*
X124045307Y-70497014D01*
X124078947Y-70622559D01*
X124106393Y-70724989D01*
X124106394Y-70724992D01*
X124196713Y-70943043D01*
X124196718Y-70943054D01*
X124255581Y-71045007D01*
X124314727Y-71147450D01*
X124401650Y-71260731D01*
X124403713Y-71263419D01*
X124446683Y-71350555D01*
X124453037Y-71447502D01*
X124421807Y-71539501D01*
X124403713Y-71566581D01*
X124314726Y-71682551D01*
X124314721Y-71682559D01*
X124196718Y-71886945D01*
X124196713Y-71886956D01*
X124106394Y-72105007D01*
X124045307Y-72332986D01*
X124014500Y-72566989D01*
X124014500Y-72803011D01*
X124045307Y-73037014D01*
X124093159Y-73215600D01*
X124106393Y-73264989D01*
X124106394Y-73264992D01*
X124196713Y-73483043D01*
X124196718Y-73483054D01*
X124314721Y-73687440D01*
X124314727Y-73687450D01*
X124458408Y-73874699D01*
X124625301Y-74041592D01*
X124812550Y-74185273D01*
X124855337Y-74209976D01*
X125016945Y-74303281D01*
X125016948Y-74303282D01*
X125016951Y-74303284D01*
X125235007Y-74393606D01*
X125462986Y-74454693D01*
X125696989Y-74485500D01*
X125933011Y-74485500D01*
X126167014Y-74454693D01*
X126394993Y-74393606D01*
X126613049Y-74303284D01*
X126731579Y-74234850D01*
X126823574Y-74203622D01*
X126920521Y-74209976D01*
X127007657Y-74252946D01*
X127071716Y-74325991D01*
X127102946Y-74417990D01*
X127096592Y-74514937D01*
X127053622Y-74602073D01*
X127032147Y-74626560D01*
X126973419Y-74685288D01*
X126973408Y-74685301D01*
X126829727Y-74872549D01*
X126829721Y-74872559D01*
X126711718Y-75076945D01*
X126711713Y-75076956D01*
X126630515Y-75272986D01*
X126621394Y-75295007D01*
X126560307Y-75522986D01*
X126529500Y-75756989D01*
X126529500Y-75993011D01*
X126560307Y-76227014D01*
X126612833Y-76423043D01*
X126621393Y-76454989D01*
X126621394Y-76454992D01*
X126711713Y-76673043D01*
X126711718Y-76673054D01*
X126793499Y-76814702D01*
X126829727Y-76877450D01*
X126973408Y-77064699D01*
X127140301Y-77231592D01*
X127150515Y-77239429D01*
X127214573Y-77312471D01*
X127245804Y-77404469D01*
X127239452Y-77501416D01*
X127196483Y-77588553D01*
X127150518Y-77634519D01*
X127074226Y-77693059D01*
X126898065Y-77869220D01*
X126898056Y-77869230D01*
X126746401Y-78066872D01*
X126746398Y-78066877D01*
X126621834Y-78282630D01*
X126621832Y-78282634D01*
X126526498Y-78512793D01*
X126462018Y-78753435D01*
X126429500Y-79000435D01*
X126429500Y-79249565D01*
X126462018Y-79496565D01*
X126526497Y-79737203D01*
X126526498Y-79737206D01*
X126621832Y-79967365D01*
X126621834Y-79967369D01*
X126746398Y-80183122D01*
X126746401Y-80183127D01*
X126898056Y-80380769D01*
X126898065Y-80380779D01*
X127074220Y-80556934D01*
X127074230Y-80556943D01*
X127103828Y-80579654D01*
X127271873Y-80708599D01*
X127487627Y-80833164D01*
X127717793Y-80928502D01*
X127958435Y-80992982D01*
X128205435Y-81025500D01*
X128454565Y-81025500D01*
X128701565Y-80992982D01*
X128942207Y-80928502D01*
X129172373Y-80833164D01*
X129388127Y-80708599D01*
X129585776Y-80556938D01*
X129761938Y-80380776D01*
X129913599Y-80183127D01*
X130038164Y-79967373D01*
X130133502Y-79737207D01*
X130197982Y-79496565D01*
X130230500Y-79249565D01*
X130230500Y-79000435D01*
X130197982Y-78753435D01*
X130133502Y-78512793D01*
X130038164Y-78282627D01*
X129913599Y-78066873D01*
X129761938Y-77869224D01*
X129585776Y-77693062D01*
X129509481Y-77634519D01*
X129445424Y-77561475D01*
X129414194Y-77469476D01*
X129420548Y-77372529D01*
X129463519Y-77285393D01*
X129509482Y-77239431D01*
X129519699Y-77231592D01*
X129686592Y-77064699D01*
X129830273Y-76877450D01*
X129948284Y-76673049D01*
X130038606Y-76454993D01*
X130099693Y-76227014D01*
X130130500Y-75993011D01*
X130130500Y-75756989D01*
X130100793Y-75531339D01*
X130100793Y-75531336D01*
X130099695Y-75522998D01*
X130099694Y-75522995D01*
X130099693Y-75522986D01*
X130095407Y-75506989D01*
X133199500Y-75506989D01*
X133199500Y-75743011D01*
X133230307Y-75977014D01*
X133291394Y-76204993D01*
X133331667Y-76302222D01*
X133381713Y-76423043D01*
X133381718Y-76423054D01*
X133499721Y-76627440D01*
X133499727Y-76627450D01*
X133643408Y-76814699D01*
X133810301Y-76981592D01*
X133997550Y-77125273D01*
X133997559Y-77125278D01*
X134201945Y-77243281D01*
X134201948Y-77243282D01*
X134201951Y-77243284D01*
X134420007Y-77333606D01*
X134647986Y-77394693D01*
X134881989Y-77425500D01*
X135118011Y-77425500D01*
X135352014Y-77394693D01*
X135579993Y-77333606D01*
X135798049Y-77243284D01*
X136002450Y-77125273D01*
X136189699Y-76981592D01*
X136356592Y-76814699D01*
X136500273Y-76627450D01*
X136618284Y-76423049D01*
X136708606Y-76204993D01*
X136769693Y-75977014D01*
X136800500Y-75743011D01*
X136800500Y-75506989D01*
X136769693Y-75272986D01*
X136708606Y-75045007D01*
X136618284Y-74826951D01*
X136500273Y-74622550D01*
X136356592Y-74435301D01*
X136189699Y-74268408D01*
X136002450Y-74124727D01*
X135968812Y-74105306D01*
X135798054Y-74006718D01*
X135798043Y-74006713D01*
X135677222Y-73956667D01*
X135579993Y-73916394D01*
X135352014Y-73855307D01*
X135352007Y-73855306D01*
X135118011Y-73824500D01*
X134881989Y-73824500D01*
X134647992Y-73855306D01*
X134647990Y-73855306D01*
X134647986Y-73855307D01*
X134475640Y-73901487D01*
X134420010Y-73916393D01*
X134420007Y-73916394D01*
X134201956Y-74006713D01*
X134201945Y-74006718D01*
X133997559Y-74124721D01*
X133997549Y-74124727D01*
X133810301Y-74268408D01*
X133810297Y-74268411D01*
X133643411Y-74435297D01*
X133643408Y-74435301D01*
X133499727Y-74622549D01*
X133499721Y-74622559D01*
X133381718Y-74826945D01*
X133381713Y-74826956D01*
X133348320Y-74907575D01*
X133291394Y-75045007D01*
X133230307Y-75272986D01*
X133199500Y-75506989D01*
X130095407Y-75506989D01*
X130038606Y-75295007D01*
X129948284Y-75076951D01*
X129901841Y-74996510D01*
X129830278Y-74872559D01*
X129830272Y-74872549D01*
X129686592Y-74685301D01*
X129519699Y-74518408D01*
X129332450Y-74374727D01*
X129289660Y-74350022D01*
X129128054Y-74256718D01*
X129128043Y-74256713D01*
X128999869Y-74203622D01*
X128909993Y-74166394D01*
X128682014Y-74105307D01*
X128682007Y-74105306D01*
X128448011Y-74074500D01*
X128211989Y-74074500D01*
X127977992Y-74105306D01*
X127977990Y-74105306D01*
X127977986Y-74105307D01*
X127805640Y-74151487D01*
X127750010Y-74166393D01*
X127750007Y-74166394D01*
X127531956Y-74256713D01*
X127531950Y-74256716D01*
X127413422Y-74325148D01*
X127321423Y-74356377D01*
X127224476Y-74350022D01*
X127137341Y-74307051D01*
X127073282Y-74234006D01*
X127042053Y-74142007D01*
X127048408Y-74045060D01*
X127091379Y-73957925D01*
X127112855Y-73933436D01*
X127171581Y-73874710D01*
X127171592Y-73874699D01*
X127315273Y-73687450D01*
X127433284Y-73483049D01*
X127523606Y-73264993D01*
X127584693Y-73037014D01*
X127615500Y-72803011D01*
X127615500Y-72566989D01*
X127584693Y-72332986D01*
X127523606Y-72105007D01*
X127433284Y-71886951D01*
X127315273Y-71682550D01*
X127226285Y-71566579D01*
X127183317Y-71479446D01*
X127176962Y-71382499D01*
X127208191Y-71290500D01*
X127226281Y-71263425D01*
X127315273Y-71147450D01*
X127433284Y-70943049D01*
X127523606Y-70724993D01*
X127584693Y-70497014D01*
X127615500Y-70263011D01*
X127615500Y-70026989D01*
X127584693Y-69792986D01*
X127523606Y-69565007D01*
X127433284Y-69346951D01*
X127315273Y-69142550D01*
X127226285Y-69026579D01*
X127223884Y-69021709D01*
X127219958Y-69017956D01*
X127202478Y-68978301D01*
X127183317Y-68939446D01*
X127182961Y-68934027D01*
X127180770Y-68929055D01*
X127179795Y-68885729D01*
X127176962Y-68842499D01*
X127178708Y-68837355D01*
X127178586Y-68831924D01*
X127187213Y-68812299D01*
X127208191Y-68750500D01*
X127213739Y-68741352D01*
X127219618Y-68732109D01*
X127315273Y-68607450D01*
X127373274Y-68506989D01*
X128119500Y-68506989D01*
X128119500Y-68743011D01*
X128150307Y-68977014D01*
X128194663Y-69142551D01*
X128211393Y-69204989D01*
X128211394Y-69204992D01*
X128301713Y-69423043D01*
X128301718Y-69423054D01*
X128383677Y-69565010D01*
X128419727Y-69627450D01*
X128563408Y-69814699D01*
X128563411Y-69814702D01*
X128697639Y-69948930D01*
X128751615Y-70029712D01*
X128770569Y-70125000D01*
X128751615Y-70220288D01*
X128697639Y-70301070D01*
X128563411Y-70435297D01*
X128563408Y-70435301D01*
X128419727Y-70622549D01*
X128419721Y-70622559D01*
X128301718Y-70826945D01*
X128301713Y-70826956D01*
X128253624Y-70943054D01*
X128211394Y-71045007D01*
X128150307Y-71272986D01*
X128150306Y-71272990D01*
X128150306Y-71272992D01*
X128127332Y-71447502D01*
X128119500Y-71506989D01*
X128119500Y-71743011D01*
X128150307Y-71977014D01*
X128184603Y-72105007D01*
X128211393Y-72204989D01*
X128211394Y-72204992D01*
X128301713Y-72423043D01*
X128301718Y-72423054D01*
X128419721Y-72627440D01*
X128419727Y-72627450D01*
X128563408Y-72814699D01*
X128730301Y-72981592D01*
X128917550Y-73125273D01*
X128917559Y-73125278D01*
X129121945Y-73243281D01*
X129121948Y-73243282D01*
X129121951Y-73243284D01*
X129340007Y-73333606D01*
X129567986Y-73394693D01*
X129801989Y-73425500D01*
X130038011Y-73425500D01*
X130272014Y-73394693D01*
X130499993Y-73333606D01*
X130718049Y-73243284D01*
X130922450Y-73125273D01*
X131109699Y-72981592D01*
X131276592Y-72814699D01*
X131420273Y-72627450D01*
X131538284Y-72423049D01*
X131628606Y-72204993D01*
X131689693Y-71977014D01*
X131720500Y-71743011D01*
X131720500Y-71506989D01*
X131689693Y-71272986D01*
X131628606Y-71045007D01*
X131538284Y-70826951D01*
X131420273Y-70622550D01*
X131276592Y-70435301D01*
X131142361Y-70301070D01*
X131088385Y-70220288D01*
X131069431Y-70125000D01*
X131088385Y-70029712D01*
X131142361Y-69948930D01*
X131276592Y-69814699D01*
X131420273Y-69627450D01*
X131538284Y-69423049D01*
X131628606Y-69204993D01*
X131689693Y-68977014D01*
X131720500Y-68743011D01*
X131720500Y-68506989D01*
X131689693Y-68272986D01*
X131628606Y-68045007D01*
X131538284Y-67826951D01*
X131420273Y-67622550D01*
X131276592Y-67435301D01*
X131109699Y-67268408D01*
X130922450Y-67124727D01*
X130922440Y-67124721D01*
X130718054Y-67006718D01*
X130718043Y-67006713D01*
X130585449Y-66951791D01*
X130499993Y-66916394D01*
X130272014Y-66855307D01*
X130272007Y-66855306D01*
X130038011Y-66824500D01*
X129801989Y-66824500D01*
X129567992Y-66855306D01*
X129567990Y-66855306D01*
X129567986Y-66855307D01*
X129395640Y-66901487D01*
X129340010Y-66916393D01*
X129340007Y-66916394D01*
X129121956Y-67006713D01*
X129121945Y-67006718D01*
X128917559Y-67124721D01*
X128917549Y-67124727D01*
X128730301Y-67268408D01*
X128730297Y-67268411D01*
X128563411Y-67435297D01*
X128563408Y-67435301D01*
X128419727Y-67622549D01*
X128419721Y-67622559D01*
X128301718Y-67826945D01*
X128301713Y-67826956D01*
X128247845Y-67957007D01*
X128211394Y-68045007D01*
X128150307Y-68272986D01*
X128119500Y-68506989D01*
X127373274Y-68506989D01*
X127433284Y-68403049D01*
X127523606Y-68184993D01*
X127584693Y-67957014D01*
X127615500Y-67723011D01*
X127615500Y-67486989D01*
X127584693Y-67252986D01*
X127523606Y-67025007D01*
X127433284Y-66806951D01*
X127411841Y-66769811D01*
X127315278Y-66602559D01*
X127315273Y-66602550D01*
X127226285Y-66486579D01*
X127183317Y-66399446D01*
X127176962Y-66302499D01*
X127208191Y-66210500D01*
X127226281Y-66183425D01*
X127315273Y-66067450D01*
X127433284Y-65863049D01*
X127523606Y-65644993D01*
X127584693Y-65417014D01*
X127615500Y-65183011D01*
X127615500Y-64946989D01*
X127584693Y-64712986D01*
X127523606Y-64485007D01*
X127433284Y-64266951D01*
X127315273Y-64062550D01*
X127171592Y-63875301D01*
X127004699Y-63708408D01*
X126817450Y-63564727D01*
X126817440Y-63564721D01*
X126613054Y-63446718D01*
X126613043Y-63446713D01*
X126492222Y-63396667D01*
X126394993Y-63356394D01*
X126167014Y-63295307D01*
X126167007Y-63295306D01*
X125933011Y-63264500D01*
X125696989Y-63264500D01*
X125462992Y-63295306D01*
X125462990Y-63295306D01*
X125462986Y-63295307D01*
X125290640Y-63341487D01*
X125235010Y-63356393D01*
X125235007Y-63356394D01*
X125016956Y-63446713D01*
X125016945Y-63446718D01*
X124812559Y-63564721D01*
X124812549Y-63564727D01*
X124625301Y-63708408D01*
X124625297Y-63708411D01*
X124458411Y-63875297D01*
X124458408Y-63875301D01*
X124314727Y-64062549D01*
X124314721Y-64062559D01*
X124196718Y-64266945D01*
X124196713Y-64266956D01*
X124126983Y-64435301D01*
X124106394Y-64485007D01*
X124045307Y-64712986D01*
X124045306Y-64712990D01*
X124045306Y-64712992D01*
X124029599Y-64832300D01*
X124014500Y-64946989D01*
X116200500Y-64946989D01*
X116200500Y-56463712D01*
X117109500Y-56463712D01*
X117109500Y-56706287D01*
X117141162Y-56946790D01*
X117141163Y-56946795D01*
X117203940Y-57181082D01*
X117203948Y-57181105D01*
X117296769Y-57405199D01*
X117296773Y-57405205D01*
X117296776Y-57405212D01*
X117306867Y-57422690D01*
X117338096Y-57514686D01*
X117331742Y-57611633D01*
X117288772Y-57698769D01*
X117284210Y-57704536D01*
X117270300Y-57721595D01*
X117270299Y-57721596D01*
X117176093Y-57901946D01*
X117176090Y-57901954D01*
X117120115Y-58097578D01*
X117120114Y-58097582D01*
X117109500Y-58216963D01*
X117109500Y-60033031D01*
X117109501Y-60033043D01*
X117120113Y-60152414D01*
X117120113Y-60152417D01*
X117120114Y-60152418D01*
X117120936Y-60155289D01*
X117176090Y-60348045D01*
X117176093Y-60348053D01*
X117265526Y-60519265D01*
X117270302Y-60528407D01*
X117398891Y-60686109D01*
X117556593Y-60814698D01*
X117736951Y-60908909D01*
X117932582Y-60964886D01*
X118051963Y-60975500D01*
X119868036Y-60975499D01*
X119987418Y-60964886D01*
X120183049Y-60908909D01*
X120363407Y-60814698D01*
X120380453Y-60800797D01*
X120466278Y-60755269D01*
X120562995Y-60746050D01*
X120655877Y-60774544D01*
X120662265Y-60778107D01*
X120679788Y-60788224D01*
X120679789Y-60788224D01*
X120679792Y-60788226D01*
X120679800Y-60788230D01*
X120829196Y-60850110D01*
X120903900Y-60881054D01*
X120903911Y-60881057D01*
X120903917Y-60881059D01*
X121081503Y-60928643D01*
X121138211Y-60943838D01*
X121378712Y-60975500D01*
X121621288Y-60975500D01*
X121861789Y-60943838D01*
X122024867Y-60900141D01*
X122096082Y-60881059D01*
X122096084Y-60881058D01*
X122096100Y-60881054D01*
X122256305Y-60814695D01*
X122320201Y-60788229D01*
X122320206Y-60788226D01*
X122320212Y-60788224D01*
X122530289Y-60666936D01*
X122722738Y-60519265D01*
X122894265Y-60347738D01*
X123041936Y-60155289D01*
X123163224Y-59945212D01*
X123256054Y-59721100D01*
X123318838Y-59486789D01*
X123350500Y-59246288D01*
X123350500Y-59003712D01*
X123318838Y-58763211D01*
X123298922Y-58688884D01*
X123292567Y-58591937D01*
X123323796Y-58499938D01*
X123387855Y-58426893D01*
X123474990Y-58383922D01*
X123571937Y-58377567D01*
X123603884Y-58383922D01*
X123678211Y-58403838D01*
X123918712Y-58435500D01*
X124161288Y-58435500D01*
X124401789Y-58403838D01*
X124563275Y-58360567D01*
X124636082Y-58341059D01*
X124636084Y-58341058D01*
X124636100Y-58341054D01*
X124787766Y-58278231D01*
X124860201Y-58248229D01*
X124860206Y-58248226D01*
X124860212Y-58248224D01*
X125070289Y-58126936D01*
X125262738Y-57979265D01*
X125434265Y-57807738D01*
X125581936Y-57615289D01*
X125703224Y-57405212D01*
X125703230Y-57405199D01*
X125733231Y-57332766D01*
X125796054Y-57181100D01*
X125858838Y-56946789D01*
X125890500Y-56706288D01*
X125890500Y-56463712D01*
X125858838Y-56223211D01*
X125796054Y-55988900D01*
X125761242Y-55904858D01*
X125703229Y-55764798D01*
X125703221Y-55764782D01*
X125581941Y-55554720D01*
X125581935Y-55554710D01*
X125434270Y-55362268D01*
X125434261Y-55362258D01*
X125262741Y-55190738D01*
X125262731Y-55190729D01*
X125070289Y-55043064D01*
X125070279Y-55043058D01*
X124860217Y-54921778D01*
X124860201Y-54921770D01*
X124636105Y-54828948D01*
X124636103Y-54828947D01*
X124636100Y-54828946D01*
X124636096Y-54828945D01*
X124636082Y-54828940D01*
X124401795Y-54766163D01*
X124401790Y-54766162D01*
X124161288Y-54734500D01*
X123918712Y-54734500D01*
X123678209Y-54766162D01*
X123678204Y-54766163D01*
X123443917Y-54828940D01*
X123443894Y-54828948D01*
X123219798Y-54921770D01*
X123219782Y-54921778D01*
X123009720Y-55043058D01*
X123009715Y-55043061D01*
X123009711Y-55043064D01*
X122921578Y-55110690D01*
X122834445Y-55153659D01*
X122737498Y-55160013D01*
X122645499Y-55128783D01*
X122618425Y-55110693D01*
X122530289Y-55043064D01*
X122530279Y-55043058D01*
X122320217Y-54921778D01*
X122320201Y-54921770D01*
X122096105Y-54828948D01*
X122096103Y-54828947D01*
X122096100Y-54828946D01*
X122096096Y-54828945D01*
X122096082Y-54828940D01*
X121861795Y-54766163D01*
X121861790Y-54766162D01*
X121621288Y-54734500D01*
X121378712Y-54734500D01*
X121138209Y-54766162D01*
X121138204Y-54766163D01*
X120903917Y-54828940D01*
X120903894Y-54828948D01*
X120679798Y-54921770D01*
X120679782Y-54921778D01*
X120469720Y-55043058D01*
X120469715Y-55043061D01*
X120469711Y-55043064D01*
X120381578Y-55110690D01*
X120294445Y-55153659D01*
X120197498Y-55160013D01*
X120105499Y-55128783D01*
X120078425Y-55110693D01*
X119990289Y-55043064D01*
X119990279Y-55043058D01*
X119780217Y-54921778D01*
X119780201Y-54921770D01*
X119556105Y-54828948D01*
X119556103Y-54828947D01*
X119556100Y-54828946D01*
X119556096Y-54828945D01*
X119556082Y-54828940D01*
X119321795Y-54766163D01*
X119321790Y-54766162D01*
X119081288Y-54734500D01*
X118838712Y-54734500D01*
X118598209Y-54766162D01*
X118598204Y-54766163D01*
X118363917Y-54828940D01*
X118363894Y-54828948D01*
X118139798Y-54921770D01*
X118139782Y-54921778D01*
X117929720Y-55043058D01*
X117929710Y-55043064D01*
X117737268Y-55190729D01*
X117737258Y-55190738D01*
X117565738Y-55362258D01*
X117565729Y-55362268D01*
X117418064Y-55554710D01*
X117418058Y-55554720D01*
X117296778Y-55764782D01*
X117296770Y-55764798D01*
X117203948Y-55988894D01*
X117203940Y-55988917D01*
X117141163Y-56223204D01*
X117141162Y-56223209D01*
X117109500Y-56463712D01*
X116200500Y-56463712D01*
X116200500Y-53286994D01*
X136297000Y-53286994D01*
X136297000Y-53543005D01*
X136330416Y-53796825D01*
X136396676Y-54044111D01*
X136396678Y-54044117D01*
X136494646Y-54280635D01*
X136494648Y-54280639D01*
X136622653Y-54502352D01*
X136622663Y-54502367D01*
X136778502Y-54705459D01*
X136778507Y-54705465D01*
X136959535Y-54886493D01*
X136959539Y-54886496D01*
X136959540Y-54886497D01*
X137162632Y-55042336D01*
X137162636Y-55042338D01*
X137162643Y-55042344D01*
X137384357Y-55170350D01*
X137620882Y-55268322D01*
X137868171Y-55334583D01*
X138121994Y-55368000D01*
X138378006Y-55368000D01*
X138631829Y-55334583D01*
X138879118Y-55268322D01*
X139115643Y-55170350D01*
X139337357Y-55042344D01*
X139540465Y-54886493D01*
X139721493Y-54705465D01*
X139877344Y-54502357D01*
X140005350Y-54280643D01*
X140103322Y-54044118D01*
X140169583Y-53796829D01*
X140203000Y-53543006D01*
X140203000Y-53286994D01*
X140169583Y-53033171D01*
X140103322Y-52785882D01*
X140005350Y-52549357D01*
X139877344Y-52327643D01*
X139721493Y-52124535D01*
X139540465Y-51943507D01*
X139540460Y-51943503D01*
X139540459Y-51943502D01*
X139337367Y-51787663D01*
X139337352Y-51787653D01*
X139277937Y-51753350D01*
X139115643Y-51659650D01*
X139115641Y-51659649D01*
X139115639Y-51659648D01*
X139115635Y-51659646D01*
X138968139Y-51598551D01*
X138879118Y-51561678D01*
X138631829Y-51495417D01*
X138631824Y-51495416D01*
X138631827Y-51495416D01*
X138378006Y-51462000D01*
X138121994Y-51462000D01*
X137868174Y-51495416D01*
X137620888Y-51561676D01*
X137620882Y-51561678D01*
X137384364Y-51659646D01*
X137384360Y-51659648D01*
X137162647Y-51787653D01*
X137162632Y-51787663D01*
X136959540Y-51943502D01*
X136778502Y-52124540D01*
X136622663Y-52327632D01*
X136622653Y-52327647D01*
X136494648Y-52549360D01*
X136494646Y-52549364D01*
X136396678Y-52785882D01*
X136396676Y-52785888D01*
X136330416Y-53033174D01*
X136297000Y-53286994D01*
X116200500Y-53286994D01*
X116200500Y-48926989D01*
X128199500Y-48926989D01*
X128199500Y-49163011D01*
X128230307Y-49397014D01*
X128291394Y-49624993D01*
X128331667Y-49722222D01*
X128381713Y-49843043D01*
X128381718Y-49843054D01*
X128471529Y-49998610D01*
X128499727Y-50047450D01*
X128643408Y-50234699D01*
X128810301Y-50401592D01*
X128997550Y-50545273D01*
X128997559Y-50545278D01*
X129201945Y-50663281D01*
X129201948Y-50663282D01*
X129201951Y-50663284D01*
X129420007Y-50753606D01*
X129647986Y-50814693D01*
X129881989Y-50845500D01*
X130118011Y-50845500D01*
X130352014Y-50814693D01*
X130579993Y-50753606D01*
X130798049Y-50663284D01*
X131002450Y-50545273D01*
X131189699Y-50401592D01*
X131323930Y-50267361D01*
X131404712Y-50213385D01*
X131500000Y-50194431D01*
X131595288Y-50213385D01*
X131676070Y-50267361D01*
X131810301Y-50401592D01*
X131997550Y-50545273D01*
X131997559Y-50545278D01*
X132201945Y-50663281D01*
X132201948Y-50663282D01*
X132201951Y-50663284D01*
X132420007Y-50753606D01*
X132647986Y-50814693D01*
X132881989Y-50845500D01*
X133118011Y-50845500D01*
X133352014Y-50814693D01*
X133579993Y-50753606D01*
X133798049Y-50663284D01*
X134002450Y-50545273D01*
X134189699Y-50401592D01*
X134356592Y-50234699D01*
X134500273Y-50047450D01*
X134618284Y-49843049D01*
X134708606Y-49624993D01*
X134769693Y-49397014D01*
X134800500Y-49163011D01*
X134800500Y-48926989D01*
X134769693Y-48692986D01*
X134708606Y-48465007D01*
X134618284Y-48246951D01*
X134500273Y-48042550D01*
X134356592Y-47855301D01*
X134189699Y-47688408D01*
X134002450Y-47544727D01*
X134002440Y-47544721D01*
X133798054Y-47426718D01*
X133798043Y-47426713D01*
X133677222Y-47376667D01*
X133579993Y-47336394D01*
X133352014Y-47275307D01*
X133352007Y-47275306D01*
X133118011Y-47244500D01*
X132881989Y-47244500D01*
X132647992Y-47275306D01*
X132647990Y-47275306D01*
X132647986Y-47275307D01*
X132475640Y-47321487D01*
X132420010Y-47336393D01*
X132420007Y-47336394D01*
X132201956Y-47426713D01*
X132201945Y-47426718D01*
X131997559Y-47544721D01*
X131997549Y-47544727D01*
X131810301Y-47688408D01*
X131810297Y-47688411D01*
X131676070Y-47822639D01*
X131595288Y-47876615D01*
X131500000Y-47895569D01*
X131404712Y-47876615D01*
X131323930Y-47822639D01*
X131189702Y-47688411D01*
X131189699Y-47688408D01*
X131002450Y-47544727D01*
X131002440Y-47544721D01*
X130798054Y-47426718D01*
X130798043Y-47426713D01*
X130677222Y-47376667D01*
X130579993Y-47336394D01*
X130352014Y-47275307D01*
X130352007Y-47275306D01*
X130118011Y-47244500D01*
X129881989Y-47244500D01*
X129647992Y-47275306D01*
X129647990Y-47275306D01*
X129647986Y-47275307D01*
X129475640Y-47321487D01*
X129420010Y-47336393D01*
X129420007Y-47336394D01*
X129201956Y-47426713D01*
X129201945Y-47426718D01*
X128997559Y-47544721D01*
X128997549Y-47544727D01*
X128810301Y-47688408D01*
X128810297Y-47688411D01*
X128643411Y-47855297D01*
X128643408Y-47855301D01*
X128499727Y-48042549D01*
X128499721Y-48042559D01*
X128381718Y-48246945D01*
X128381713Y-48246956D01*
X128291394Y-48465007D01*
X128230307Y-48692986D01*
X128199500Y-48926989D01*
X116200500Y-48926989D01*
X116200500Y-46824500D01*
X116219454Y-46729212D01*
X116273430Y-46648430D01*
X116354212Y-46594454D01*
X116449500Y-46575500D01*
X136179277Y-46575500D01*
X136274565Y-46594454D01*
G37*
%TD.AperFunction*%
%TD*%
M02*
