%TF.GenerationSoftware,KiCad,Pcbnew,9.0.4*%
%TF.CreationDate,2026-03-03T00:13:03+11:00*%
%TF.ProjectId,SMEE-DESIGNPROJECT,534d4545-2d44-4455-9349-474e50524f4a,1*%
%TF.SameCoordinates,Original*%
%TF.FileFunction,Copper,L1,Top*%
%TF.FilePolarity,Positive*%
%FSLAX46Y46*%
G04 Gerber Fmt 4.6, Leading zero omitted, Abs format (unit mm)*
G04 Created by KiCad (PCBNEW 9.0.4) date 2026-03-03 00:13:03*
%MOMM*%
%LPD*%
G01*
G04 APERTURE LIST*
G04 Aperture macros list*
%AMRoundRect*
0 Rectangle with rounded corners*
0 $1 Rounding radius*
0 $2 $3 $4 $5 $6 $7 $8 $9 X,Y pos of 4 corners*
0 Add a 4 corners polygon primitive as box body*
4,1,4,$2,$3,$4,$5,$6,$7,$8,$9,$2,$3,0*
0 Add four circle primitives for the rounded corners*
1,1,$1+$1,$2,$3*
1,1,$1+$1,$4,$5*
1,1,$1+$1,$6,$7*
1,1,$1+$1,$8,$9*
0 Add four rect primitives between the rounded corners*
20,1,$1+$1,$2,$3,$4,$5,0*
20,1,$1+$1,$4,$5,$6,$7,0*
20,1,$1+$1,$6,$7,$8,$9,0*
20,1,$1+$1,$8,$9,$2,$3,0*%
%AMFreePoly0*
4,1,73,3.750000,-45.500000,3.749500,-45.586629,3.741498,-45.759701,3.725512,-45.932219,3.701576,-46.103815,3.669740,-46.274122,3.630072,-46.442778,3.582658,-46.609421,3.527598,-46.773697,3.465011,-46.935254,3.395028,-47.093749,3.317801,-47.248843,3.233493,-47.400204,3.142285,-47.547511,3.044371,-47.690447,2.939960,-47.828710,2.829275,-47.962002,2.712553,-48.090041,2.590041,-48.212553,2.462002,-48.329275,
2.328710,-48.439960,2.190447,-48.544371,2.047511,-48.642285,1.900204,-48.733493,1.748843,-48.817801,1.593749,-48.895028,1.435254,-48.965011,1.273697,-49.027598,1.109421,-49.082658,0.942778,-49.130072,0.774122,-49.169740,0.603815,-49.201576,0.432219,-49.225512,0.259701,-49.241498,0.086629,-49.249500,-0.086629,-49.249500,-0.259701,-49.241498,-0.432219,-49.225512,-0.603815,-49.201576,-0.774122,-49.169740,
-0.942778,-49.130072,-1.109421,-49.082658,-1.273697,-49.027598,-1.435254,-48.965011,-1.593749,-48.895028,-1.748843,-48.817801,-1.900204,-48.733493,-2.047511,-48.642285,-2.190447,-48.544371,-2.328710,-48.439960,-2.462002,-48.329275,-2.590041,-48.212553,-2.712553,-48.090041,-2.829275,-47.962002,-2.939960,-47.828710,-3.044371,-47.690447,-3.142285,-47.547511,-3.233493,-47.400204,-3.317801,-47.248843,-3.395028,-47.093749,
-3.465011,-46.935254,-3.527598,-46.773697,-3.582658,-46.609421,-3.630072,-46.442778,-3.669740,-46.274122,-3.701576,-46.103815,-3.725512,-45.932219,-3.741498,-45.759701,-3.749500,-45.586629,-3.750000,-45.500000,-3.750000,1.000000,3.750000,1.000000,3.750000,-45.500000,3.750000,-45.500000,$1*%
%AMFreePoly1*
4,1,220,2.500000,-44.500000,2.500503,-44.616518,2.508546,-44.849415,2.524624,-45.081896,2.548716,-45.313683,2.580794,-45.544501,2.620820,-45.774074,2.668746,-46.002128,2.724515,-46.228393,2.788061,-46.452597,2.859308,-46.674475,2.938170,-46.893761,3.024554,-47.110195,3.118358,-47.323518,3.219468,-47.533476,3.327766,-47.739819,3.443120,-47.942302,3.565395,-48.140682,3.694445,-48.334723,3.830115,-48.524194,
3.972244,-48.708870,4.120663,-48.888530,4.275194,-49.062960,4.435654,-49.231952,4.601852,-49.395305,4.773589,-49.552824,4.950660,-49.704322,5.132855,-49.849617,5.319956,-49.988538,5.511741,-50.120917,5.707981,-50.246598,5.908442,-50.365431,6.112885,-50.477274,6.321067,-50.581993,6.532739,-50.679465,6.747649,-50.769572,6.965541,-50.852207,7.186156,-50.927273,7.409231,-50.994679,7.634499,-51.054346,
7.861692,-51.106201,8.090540,-51.150184,8.320770,-51.186241,8.552106,-51.214331,8.784275,-51.234418,9.016999,-51.246481,9.250000,-51.250503,9.483001,-51.246481,9.715725,-51.234418,9.947894,-51.214331,10.179230,-51.186241,10.409460,-51.150184,10.638308,-51.106201,10.865501,-51.054346,11.090769,-50.994679,11.313844,-50.927273,11.534459,-50.852207,11.752351,-50.769572,11.967261,-50.679465,12.178933,-50.581993,
12.387115,-50.477274,12.591558,-50.365431,12.792019,-50.246598,12.988259,-50.120917,13.180044,-49.988538,13.367145,-49.849617,13.549340,-49.704322,13.726411,-49.552824,13.898148,-49.395305,14.064346,-49.231952,14.224806,-49.062960,14.379337,-48.888530,14.527756,-48.708870,14.669885,-48.524194,14.805555,-48.334723,14.934605,-48.140682,15.056880,-47.942302,15.172234,-47.739819,15.280532,-47.533476,15.381642,-47.323518,
15.475446,-47.110195,15.561830,-46.893761,15.640692,-46.674475,15.711939,-46.452597,15.775485,-46.228393,15.831254,-46.002128,15.879180,-45.774074,15.919206,-45.544501,15.951284,-45.313683,15.975376,-45.081896,15.991454,-44.849415,15.999497,-44.616518,16.000000,-44.500000,16.000000,2.000000,21.000000,2.000000,21.000000,-44.500000,20.999497,-44.653809,20.991444,-44.961323,20.975345,-45.268520,20.951209,-45.575190,
20.919054,-45.881124,20.878902,-46.186111,20.830780,-46.489942,20.774721,-46.792410,20.710763,-47.093306,20.638951,-47.392425,20.559334,-47.689562,20.471965,-47.984513,20.376906,-48.277076,20.274221,-48.567050,20.163980,-48.854236,20.046259,-49.138439,19.921140,-49.419463,19.788706,-49.697115,19.649050,-49.971205,19.502267,-50.241546,19.348458,-50.507951,19.187728,-50.770239,19.020187,-51.028230,18.845949,-51.281747,
18.665136,-51.530615,18.477869,-51.774666,18.284279,-52.013730,18.084496,-52.247645,17.878659,-52.476251,17.666908,-52.699389,17.449389,-52.916908,17.226251,-53.128659,16.997645,-53.334496,16.763730,-53.534279,16.524666,-53.727869,16.280615,-53.915136,16.031747,-54.095949,15.778230,-54.270187,15.520239,-54.437728,15.257951,-54.598458,14.991546,-54.752267,14.721205,-54.899050,14.447115,-55.038706,14.169463,-55.171140,
13.888439,-55.296259,13.604236,-55.413980,13.317050,-55.524221,13.027076,-55.626906,12.734513,-55.721965,12.439562,-55.809334,12.142425,-55.888951,11.843306,-55.960763,11.542410,-56.024721,11.239942,-56.080780,10.936111,-56.128902,10.631124,-56.169054,10.325190,-56.201209,10.018520,-56.225345,9.711323,-56.241444,9.403809,-56.249497,9.096191,-56.249497,8.788677,-56.241444,8.481480,-56.225345,8.174810,-56.201209,
7.868876,-56.169054,7.563889,-56.128902,7.260058,-56.080780,6.957590,-56.024721,6.656694,-55.960763,6.357575,-55.888951,6.060438,-55.809334,5.765487,-55.721965,5.472924,-55.626906,5.182950,-55.524221,4.895764,-55.413980,4.611561,-55.296259,4.330537,-55.171140,4.052885,-55.038706,3.778795,-54.899050,3.508454,-54.752267,3.242049,-54.598458,2.979761,-54.437728,2.721770,-54.270187,2.468253,-54.095949,
2.219385,-53.915136,1.975334,-53.727869,1.736270,-53.534279,1.502355,-53.334496,1.273749,-53.128659,1.050611,-52.916908,0.833092,-52.699389,0.621341,-52.476251,0.415504,-52.247645,0.215721,-52.013730,0.022131,-51.774666,-0.165136,-51.530615,-0.345949,-51.281747,-0.520187,-51.028230,-0.687728,-50.770239,-0.848458,-50.507951,-1.002267,-50.241546,-1.149050,-49.971205,-1.288706,-49.697115,-1.421140,-49.419463,
-1.546259,-49.138439,-1.663980,-48.854236,-1.774221,-48.567050,-1.876906,-48.277076,-1.971965,-47.984513,-2.059334,-47.689562,-2.138951,-47.392425,-2.210763,-47.093306,-2.274721,-46.792410,-2.330780,-46.489942,-2.378902,-46.186111,-2.419054,-45.881124,-2.451209,-45.575190,-2.475345,-45.268520,-2.491444,-44.961323,-2.499497,-44.653809,-2.500000,-44.500000,-2.500000,2.000000,2.500000,2.000000,2.500000,-44.500000,
2.500000,-44.500000,$1*%
G04 Aperture macros list end*
%TA.AperFunction,ComponentPad*%
%ADD10C,1.600000*%
%TD*%
%TA.AperFunction,ComponentPad*%
%ADD11RoundRect,0.250000X-0.550000X-0.550000X0.550000X-0.550000X0.550000X0.550000X-0.550000X0.550000X0*%
%TD*%
%TA.AperFunction,ComponentPad*%
%ADD12R,1.905000X1.905000*%
%TD*%
%TA.AperFunction,ComponentPad*%
%ADD13C,1.905000*%
%TD*%
%TA.AperFunction,ComponentPad*%
%ADD14R,1.800000X1.800000*%
%TD*%
%TA.AperFunction,ComponentPad*%
%ADD15C,1.800000*%
%TD*%
%TA.AperFunction,ComponentPad*%
%ADD16RoundRect,0.250000X-0.650000X-0.650000X0.650000X-0.650000X0.650000X0.650000X-0.650000X0.650000X0*%
%TD*%
%TA.AperFunction,SMDPad,CuDef*%
%ADD17FreePoly0,0.000000*%
%TD*%
%TA.AperFunction,SMDPad,CuDef*%
%ADD18FreePoly1,0.000000*%
%TD*%
%TA.AperFunction,ComponentPad*%
%ADD19R,1.700000X1.700000*%
%TD*%
%TA.AperFunction,ComponentPad*%
%ADD20C,1.700000*%
%TD*%
%TA.AperFunction,Conductor*%
%ADD21C,0.200000*%
%TD*%
%TA.AperFunction,Conductor*%
%ADD22C,0.500000*%
%TD*%
G04 APERTURE END LIST*
D10*
%TO.P,C1,1*%
%TO.N,Net-(U2-THR)*%
X135000000Y-75625000D03*
%TO.P,C1,2*%
%TO.N,GND*%
X140000000Y-75625000D03*
%TD*%
D11*
%TO.P,U2,1,GND*%
%TO.N,GND*%
X118195000Y-65065000D03*
D10*
%TO.P,U2,2,TR*%
%TO.N,Net-(U2-THR)*%
X118195000Y-67605000D03*
%TO.P,U2,3,Q*%
%TO.N,/Out*%
X118195000Y-70145000D03*
%TO.P,U2,4,R*%
%TO.N,+3.3V*%
X118195000Y-72685000D03*
%TO.P,U2,5,CV*%
%TO.N,unconnected-(U2-CV-Pad5)*%
X125815000Y-72685000D03*
%TO.P,U2,6,THR*%
%TO.N,Net-(U2-THR)*%
X125815000Y-70145000D03*
%TO.P,U2,7,DIS*%
%TO.N,Net-(U2-DIS)*%
X125815000Y-67605000D03*
%TO.P,U2,8,VCC*%
%TO.N,+3.3V*%
X125815000Y-65065000D03*
%TD*%
%TO.P,R7,1*%
%TO.N,Net-(LED1-Pad1)*%
X133000000Y-49045000D03*
%TO.P,R7,2*%
%TO.N,/LED_R*%
X133000000Y-59205000D03*
%TD*%
%TO.P,R6,1*%
%TO.N,/Out*%
X118170000Y-75875000D03*
%TO.P,R6,2*%
%TO.N,Net-(D1-A)*%
X128330000Y-75875000D03*
%TD*%
%TO.P,R1,1*%
%TO.N,+3.3V*%
X129920000Y-68625000D03*
%TO.P,R1,2*%
%TO.N,Net-(U2-DIS)*%
X140080000Y-68625000D03*
%TD*%
D12*
%TO.P,LED1,1,1*%
%TO.N,Net-(LED1-Pad1)*%
X138250000Y-48335000D03*
D13*
%TO.P,LED1,2,2*%
%TO.N,GND*%
X138250000Y-50875000D03*
%TO.P,LED1,3,3*%
%TO.N,Net-(LED1-Pad3)*%
X138250000Y-53415000D03*
%TD*%
D14*
%TO.P,LED2,1,K*%
%TO.N,Net-(LED2-K)*%
X139250000Y-59375000D03*
D15*
%TO.P,LED2,2,A*%
%TO.N,+3.3V*%
X136710000Y-59375000D03*
%TD*%
D11*
%TO.P,C3,1*%
%TO.N,/Aout*%
X118294888Y-86625000D03*
D10*
%TO.P,C3,2*%
%TO.N,GND*%
X120794888Y-86625000D03*
%TD*%
D16*
%TO.P,D1,1,K*%
%TO.N,/Aout*%
X118170000Y-79125000D03*
D15*
%TO.P,D1,2,A*%
%TO.N,Net-(D1-A)*%
X128330000Y-79125000D03*
%TD*%
D10*
%TO.P,R5,1*%
%TO.N,GND*%
X128330000Y-82375000D03*
%TO.P,R5,2*%
%TO.N,/Aout*%
X118170000Y-82375000D03*
%TD*%
%TO.P,R4,1*%
%TO.N,Net-(LED2-K)*%
X140080000Y-65625000D03*
%TO.P,R4,2*%
%TO.N,GND*%
X129920000Y-65625000D03*
%TD*%
%TO.P,R2,1*%
%TO.N,Net-(U2-DIS)*%
X140080000Y-71625000D03*
%TO.P,R2,2*%
%TO.N,Net-(U2-THR)*%
X129920000Y-71625000D03*
%TD*%
%TO.P,R3,1*%
%TO.N,Net-(LED1-Pad3)*%
X130000000Y-49045000D03*
%TO.P,R3,2*%
%TO.N,/LED_G*%
X130000000Y-59205000D03*
%TD*%
D17*
%TO.P,C2,1*%
%TO.N,Net-(D1-A)*%
X128750000Y-92862500D03*
D18*
%TO.P,C2,2*%
%TO.N,GND*%
X119500000Y-93862500D03*
%TD*%
D19*
%TO.P,J1,1,Pin_1*%
%TO.N,/Aout*%
X118960000Y-59125000D03*
D20*
%TO.P,J1,2,Pin_2*%
%TO.N,unconnected-(J1-Pin_2-Pad2)*%
X118960000Y-56585000D03*
%TO.P,J1,3,Pin_3*%
%TO.N,+3.3V*%
X121500000Y-59125000D03*
%TO.P,J1,4,Pin_4*%
%TO.N,/LED_R*%
X121500000Y-56585000D03*
%TO.P,J1,5,Pin_5*%
%TO.N,GND*%
X124040000Y-59125000D03*
%TO.P,J1,6,Pin_6*%
%TO.N,/LED_G*%
X124040000Y-56585000D03*
%TD*%
D21*
%TO.N,+3.3V*%
X117094000Y-71584000D02*
X117094000Y-63531000D01*
X117094000Y-63531000D02*
X121500000Y-59125000D01*
D22*
X129375000Y-68625000D02*
X129920000Y-68625000D01*
X125815000Y-65065000D02*
X129375000Y-68625000D01*
X125815000Y-63440000D02*
X121500000Y-59125000D01*
X129920000Y-68625000D02*
X136710000Y-61835000D01*
D21*
X118195000Y-72685000D02*
X117094000Y-71584000D01*
D22*
X125815000Y-65065000D02*
X125815000Y-63440000D01*
X136710000Y-61835000D02*
X136710000Y-59375000D01*
%TO.N,Net-(U2-THR)*%
X125815000Y-70145000D02*
X127295000Y-71625000D01*
X135000000Y-75500000D02*
X135000000Y-75625000D01*
X123275000Y-67605000D02*
X125815000Y-70145000D01*
X127295000Y-71625000D02*
X129920000Y-71625000D01*
X129920000Y-71625000D02*
X131125000Y-71625000D01*
X118195000Y-67605000D02*
X123275000Y-67605000D01*
X131125000Y-71625000D02*
X135000000Y-75500000D01*
D21*
%TO.N,/Aout*%
X116601000Y-62399000D02*
X116601000Y-77556000D01*
X116601000Y-77556000D02*
X118170000Y-79125000D01*
X118960000Y-60040000D02*
X116601000Y-62399000D01*
X118294888Y-86625000D02*
X118250000Y-86580112D01*
X118250000Y-86580112D02*
X118250000Y-82455000D01*
X118170000Y-79125000D02*
X118170000Y-82375000D01*
X118960000Y-59125000D02*
X118960000Y-60040000D01*
X118250000Y-82455000D02*
X118170000Y-82375000D01*
D22*
%TO.N,Net-(U2-DIS)*%
X128086000Y-69876000D02*
X138331000Y-69876000D01*
X125815000Y-67605000D02*
X128086000Y-69876000D01*
X140080000Y-68625000D02*
X140080000Y-71625000D01*
X138331000Y-69876000D02*
X140080000Y-71625000D01*
%TO.N,/Out*%
X118195000Y-70145000D02*
X119446000Y-71396000D01*
X119446000Y-74599000D02*
X118170000Y-75875000D01*
X119446000Y-71396000D02*
X119446000Y-74599000D01*
%TO.N,/LED_G*%
X124040000Y-56585000D02*
X127380000Y-56585000D01*
X127380000Y-56585000D02*
X130000000Y-59205000D01*
%TO.N,/LED_R*%
X128795000Y-55000000D02*
X133000000Y-59205000D01*
X123085000Y-55000000D02*
X128795000Y-55000000D01*
X121500000Y-56585000D02*
X123085000Y-55000000D01*
%TO.N,Net-(LED1-Pad1)*%
X138250000Y-48335000D02*
X133710000Y-48335000D01*
X133710000Y-48335000D02*
X133000000Y-49045000D01*
%TO.N,Net-(LED1-Pad3)*%
X130000000Y-49045000D02*
X134370000Y-53415000D01*
X134370000Y-53415000D02*
X138250000Y-53415000D01*
%TO.N,Net-(LED2-K)*%
X139250000Y-64795000D02*
X140080000Y-65625000D01*
X139250000Y-59375000D02*
X139250000Y-64795000D01*
%TD*%
%TA.AperFunction,Conductor*%
%TO.N,Net-(D1-A)*%
G36*
X129265677Y-75019685D02*
G01*
X129286319Y-75036319D01*
X132463681Y-78213681D01*
X132497166Y-78275004D01*
X132500000Y-78301362D01*
X132500000Y-91876000D01*
X132480315Y-91943039D01*
X132427511Y-91988794D01*
X132376000Y-92000000D01*
X125124000Y-92000000D01*
X125056961Y-91980315D01*
X125011206Y-91927511D01*
X125000000Y-91876000D01*
X125000000Y-87301362D01*
X125019685Y-87234323D01*
X125036319Y-87213681D01*
X127463681Y-84786319D01*
X127525004Y-84752834D01*
X127551362Y-84750000D01*
X129500000Y-84750000D01*
X130500000Y-83750000D01*
X130500000Y-81500000D01*
X129250000Y-80250000D01*
X127124000Y-80250000D01*
X127056961Y-80230315D01*
X127011206Y-80177511D01*
X127000000Y-80126000D01*
X127000000Y-75124000D01*
X127019685Y-75056961D01*
X127072489Y-75011206D01*
X127124000Y-75000000D01*
X129198638Y-75000000D01*
X129265677Y-75019685D01*
G37*
%TD.AperFunction*%
%TD*%
%TA.AperFunction,Conductor*%
%TO.N,GND*%
G36*
X122749174Y-68874454D02*
G01*
X122829956Y-68928430D01*
X123640261Y-69738735D01*
X123690804Y-69811618D01*
X124041301Y-70581356D01*
X124105946Y-70723324D01*
X124106394Y-70724993D01*
X124196716Y-70943049D01*
X124250692Y-71036539D01*
X124265491Y-71065851D01*
X124266403Y-71067490D01*
X124301305Y-71125524D01*
X124301307Y-71125526D01*
X124303870Y-71129788D01*
X124311051Y-71141083D01*
X124314727Y-71147450D01*
X124354613Y-71199430D01*
X124403713Y-71263419D01*
X124446683Y-71350555D01*
X124453037Y-71447502D01*
X124421807Y-71539501D01*
X124403713Y-71566581D01*
X124314726Y-71682551D01*
X124314721Y-71682559D01*
X124196718Y-71886945D01*
X124196713Y-71886956D01*
X124106394Y-72105007D01*
X124045307Y-72332986D01*
X124045306Y-72332990D01*
X124045306Y-72332992D01*
X124021938Y-72510492D01*
X124014500Y-72566989D01*
X124014500Y-72803011D01*
X124045307Y-73037014D01*
X124089834Y-73203189D01*
X124106393Y-73264989D01*
X124106394Y-73264992D01*
X124196713Y-73483043D01*
X124196718Y-73483054D01*
X124314721Y-73687440D01*
X124314727Y-73687450D01*
X124458408Y-73874699D01*
X124625301Y-74041592D01*
X124812550Y-74185273D01*
X124812559Y-74185278D01*
X125016945Y-74303281D01*
X125016948Y-74303282D01*
X125016951Y-74303284D01*
X125235007Y-74393606D01*
X125462986Y-74454693D01*
X125696989Y-74485500D01*
X125806906Y-74485500D01*
X125902194Y-74504454D01*
X125982976Y-74558430D01*
X126036952Y-74639212D01*
X126055906Y-74734500D01*
X126045820Y-74804652D01*
X126035231Y-74840713D01*
X126015081Y-74921598D01*
X125994501Y-75123980D01*
X125994500Y-75124005D01*
X125994500Y-80125967D01*
X125994567Y-80137589D01*
X125994567Y-80137592D01*
X126017481Y-80339745D01*
X126028685Y-80391246D01*
X126028693Y-80391279D01*
X126053214Y-80482931D01*
X126053218Y-80482945D01*
X126134306Y-80669523D01*
X126134307Y-80669526D01*
X126251300Y-80835975D01*
X126251305Y-80835980D01*
X126268244Y-80855529D01*
X126297055Y-80888778D01*
X126416168Y-81005179D01*
X126585264Y-81118308D01*
X126773671Y-81195083D01*
X126840710Y-81214768D01*
X126921218Y-81234823D01*
X126921598Y-81234918D01*
X127123980Y-81255498D01*
X127124000Y-81255500D01*
X128730368Y-81255500D01*
X128825656Y-81274454D01*
X128906438Y-81328430D01*
X129421570Y-81843562D01*
X129475546Y-81924344D01*
X129494500Y-82019632D01*
X129494500Y-83230368D01*
X129475546Y-83325656D01*
X129421570Y-83406438D01*
X129156438Y-83671570D01*
X129075656Y-83725546D01*
X128980368Y-83744500D01*
X127551362Y-83744500D01*
X127514117Y-83746496D01*
X127443897Y-83750260D01*
X127443885Y-83750261D01*
X127443871Y-83750262D01*
X127417513Y-83753096D01*
X127250611Y-83787295D01*
X127230624Y-83791391D01*
X127043118Y-83870327D01*
X127043110Y-83870331D01*
X126981806Y-83903806D01*
X126910363Y-83946754D01*
X126910357Y-83946758D01*
X126752691Y-84075317D01*
X124325309Y-86502699D01*
X124253390Y-86582767D01*
X124236755Y-86603409D01*
X124231574Y-86611261D01*
X124199825Y-86650172D01*
X122000000Y-88849999D01*
X122000000Y-91876000D01*
X121981046Y-91971288D01*
X121927070Y-92052070D01*
X121846288Y-92106046D01*
X121751000Y-92125000D01*
X117228140Y-92125000D01*
X117132852Y-92106046D01*
X117052070Y-92052070D01*
X116273430Y-91273430D01*
X116219454Y-91192648D01*
X116200500Y-91097360D01*
X116200500Y-87938301D01*
X116219454Y-87843013D01*
X116273430Y-87762231D01*
X116354212Y-87708255D01*
X116449500Y-87689301D01*
X116544788Y-87708255D01*
X116625570Y-87762231D01*
X116654178Y-87796499D01*
X116781065Y-87979649D01*
X116781066Y-87979650D01*
X116781069Y-87979654D01*
X116940234Y-88138819D01*
X117125262Y-88267007D01*
X117330205Y-88360096D01*
X117548476Y-88415096D01*
X117548479Y-88415096D01*
X117548482Y-88415097D01*
X117614573Y-88420298D01*
X117680671Y-88425500D01*
X118909104Y-88425499D01*
X119041300Y-88415096D01*
X119259571Y-88360096D01*
X119464514Y-88267007D01*
X119649542Y-88138819D01*
X119808707Y-87979654D01*
X119936895Y-87794626D01*
X120029984Y-87589683D01*
X120084984Y-87371412D01*
X120095388Y-87239217D01*
X120095387Y-86010784D01*
X120084984Y-85878588D01*
X120029984Y-85660317D01*
X119936895Y-85455374D01*
X119868161Y-85356162D01*
X119808710Y-85270350D01*
X119801541Y-85261763D01*
X119801688Y-85261639D01*
X119792555Y-85251236D01*
X119402129Y-84743648D01*
X119387628Y-84714328D01*
X119369454Y-84687128D01*
X119366277Y-84671159D01*
X119359060Y-84656566D01*
X119350500Y-84591840D01*
X119350500Y-84227192D01*
X119369454Y-84131904D01*
X119370381Y-84129696D01*
X119741210Y-83258240D01*
X119754690Y-83231234D01*
X119755190Y-83230368D01*
X119788284Y-83173049D01*
X119878606Y-82954993D01*
X119939693Y-82727014D01*
X119970500Y-82493011D01*
X119970500Y-82256989D01*
X119939693Y-82022986D01*
X119878606Y-81795007D01*
X119788284Y-81576951D01*
X119745320Y-81502536D01*
X119737750Y-81488389D01*
X119733037Y-81478856D01*
X119731507Y-81474775D01*
X119553100Y-81114861D01*
X119540580Y-81068318D01*
X119527882Y-81021312D01*
X119527899Y-81021174D01*
X119527864Y-81021041D01*
X119534123Y-80973137D01*
X119540366Y-80924962D01*
X119540437Y-80924826D01*
X119540453Y-80924705D01*
X119540991Y-80923770D01*
X119576801Y-80855536D01*
X119770393Y-80596300D01*
X119778738Y-80585737D01*
X119783806Y-80579666D01*
X119783819Y-80579654D01*
X119912007Y-80394626D01*
X120005096Y-80189683D01*
X120060096Y-79971412D01*
X120070500Y-79839217D01*
X120070499Y-78410784D01*
X120060096Y-78278588D01*
X120005096Y-78060317D01*
X119912007Y-77855374D01*
X119783819Y-77670346D01*
X119624654Y-77511181D01*
X119548136Y-77458169D01*
X119480604Y-77388323D01*
X119444940Y-77297950D01*
X119446576Y-77200809D01*
X119485261Y-77111688D01*
X119513874Y-77077417D01*
X119526583Y-77064708D01*
X119526592Y-77064699D01*
X119670273Y-76877450D01*
X119788284Y-76673049D01*
X119878606Y-76454993D01*
X119878607Y-76454988D01*
X119880123Y-76451329D01*
X119883536Y-76443473D01*
X120294193Y-75541617D01*
X120344736Y-75468737D01*
X120399829Y-75413645D01*
X120515524Y-75254405D01*
X120604884Y-75079025D01*
X120665709Y-74891826D01*
X120696500Y-74697416D01*
X120696500Y-74500583D01*
X120696500Y-71297583D01*
X120665709Y-71103174D01*
X120660582Y-71087394D01*
X120660580Y-71087387D01*
X120660580Y-71087386D01*
X120604885Y-70915977D01*
X120604884Y-70915976D01*
X120604884Y-70915974D01*
X120515524Y-70740595D01*
X120399828Y-70581354D01*
X120369732Y-70551258D01*
X120319193Y-70478381D01*
X119904054Y-69566679D01*
X119903606Y-69565007D01*
X119813284Y-69346951D01*
X119759303Y-69253453D01*
X119749820Y-69234670D01*
X119723792Y-69141073D01*
X119735563Y-69044634D01*
X119783344Y-68960041D01*
X119859861Y-68900171D01*
X119884810Y-68889242D01*
X119932768Y-68871294D01*
X120020040Y-68855500D01*
X122653886Y-68855500D01*
X122749174Y-68874454D01*
G37*
%TD.AperFunction*%
%TA.AperFunction,Conductor*%
G36*
X137805174Y-71145454D02*
G01*
X137885956Y-71199430D01*
X137905261Y-71218735D01*
X137955804Y-71291618D01*
X138366465Y-72193483D01*
X138369898Y-72201382D01*
X138461712Y-72423041D01*
X138461718Y-72423052D01*
X138512200Y-72510492D01*
X138512201Y-72510492D01*
X138515692Y-72516539D01*
X138530491Y-72545851D01*
X138531403Y-72547490D01*
X138566305Y-72605524D01*
X138569021Y-72608907D01*
X138579727Y-72627450D01*
X138723408Y-72814699D01*
X138890301Y-72981592D01*
X139077550Y-73125273D01*
X139077559Y-73125278D01*
X139281945Y-73243281D01*
X139281948Y-73243282D01*
X139281951Y-73243284D01*
X139500007Y-73333606D01*
X139727986Y-73394693D01*
X139961989Y-73425500D01*
X140198011Y-73425500D01*
X140432014Y-73394693D01*
X140659993Y-73333606D01*
X140878049Y-73243284D01*
X140926002Y-73215598D01*
X141017996Y-73184370D01*
X141114943Y-73190723D01*
X141202079Y-73233692D01*
X141266139Y-73306736D01*
X141297369Y-73398735D01*
X141299500Y-73431239D01*
X141299500Y-91097360D01*
X141280546Y-91192648D01*
X141226570Y-91273430D01*
X140447930Y-92052070D01*
X140367148Y-92106046D01*
X140271860Y-92125000D01*
X135749000Y-92125000D01*
X135653712Y-92106046D01*
X135572930Y-92052070D01*
X135518954Y-91971288D01*
X135500000Y-91876000D01*
X135500000Y-79800000D01*
X132444830Y-76744830D01*
X132443326Y-76744531D01*
X132362549Y-76690557D01*
X131213614Y-75541622D01*
X129997315Y-74325323D01*
X129997305Y-74325314D01*
X129997300Y-74325309D01*
X129917232Y-74253389D01*
X129896592Y-74236757D01*
X129896589Y-74236755D01*
X129896590Y-74236755D01*
X129896588Y-74236754D01*
X129737374Y-74131692D01*
X129737371Y-74131690D01*
X129737370Y-74131690D01*
X129548974Y-74054920D01*
X129548967Y-74054917D01*
X129503588Y-74041592D01*
X129481932Y-74035233D01*
X129401039Y-74015081D01*
X129198657Y-73994501D01*
X129198641Y-73994500D01*
X129198638Y-73994500D01*
X127569278Y-73994500D01*
X127473990Y-73975546D01*
X127393208Y-73921570D01*
X127339232Y-73840788D01*
X127320278Y-73745500D01*
X127339232Y-73650212D01*
X127353638Y-73621000D01*
X127433281Y-73483054D01*
X127433280Y-73483054D01*
X127433284Y-73483049D01*
X127523606Y-73264993D01*
X127578519Y-73060052D01*
X127585784Y-73045320D01*
X127588989Y-73029212D01*
X127607083Y-73002131D01*
X127621490Y-72972918D01*
X127633838Y-72962088D01*
X127642965Y-72948430D01*
X127670049Y-72930333D01*
X127694535Y-72908860D01*
X127710088Y-72903580D01*
X127723747Y-72894454D01*
X127755691Y-72888099D01*
X127786534Y-72877630D01*
X127819035Y-72875500D01*
X128094959Y-72875500D01*
X128182233Y-72891295D01*
X129110289Y-73238614D01*
X129118286Y-73241766D01*
X129121951Y-73243284D01*
X129340007Y-73333606D01*
X129340015Y-73333608D01*
X129340020Y-73333610D01*
X129372229Y-73342240D01*
X129444336Y-73361561D01*
X129475529Y-73371823D01*
X129477333Y-73372337D01*
X129542984Y-73388676D01*
X129547286Y-73389146D01*
X129567986Y-73394693D01*
X129567992Y-73394693D01*
X129567993Y-73394694D01*
X129801989Y-73425500D01*
X130038011Y-73425500D01*
X130173312Y-73407687D01*
X130175289Y-73407704D01*
X130180024Y-73406803D01*
X130272014Y-73394693D01*
X130285206Y-73391157D01*
X130332254Y-73378551D01*
X130332255Y-73378550D01*
X130341150Y-73376167D01*
X130375157Y-73369702D01*
X130464469Y-73343124D01*
X130499993Y-73333606D01*
X130500001Y-73333602D01*
X130507704Y-73330988D01*
X130507720Y-73331035D01*
X130521366Y-73326192D01*
X130792529Y-73245500D01*
X130889261Y-73236490D01*
X130982082Y-73265183D01*
X131039614Y-73308088D01*
X132862590Y-75131064D01*
X132916566Y-75211846D01*
X132918714Y-75217207D01*
X133264355Y-76109661D01*
X133272675Y-76135138D01*
X133291393Y-76204991D01*
X133381713Y-76423043D01*
X133381718Y-76423054D01*
X133499721Y-76627440D01*
X133499727Y-76627450D01*
X133643408Y-76814699D01*
X133810301Y-76981592D01*
X133997550Y-77125273D01*
X133997559Y-77125278D01*
X134201945Y-77243281D01*
X134201948Y-77243282D01*
X134201951Y-77243284D01*
X134420007Y-77333606D01*
X134647986Y-77394693D01*
X134881989Y-77425500D01*
X135118011Y-77425500D01*
X135352014Y-77394693D01*
X135579993Y-77333606D01*
X135798049Y-77243284D01*
X136002450Y-77125273D01*
X136189699Y-76981592D01*
X136356592Y-76814699D01*
X136500273Y-76627450D01*
X136618284Y-76423049D01*
X136708606Y-76204993D01*
X136769693Y-75977014D01*
X136800500Y-75743011D01*
X136800500Y-75506989D01*
X136769693Y-75272986D01*
X136708606Y-75045007D01*
X136618284Y-74826951D01*
X136564907Y-74734500D01*
X136500278Y-74622559D01*
X136500272Y-74622549D01*
X136451072Y-74558430D01*
X136356592Y-74435301D01*
X136189699Y-74268408D01*
X136189689Y-74268400D01*
X136085117Y-74188158D01*
X136085117Y-74188159D01*
X136072658Y-74178599D01*
X136069337Y-74175311D01*
X136062385Y-74170716D01*
X136011525Y-74131690D01*
X136002452Y-74124728D01*
X135991743Y-74118545D01*
X135926034Y-74080608D01*
X135899603Y-74063141D01*
X135858262Y-74041480D01*
X135798049Y-74006716D01*
X135779104Y-73998868D01*
X135758841Y-73989387D01*
X134740099Y-73455608D01*
X134679593Y-73411119D01*
X132820044Y-71551570D01*
X132766068Y-71470788D01*
X132747114Y-71375500D01*
X132766068Y-71280212D01*
X132820044Y-71199430D01*
X132900826Y-71145454D01*
X132996114Y-71126500D01*
X137709886Y-71126500D01*
X137805174Y-71145454D01*
G37*
%TD.AperFunction*%
%TA.AperFunction,Conductor*%
G36*
X126854174Y-57854454D02*
G01*
X126934956Y-57908430D01*
X127825261Y-58798735D01*
X127875804Y-58871618D01*
X128209821Y-59605163D01*
X128290946Y-59783324D01*
X128291394Y-59784993D01*
X128381716Y-60003049D01*
X128435692Y-60096539D01*
X128450491Y-60125851D01*
X128451403Y-60127490D01*
X128486305Y-60185524D01*
X128486307Y-60185526D01*
X128488870Y-60189788D01*
X128496051Y-60201083D01*
X128499727Y-60207450D01*
X128643408Y-60394699D01*
X128810301Y-60561592D01*
X128997550Y-60705273D01*
X128997559Y-60705278D01*
X129201945Y-60823281D01*
X129201948Y-60823282D01*
X129201951Y-60823284D01*
X129420007Y-60913606D01*
X129647986Y-60974693D01*
X129881989Y-61005500D01*
X130118011Y-61005500D01*
X130352014Y-60974693D01*
X130579993Y-60913606D01*
X130798049Y-60823284D01*
X131002450Y-60705273D01*
X131189699Y-60561592D01*
X131323930Y-60427361D01*
X131404712Y-60373385D01*
X131500000Y-60354431D01*
X131595288Y-60373385D01*
X131676070Y-60427361D01*
X131810301Y-60561592D01*
X131997550Y-60705273D01*
X131997559Y-60705278D01*
X132201945Y-60823281D01*
X132201948Y-60823282D01*
X132201951Y-60823284D01*
X132420007Y-60913606D01*
X132647986Y-60974693D01*
X132881989Y-61005500D01*
X133118011Y-61005500D01*
X133352014Y-60974693D01*
X133579993Y-60913606D01*
X133798049Y-60823284D01*
X134002450Y-60705273D01*
X134189699Y-60561592D01*
X134356592Y-60394699D01*
X134500273Y-60207450D01*
X134537460Y-60143039D01*
X134554662Y-60123424D01*
X134567993Y-60100998D01*
X134586380Y-60087256D01*
X134601517Y-60069996D01*
X134624915Y-60058456D01*
X134645816Y-60042837D01*
X134668065Y-60037177D01*
X134688652Y-60027025D01*
X134714685Y-60025318D01*
X134739973Y-60018886D01*
X134762693Y-60022171D01*
X134785599Y-60020670D01*
X134810303Y-60029055D01*
X134836128Y-60032790D01*
X134855862Y-60044520D01*
X134877599Y-60051899D01*
X134897215Y-60069102D01*
X134919642Y-60082433D01*
X134931432Y-60099109D01*
X134950644Y-60115957D01*
X134977803Y-60160256D01*
X134980629Y-60166175D01*
X135001836Y-60217373D01*
X135020548Y-60249784D01*
X135024738Y-60258560D01*
X135025587Y-60261899D01*
X135031726Y-60274630D01*
X135387228Y-61177633D01*
X135404498Y-61273240D01*
X135383866Y-61368179D01*
X135331607Y-61444917D01*
X130326264Y-66450260D01*
X130253381Y-66500803D01*
X129725164Y-66741325D01*
X129704894Y-66746091D01*
X129686212Y-66755284D01*
X129658055Y-66757104D01*
X129630589Y-66763563D01*
X129589259Y-66761553D01*
X129316448Y-66725393D01*
X129224477Y-66694083D01*
X129173096Y-66654622D01*
X127989735Y-65471261D01*
X127939192Y-65398378D01*
X127528551Y-64496555D01*
X127525118Y-64488657D01*
X127476205Y-64370572D01*
X127433284Y-64266951D01*
X127433283Y-64266950D01*
X127431772Y-64263301D01*
X127428614Y-64255287D01*
X127369297Y-64096789D01*
X127058769Y-63267040D01*
X127046041Y-63218728D01*
X127034709Y-63147174D01*
X126973884Y-62959975D01*
X126884524Y-62784595D01*
X126791603Y-62656701D01*
X126791603Y-62656700D01*
X126768832Y-62625359D01*
X126768829Y-62625355D01*
X123748637Y-59605163D01*
X123697175Y-59530237D01*
X123500140Y-59086989D01*
X123343213Y-58733967D01*
X123321828Y-58639198D01*
X123338337Y-58543456D01*
X123390228Y-58461320D01*
X123469602Y-58405294D01*
X123564374Y-58383908D01*
X123635190Y-58392310D01*
X123678211Y-58403838D01*
X123918712Y-58435500D01*
X124161288Y-58435500D01*
X124401789Y-58403838D01*
X124563275Y-58360567D01*
X124636082Y-58341059D01*
X124636084Y-58341058D01*
X124636100Y-58341054D01*
X124860212Y-58248224D01*
X124863599Y-58246267D01*
X124898730Y-58229497D01*
X125880186Y-57852091D01*
X125969556Y-57835500D01*
X126758886Y-57835500D01*
X126854174Y-57854454D01*
G37*
%TD.AperFunction*%
%TA.AperFunction,Conductor*%
G36*
X121499927Y-61142005D02*
G01*
X121905238Y-61322176D01*
X121980163Y-61373637D01*
X124267946Y-63661420D01*
X124292593Y-63698308D01*
X124318489Y-63734303D01*
X124319490Y-63738563D01*
X124321922Y-63742202D01*
X124330575Y-63785703D01*
X124340727Y-63828879D01*
X124340022Y-63833197D01*
X124340876Y-63837490D01*
X124325080Y-63924765D01*
X124201367Y-64255332D01*
X124198209Y-64263345D01*
X124106392Y-64485011D01*
X124080250Y-64582571D01*
X124080251Y-64582572D01*
X124078443Y-64589320D01*
X124068176Y-64620529D01*
X124067662Y-64622333D01*
X124051323Y-64687984D01*
X124050851Y-64692292D01*
X124047214Y-64705868D01*
X124047211Y-64705872D01*
X124045308Y-64712977D01*
X124014500Y-64946989D01*
X124014500Y-65183010D01*
X124042853Y-65398378D01*
X124045307Y-65417014D01*
X124086442Y-65570530D01*
X124106393Y-65644989D01*
X124106394Y-65644992D01*
X124196713Y-65863043D01*
X124196718Y-65863054D01*
X124283437Y-66013255D01*
X124314727Y-66067450D01*
X124401650Y-66180731D01*
X124403713Y-66183419D01*
X124410978Y-66198152D01*
X124421808Y-66210501D01*
X124432276Y-66241341D01*
X124446683Y-66270555D01*
X124447757Y-66286946D01*
X124453037Y-66302500D01*
X124450906Y-66334998D01*
X124453037Y-66367502D01*
X124447756Y-66383058D01*
X124446682Y-66399447D01*
X124432278Y-66428654D01*
X124421807Y-66459501D01*
X124403711Y-66486582D01*
X124357869Y-66546324D01*
X124284824Y-66610383D01*
X124192825Y-66641612D01*
X124095878Y-66635257D01*
X124013967Y-66596187D01*
X123930409Y-66535479D01*
X123930405Y-66535476D01*
X123862355Y-66500803D01*
X123755026Y-66446116D01*
X123755023Y-66446115D01*
X123755021Y-66446114D01*
X123567823Y-66385290D01*
X123373428Y-66354501D01*
X123373419Y-66354500D01*
X123373417Y-66354500D01*
X123373413Y-66354500D01*
X120020043Y-66354500D01*
X119932768Y-66338704D01*
X119922865Y-66334998D01*
X119794468Y-66286946D01*
X119005386Y-65991636D01*
X119005277Y-65991596D01*
X118994546Y-65987580D01*
X118993049Y-65986716D01*
X118774993Y-65896394D01*
X118670674Y-65868441D01*
X118660072Y-65864953D01*
X118660063Y-65864950D01*
X118639461Y-65858173D01*
X118637677Y-65857665D01*
X118637673Y-65857664D01*
X118637666Y-65857662D01*
X118572015Y-65841323D01*
X118572014Y-65841322D01*
X118567197Y-65840124D01*
X118554142Y-65837216D01*
X118547021Y-65835308D01*
X118547014Y-65835307D01*
X118508708Y-65830263D01*
X118410998Y-65817400D01*
X118318999Y-65786170D01*
X118245954Y-65722111D01*
X118202984Y-65634975D01*
X118194500Y-65570530D01*
X118194500Y-64089981D01*
X118213454Y-63994693D01*
X118267428Y-63913913D01*
X120870856Y-61310484D01*
X120878364Y-61305467D01*
X120883906Y-61298338D01*
X120918518Y-61278638D01*
X120951635Y-61256511D01*
X120968327Y-61250286D01*
X121320204Y-61133260D01*
X121416604Y-61121176D01*
X121499927Y-61142005D01*
G37*
%TD.AperFunction*%
%TA.AperFunction,Conductor*%
G36*
X136035843Y-46594454D02*
G01*
X136116625Y-46648430D01*
X136170601Y-46729212D01*
X136189555Y-46824500D01*
X136170601Y-46919788D01*
X136116625Y-47000570D01*
X136088355Y-47024890D01*
X136073441Y-47035890D01*
X135985505Y-47077197D01*
X135925641Y-47084500D01*
X134359992Y-47084500D01*
X134359830Y-47084471D01*
X134358327Y-47084500D01*
X133611583Y-47084500D01*
X133611580Y-47084500D01*
X133611571Y-47084501D01*
X133417177Y-47115290D01*
X133229975Y-47176115D01*
X133205927Y-47188368D01*
X133124928Y-47213434D01*
X133123820Y-47213577D01*
X132735403Y-47260666D01*
X132697693Y-47265964D01*
X132696861Y-47266097D01*
X132673144Y-47270180D01*
X132661801Y-47273488D01*
X132647986Y-47275307D01*
X132647919Y-47275324D01*
X132647918Y-47275325D01*
X132420010Y-47336393D01*
X132420007Y-47336394D01*
X132201956Y-47426713D01*
X132201945Y-47426718D01*
X131997559Y-47544721D01*
X131997549Y-47544727D01*
X131810301Y-47688408D01*
X131810297Y-47688411D01*
X131676070Y-47822639D01*
X131595288Y-47876615D01*
X131500000Y-47895569D01*
X131404712Y-47876615D01*
X131323930Y-47822639D01*
X131189702Y-47688411D01*
X131189699Y-47688408D01*
X131002450Y-47544727D01*
X131002440Y-47544721D01*
X130798054Y-47426718D01*
X130798043Y-47426713D01*
X130677222Y-47376667D01*
X130579993Y-47336394D01*
X130352014Y-47275307D01*
X130352007Y-47275306D01*
X130118011Y-47244500D01*
X129881989Y-47244500D01*
X129647992Y-47275306D01*
X129647990Y-47275306D01*
X129647986Y-47275307D01*
X129475640Y-47321487D01*
X129420010Y-47336393D01*
X129420007Y-47336394D01*
X129201956Y-47426713D01*
X129201945Y-47426718D01*
X128997559Y-47544721D01*
X128997549Y-47544727D01*
X128810301Y-47688408D01*
X128810297Y-47688411D01*
X128643411Y-47855297D01*
X128643408Y-47855301D01*
X128499727Y-48042549D01*
X128499721Y-48042559D01*
X128381718Y-48246945D01*
X128381713Y-48246956D01*
X128291394Y-48465007D01*
X128230307Y-48692986D01*
X128199500Y-48926989D01*
X128199500Y-49163011D01*
X128230307Y-49397014D01*
X128291394Y-49624993D01*
X128318901Y-49691400D01*
X128381713Y-49843043D01*
X128381718Y-49843054D01*
X128471529Y-49998610D01*
X128499727Y-50047450D01*
X128643408Y-50234699D01*
X128810301Y-50401592D01*
X128997550Y-50545273D01*
X128997559Y-50545278D01*
X129201945Y-50663281D01*
X129201948Y-50663282D01*
X129201951Y-50663284D01*
X129201956Y-50663286D01*
X129423656Y-50755118D01*
X129431555Y-50758551D01*
X130333378Y-51169192D01*
X130406261Y-51219735D01*
X133416172Y-54229646D01*
X133416171Y-54229646D01*
X133522883Y-54336357D01*
X133555354Y-54368828D01*
X133714595Y-54484524D01*
X133889975Y-54573884D01*
X133972826Y-54600804D01*
X134077173Y-54634709D01*
X134077175Y-54634709D01*
X134077177Y-54634710D01*
X134230088Y-54658928D01*
X134271583Y-54665500D01*
X136108009Y-54665500D01*
X136200935Y-54683490D01*
X136547456Y-54822882D01*
X137306268Y-55128123D01*
X137337835Y-55143490D01*
X137384357Y-55170350D01*
X137620882Y-55268322D01*
X137743712Y-55301233D01*
X137743713Y-55301234D01*
X137752665Y-55303632D01*
X137763708Y-55307492D01*
X137765780Y-55308110D01*
X137841786Y-55327513D01*
X137843223Y-55327898D01*
X137843226Y-55327899D01*
X137868167Y-55334582D01*
X137868171Y-55334583D01*
X138121994Y-55368000D01*
X138378006Y-55368000D01*
X138631829Y-55334583D01*
X138879118Y-55268322D01*
X139115643Y-55170350D01*
X139337357Y-55042344D01*
X139540465Y-54886493D01*
X139721493Y-54705465D01*
X139877344Y-54502357D01*
X140005350Y-54280643D01*
X140103322Y-54044118D01*
X140169583Y-53796829D01*
X140203000Y-53543006D01*
X140203000Y-53286994D01*
X140169583Y-53033171D01*
X140103322Y-52785882D01*
X140005350Y-52549357D01*
X139877344Y-52327643D01*
X139752159Y-52164500D01*
X139721497Y-52124540D01*
X139721496Y-52124539D01*
X139721493Y-52124535D01*
X139540465Y-51943507D01*
X139540460Y-51943503D01*
X139540459Y-51943502D01*
X139337367Y-51787663D01*
X139337352Y-51787653D01*
X139277937Y-51753350D01*
X139115643Y-51659650D01*
X139115641Y-51659649D01*
X139115639Y-51659648D01*
X139115635Y-51659646D01*
X138968139Y-51598551D01*
X138879118Y-51561678D01*
X138631829Y-51495417D01*
X138631824Y-51495416D01*
X138631827Y-51495416D01*
X138378006Y-51462000D01*
X138121994Y-51462000D01*
X137868174Y-51495416D01*
X137620888Y-51561676D01*
X137620882Y-51561678D01*
X137384361Y-51659647D01*
X137384352Y-51659652D01*
X137337831Y-51686510D01*
X137306263Y-51701877D01*
X136200935Y-52146510D01*
X136108008Y-52164500D01*
X134991114Y-52164500D01*
X134895826Y-52145546D01*
X134815044Y-52091570D01*
X133766759Y-51043285D01*
X133712783Y-50962503D01*
X133693829Y-50867215D01*
X133712783Y-50771927D01*
X133766759Y-50691145D01*
X133818326Y-50651577D01*
X134002450Y-50545273D01*
X134189699Y-50401592D01*
X134356592Y-50234699D01*
X134480183Y-50073631D01*
X134498777Y-50051836D01*
X134747441Y-49692193D01*
X134747999Y-49691400D01*
X134782505Y-49658457D01*
X134816744Y-49625291D01*
X134817603Y-49624950D01*
X134818273Y-49624312D01*
X134862729Y-49607094D01*
X134907083Y-49589543D01*
X134908339Y-49589429D01*
X134908870Y-49589224D01*
X134910254Y-49589256D01*
X134951772Y-49585500D01*
X135925643Y-49585500D01*
X136020931Y-49604454D01*
X136073437Y-49634106D01*
X136692573Y-50090739D01*
X136692573Y-50090740D01*
X136692577Y-50090743D01*
X136692579Y-50090744D01*
X136715570Y-50105744D01*
X136726636Y-50112963D01*
X136744093Y-50127198D01*
X136765963Y-50138621D01*
X136776048Y-50145201D01*
X136776053Y-50145204D01*
X136789207Y-50153786D01*
X136821612Y-50168231D01*
X136835502Y-50174946D01*
X136924451Y-50221409D01*
X136970406Y-50234558D01*
X136975031Y-50236620D01*
X136981970Y-50238904D01*
X137063571Y-50261216D01*
X137120082Y-50277386D01*
X137239463Y-50288000D01*
X137272472Y-50287999D01*
X137283126Y-50289225D01*
X137296979Y-50287999D01*
X139260536Y-50287999D01*
X139379918Y-50277386D01*
X139575549Y-50221409D01*
X139755907Y-50127198D01*
X139913609Y-49998609D01*
X140042198Y-49840907D01*
X140136409Y-49660549D01*
X140192386Y-49464918D01*
X140203000Y-49345537D01*
X140202999Y-47324464D01*
X140192386Y-47205082D01*
X140136409Y-47009451D01*
X140100017Y-46939782D01*
X140072701Y-46846549D01*
X140083143Y-46749957D01*
X140129754Y-46664713D01*
X140205438Y-46603795D01*
X140298674Y-46576478D01*
X140320723Y-46575500D01*
X141050500Y-46575500D01*
X141145788Y-46594454D01*
X141226570Y-46648430D01*
X141280546Y-46729212D01*
X141299500Y-46824500D01*
X141299500Y-57602137D01*
X141280546Y-57697425D01*
X141226570Y-57778207D01*
X141145788Y-57832183D01*
X141050500Y-57851137D01*
X140955212Y-57832183D01*
X140874430Y-57778207D01*
X140865126Y-57767909D01*
X140861113Y-57763896D01*
X140861109Y-57763891D01*
X140703407Y-57635302D01*
X140703402Y-57635299D01*
X140523053Y-57541093D01*
X140523052Y-57541092D01*
X140523049Y-57541091D01*
X140327418Y-57485114D01*
X140208037Y-57474500D01*
X140208035Y-57474500D01*
X138291968Y-57474500D01*
X138291956Y-57474501D01*
X138172585Y-57485113D01*
X137976954Y-57541090D01*
X137976946Y-57541093D01*
X137796596Y-57635299D01*
X137786053Y-57642249D01*
X137784372Y-57639698D01*
X137718061Y-57674858D01*
X137621343Y-57684058D01*
X137551290Y-57666386D01*
X137322212Y-57571500D01*
X137322211Y-57571499D01*
X137322207Y-57571498D01*
X137081565Y-57507018D01*
X137081558Y-57507017D01*
X136834565Y-57474500D01*
X136585435Y-57474500D01*
X136338441Y-57507017D01*
X136338439Y-57507017D01*
X136338435Y-57507018D01*
X136211266Y-57541093D01*
X136097796Y-57571497D01*
X136097793Y-57571498D01*
X135867634Y-57666832D01*
X135867630Y-57666834D01*
X135651877Y-57791398D01*
X135651872Y-57791401D01*
X135454230Y-57943056D01*
X135454220Y-57943065D01*
X135278065Y-58119220D01*
X135278056Y-58119230D01*
X135126401Y-58316872D01*
X135126399Y-58316876D01*
X135061279Y-58429667D01*
X134997220Y-58502711D01*
X134910084Y-58545682D01*
X134813137Y-58552036D01*
X134721138Y-58520806D01*
X134648094Y-58456747D01*
X134623200Y-58413618D01*
X134621891Y-58414265D01*
X134618281Y-58406945D01*
X134519875Y-58236502D01*
X134500273Y-58202550D01*
X134356592Y-58015301D01*
X134189699Y-57848408D01*
X134002450Y-57704727D01*
X134002440Y-57704721D01*
X133798054Y-57586718D01*
X133798048Y-57586715D01*
X133576381Y-57494897D01*
X133568483Y-57491464D01*
X132666619Y-57080805D01*
X132593736Y-57030262D01*
X131118184Y-55554710D01*
X129609646Y-54046172D01*
X129450405Y-53930476D01*
X129275026Y-53841116D01*
X129275023Y-53841115D01*
X129275021Y-53841114D01*
X129087823Y-53780290D01*
X128893428Y-53749501D01*
X128893419Y-53749500D01*
X128893417Y-53749500D01*
X123183416Y-53749500D01*
X122986583Y-53749500D01*
X122986580Y-53749500D01*
X122986571Y-53749501D01*
X122792176Y-53780290D01*
X122731344Y-53800055D01*
X122604976Y-53841115D01*
X122429587Y-53930480D01*
X122273181Y-54044118D01*
X122270353Y-54046172D01*
X121980167Y-54336357D01*
X121905242Y-54387819D01*
X120945257Y-54814555D01*
X120945042Y-54814652D01*
X120926529Y-54822882D01*
X120903900Y-54828946D01*
X120679788Y-54921776D01*
X120577000Y-54981120D01*
X120566136Y-54986515D01*
X120566108Y-54986528D01*
X120555233Y-54991930D01*
X120553512Y-54992877D01*
X120508075Y-55020076D01*
X120491714Y-55029870D01*
X120491711Y-55029871D01*
X120484393Y-55034253D01*
X120484390Y-55034248D01*
X120478486Y-55037997D01*
X120469716Y-55043060D01*
X120381580Y-55110689D01*
X120294444Y-55153659D01*
X120197497Y-55160013D01*
X120105498Y-55128783D01*
X120078428Y-55110695D01*
X119990289Y-55043064D01*
X119990283Y-55043060D01*
X119990281Y-55043059D01*
X119990279Y-55043058D01*
X119780217Y-54921778D01*
X119780201Y-54921770D01*
X119556105Y-54828948D01*
X119556103Y-54828947D01*
X119556100Y-54828946D01*
X119556096Y-54828945D01*
X119556082Y-54828940D01*
X119321795Y-54766163D01*
X119321790Y-54766162D01*
X119081288Y-54734500D01*
X118838712Y-54734500D01*
X118598209Y-54766162D01*
X118598204Y-54766163D01*
X118363917Y-54828940D01*
X118363894Y-54828948D01*
X118139798Y-54921770D01*
X118139782Y-54921778D01*
X117929720Y-55043058D01*
X117929710Y-55043064D01*
X117737268Y-55190729D01*
X117737258Y-55190738D01*
X117565738Y-55362258D01*
X117565729Y-55362268D01*
X117418064Y-55554710D01*
X117418058Y-55554720D01*
X117296778Y-55764782D01*
X117296770Y-55764798D01*
X117203948Y-55988894D01*
X117203940Y-55988917D01*
X117141163Y-56223204D01*
X117141162Y-56223209D01*
X117109500Y-56463712D01*
X117109500Y-56706287D01*
X117141162Y-56946790D01*
X117141163Y-56946795D01*
X117203940Y-57181082D01*
X117203948Y-57181105D01*
X117296769Y-57405199D01*
X117296773Y-57405205D01*
X117296776Y-57405212D01*
X117306867Y-57422690D01*
X117338096Y-57514686D01*
X117331742Y-57611633D01*
X117288772Y-57698769D01*
X117284210Y-57704536D01*
X117270300Y-57721595D01*
X117270299Y-57721596D01*
X117176093Y-57901946D01*
X117176090Y-57901954D01*
X117143658Y-58015301D01*
X117120114Y-58097582D01*
X117109500Y-58216963D01*
X117109500Y-59949244D01*
X117107498Y-59967964D01*
X117107451Y-59976919D01*
X117109500Y-59999691D01*
X117109500Y-60033037D01*
X117120113Y-60152414D01*
X117122275Y-60164048D01*
X117119513Y-60164561D01*
X117125854Y-60241368D01*
X117096185Y-60333882D01*
X117054540Y-60389116D01*
X116625570Y-60818087D01*
X116544788Y-60872064D01*
X116449500Y-60891018D01*
X116354212Y-60872064D01*
X116273431Y-60818088D01*
X116219454Y-60737306D01*
X116200500Y-60642018D01*
X116200500Y-46824500D01*
X116219454Y-46729212D01*
X116273430Y-46648430D01*
X116354212Y-46594454D01*
X116449500Y-46575500D01*
X135940555Y-46575500D01*
X136035843Y-46594454D01*
G37*
%TD.AperFunction*%
%TD*%
%TA.AperFunction,Conductor*%
%TO.N,+3.3V*%
G36*
X121310405Y-59086632D02*
G01*
X121493021Y-59122772D01*
X121500472Y-59127739D01*
X121502227Y-59131978D01*
X121663824Y-59948549D01*
X121662069Y-59957330D01*
X121656039Y-59961922D01*
X120387033Y-60383962D01*
X120378101Y-60383321D01*
X120375068Y-60381133D01*
X120243866Y-60249931D01*
X120240439Y-60241658D01*
X120241037Y-60237966D01*
X120663078Y-58968957D01*
X120668939Y-58962191D01*
X120676449Y-58961175D01*
X121310405Y-59086632D01*
G37*
%TD.AperFunction*%
%TD*%
%TA.AperFunction,Conductor*%
%TO.N,+3.3V*%
G36*
X126484960Y-64631415D02*
G01*
X126485872Y-64633054D01*
X127108915Y-66001339D01*
X127109225Y-66010289D01*
X127106540Y-66014461D01*
X126764461Y-66356540D01*
X126756188Y-66359967D01*
X126751339Y-66358915D01*
X125383054Y-65735872D01*
X125376945Y-65729325D01*
X125377255Y-65720375D01*
X125378163Y-65718742D01*
X125812994Y-65066241D01*
X125816242Y-65062994D01*
X126468737Y-64628166D01*
X126477521Y-64626431D01*
X126484960Y-64631415D01*
G37*
%TD.AperFunction*%
%TD*%
%TA.AperFunction,Conductor*%
%TO.N,+3.3V*%
G36*
X128776649Y-67668140D02*
G01*
X130063712Y-67838733D01*
X130071462Y-67843218D01*
X130073773Y-67851869D01*
X130073652Y-67852603D01*
X129921650Y-68620938D01*
X129916682Y-68628388D01*
X129916660Y-68628403D01*
X129263755Y-69063503D01*
X129254970Y-69065239D01*
X129248125Y-69061069D01*
X128423913Y-68029112D01*
X128421428Y-68020509D01*
X128424781Y-68013538D01*
X128766853Y-67671466D01*
X128775125Y-67668040D01*
X128776649Y-67668140D01*
G37*
%TD.AperFunction*%
%TD*%
%TA.AperFunction,Conductor*%
%TO.N,+3.3V*%
G36*
X122211429Y-58663706D02*
G01*
X122212384Y-58665442D01*
X122864044Y-60131412D01*
X122864273Y-60140364D01*
X122861626Y-60144438D01*
X122519438Y-60486626D01*
X122511165Y-60490053D01*
X122506412Y-60489044D01*
X121040442Y-59837384D01*
X121034275Y-59830892D01*
X121034504Y-59821940D01*
X121035454Y-59820211D01*
X121497995Y-59126239D01*
X121501239Y-59122995D01*
X122195205Y-58660458D01*
X122203989Y-58658722D01*
X122211429Y-58663706D01*
G37*
%TD.AperFunction*%
%TD*%
%TA.AperFunction,Conductor*%
%TO.N,+3.3V*%
G36*
X130869461Y-67333459D02*
G01*
X131211540Y-67675538D01*
X131214967Y-67683811D01*
X131213915Y-67688660D01*
X130590872Y-69056945D01*
X130584325Y-69063054D01*
X130575375Y-69062744D01*
X130573736Y-69061832D01*
X129921242Y-68627005D01*
X129917994Y-68623757D01*
X129483167Y-67971263D01*
X129481431Y-67962478D01*
X129486415Y-67955039D01*
X129488047Y-67954130D01*
X130856340Y-67331083D01*
X130865289Y-67330774D01*
X130869461Y-67333459D01*
G37*
%TD.AperFunction*%
%TD*%
%TA.AperFunction,Conductor*%
%TO.N,+3.3V*%
G36*
X117195632Y-71556906D02*
G01*
X118340852Y-71897334D01*
X118347806Y-71902976D01*
X118348994Y-71910829D01*
X118196525Y-72678320D01*
X118191552Y-72685767D01*
X118187317Y-72687518D01*
X117420565Y-72839057D01*
X117411785Y-72837299D01*
X117407168Y-72831187D01*
X116998961Y-71571727D01*
X116999670Y-71562802D01*
X117006484Y-71556991D01*
X117010091Y-71556421D01*
X117192298Y-71556421D01*
X117195632Y-71556906D01*
G37*
%TD.AperFunction*%
%TD*%
%TA.AperFunction,Conductor*%
%TO.N,+3.3V*%
G36*
X126065159Y-63483799D02*
G01*
X126067844Y-63487971D01*
X126594809Y-64896053D01*
X126594499Y-64905003D01*
X126587952Y-64911112D01*
X126586148Y-64911626D01*
X125817297Y-65065540D01*
X125812703Y-65065540D01*
X125043851Y-64911626D01*
X125036412Y-64906642D01*
X125034676Y-64897857D01*
X125035190Y-64896053D01*
X125562156Y-63487971D01*
X125568265Y-63481424D01*
X125573114Y-63480372D01*
X126056886Y-63480372D01*
X126065159Y-63483799D01*
G37*
%TD.AperFunction*%
%TD*%
%TA.AperFunction,Conductor*%
%TO.N,+3.3V*%
G36*
X137578991Y-59547837D02*
G01*
X137586431Y-59552820D01*
X137588169Y-59561605D01*
X137587583Y-59563596D01*
X136962919Y-61150293D01*
X136956699Y-61156736D01*
X136952032Y-61157707D01*
X136467968Y-61157707D01*
X136459695Y-61154280D01*
X136457081Y-61150293D01*
X135832416Y-59563593D01*
X135832574Y-59554643D01*
X135839017Y-59548423D01*
X135841003Y-59547838D01*
X136707706Y-59374459D01*
X136712294Y-59374459D01*
X137578991Y-59547837D01*
G37*
%TD.AperFunction*%
%TD*%
%TA.AperFunction,Conductor*%
%TO.N,Net-(U2-THR)*%
G36*
X126484960Y-69711415D02*
G01*
X126485872Y-69713054D01*
X127108915Y-71081339D01*
X127109225Y-71090289D01*
X127106540Y-71094461D01*
X126764461Y-71436540D01*
X126756188Y-71439967D01*
X126751339Y-71438915D01*
X125383054Y-70815872D01*
X125376945Y-70809325D01*
X125377255Y-70800375D01*
X125378163Y-70798742D01*
X125812994Y-70146241D01*
X125816242Y-70142994D01*
X126468737Y-69708166D01*
X126477521Y-69706431D01*
X126484960Y-69711415D01*
G37*
%TD.AperFunction*%
%TD*%
%TA.AperFunction,Conductor*%
%TO.N,Net-(U2-THR)*%
G36*
X124878658Y-68851083D02*
G01*
X125647728Y-69201276D01*
X126246945Y-69474127D01*
X126253054Y-69480674D01*
X126252744Y-69489624D01*
X126251832Y-69491263D01*
X125817005Y-70143757D01*
X125813757Y-70147005D01*
X125161263Y-70581832D01*
X125152478Y-70583568D01*
X125145039Y-70578584D01*
X125144127Y-70576945D01*
X124649020Y-69489624D01*
X124521083Y-69208659D01*
X124520774Y-69199710D01*
X124523457Y-69195540D01*
X124865539Y-68853458D01*
X124873811Y-68850032D01*
X124878658Y-68851083D01*
G37*
%TD.AperFunction*%
%TD*%
%TA.AperFunction,Conductor*%
%TO.N,Net-(U2-THR)*%
G36*
X129760003Y-70845500D02*
G01*
X129766112Y-70852047D01*
X129766626Y-70853851D01*
X129920540Y-71622703D01*
X129920540Y-71627297D01*
X129766626Y-72396148D01*
X129761642Y-72403587D01*
X129752857Y-72405323D01*
X129751053Y-72404809D01*
X128342971Y-71877843D01*
X128336424Y-71871734D01*
X128335372Y-71866885D01*
X128335372Y-71383114D01*
X128338799Y-71374841D01*
X128342971Y-71372156D01*
X129751053Y-70845190D01*
X129760003Y-70845500D01*
G37*
%TD.AperFunction*%
%TD*%
%TA.AperFunction,Conductor*%
%TO.N,Net-(U2-THR)*%
G36*
X130374073Y-70965860D02*
G01*
X131416626Y-71620255D01*
X131557781Y-71708856D01*
X131562966Y-71716157D01*
X131561471Y-71724986D01*
X131559834Y-71727039D01*
X131218755Y-72068118D01*
X131213819Y-72071059D01*
X130088371Y-72405968D01*
X130079464Y-72405043D01*
X130073820Y-72398091D01*
X130073560Y-72397045D01*
X130007895Y-72068118D01*
X129920244Y-71629057D01*
X129921984Y-71620275D01*
X130358135Y-70969257D01*
X130365586Y-70964293D01*
X130374073Y-70965860D01*
G37*
%TD.AperFunction*%
%TD*%
%TA.AperFunction,Conductor*%
%TO.N,Net-(U2-THR)*%
G36*
X118363946Y-66825190D02*
G01*
X119772029Y-67352156D01*
X119778576Y-67358265D01*
X119779628Y-67363114D01*
X119779628Y-67846885D01*
X119776201Y-67855158D01*
X119772029Y-67857843D01*
X118363946Y-68384809D01*
X118354996Y-68384499D01*
X118348887Y-68377952D01*
X118348373Y-68376148D01*
X118194459Y-67607292D01*
X118194459Y-67602707D01*
X118348373Y-66833849D01*
X118353357Y-66826412D01*
X118362142Y-66824676D01*
X118363946Y-66825190D01*
G37*
%TD.AperFunction*%
%TD*%
%TA.AperFunction,Conductor*%
%TO.N,Net-(U2-THR)*%
G36*
X134126395Y-74269214D02*
G01*
X135432940Y-74953790D01*
X135438678Y-74960665D01*
X135437874Y-74969584D01*
X135437246Y-74970642D01*
X135003403Y-75621660D01*
X134995964Y-75626644D01*
X134995938Y-75626650D01*
X134225006Y-75779166D01*
X134216225Y-75777409D01*
X134211825Y-75771913D01*
X133767975Y-74625883D01*
X133768182Y-74616931D01*
X133770609Y-74613388D01*
X134112693Y-74271304D01*
X134120965Y-74267878D01*
X134126395Y-74269214D01*
G37*
%TD.AperFunction*%
%TD*%
%TA.AperFunction,Conductor*%
%TO.N,/Aout*%
G36*
X116784514Y-77593622D02*
G01*
X118531249Y-78220855D01*
X118537877Y-78226877D01*
X118538307Y-78235821D01*
X118538109Y-78236334D01*
X118172562Y-79121215D01*
X118166236Y-79127553D01*
X118166215Y-79127562D01*
X117281334Y-79493109D01*
X117272379Y-79493100D01*
X117266053Y-79486762D01*
X117265855Y-79486249D01*
X116638623Y-77739517D01*
X116639053Y-77730575D01*
X116641359Y-77727295D01*
X116772293Y-77596361D01*
X116780565Y-77592935D01*
X116784514Y-77593622D01*
G37*
%TD.AperFunction*%
%TD*%
%TA.AperFunction,Conductor*%
%TO.N,/Aout*%
G36*
X118352512Y-85028427D02*
G01*
X118353513Y-85029567D01*
X119015406Y-85890086D01*
X119017734Y-85898733D01*
X119014411Y-85905486D01*
X118302419Y-86618457D01*
X118294148Y-86621890D01*
X118286678Y-86619202D01*
X117522040Y-85986054D01*
X117517853Y-85978138D01*
X117519765Y-85970556D01*
X118146527Y-85030211D01*
X118153967Y-85025227D01*
X118156263Y-85025000D01*
X118344239Y-85025000D01*
X118352512Y-85028427D01*
G37*
%TD.AperFunction*%
%TD*%
%TA.AperFunction,Conductor*%
%TO.N,/Aout*%
G36*
X118176507Y-82378357D02*
G01*
X118633280Y-82684250D01*
X118827127Y-82814066D01*
X118832095Y-82821516D01*
X118831383Y-82828368D01*
X118353029Y-83952509D01*
X118346636Y-83958780D01*
X118342263Y-83959628D01*
X118156823Y-83959628D01*
X118148550Y-83956201D01*
X118146640Y-83953690D01*
X117510168Y-82828900D01*
X117509076Y-82820012D01*
X117513840Y-82813417D01*
X118163491Y-82378358D01*
X118172271Y-82376602D01*
X118176507Y-82378357D01*
G37*
%TD.AperFunction*%
%TD*%
%TA.AperFunction,Conductor*%
%TO.N,/Aout*%
G36*
X118178268Y-79132278D02*
G01*
X118178278Y-79132288D01*
X118989625Y-79944616D01*
X118993047Y-79952891D01*
X118990721Y-79959885D01*
X118273508Y-80920301D01*
X118265814Y-80924879D01*
X118264135Y-80925000D01*
X118075865Y-80925000D01*
X118067592Y-80921573D01*
X118066491Y-80920301D01*
X117349278Y-79959885D01*
X117347073Y-79951205D01*
X117350372Y-79944618D01*
X118161722Y-79132287D01*
X118169993Y-79128856D01*
X118178268Y-79132278D01*
G37*
%TD.AperFunction*%
%TD*%
%TA.AperFunction,Conductor*%
%TO.N,/Aout*%
G36*
X118271014Y-80793799D02*
G01*
X118273224Y-80796876D01*
X118830614Y-81921342D01*
X118831218Y-81930276D01*
X118826641Y-81936259D01*
X118176510Y-82371640D01*
X118167729Y-82373397D01*
X118163490Y-82371640D01*
X117513358Y-81936259D01*
X117508390Y-81928809D01*
X117509385Y-81921342D01*
X118066776Y-80796876D01*
X118073521Y-80790985D01*
X118077259Y-80790372D01*
X118262741Y-80790372D01*
X118271014Y-80793799D01*
G37*
%TD.AperFunction*%
%TD*%
%TA.AperFunction,Conductor*%
%TO.N,/Aout*%
G36*
X118967326Y-59134219D02*
G01*
X118968678Y-59135841D01*
X119363177Y-59707375D01*
X119541042Y-59965059D01*
X119542921Y-59973814D01*
X119538059Y-59981334D01*
X119537749Y-59981541D01*
X118483566Y-60660677D01*
X118474756Y-60662276D01*
X118468957Y-60659114D01*
X118335880Y-60526037D01*
X118333320Y-60522185D01*
X118112937Y-59982196D01*
X118112984Y-59973241D01*
X118115494Y-59969505D01*
X118950781Y-59134218D01*
X118959053Y-59130792D01*
X118967326Y-59134219D01*
G37*
%TD.AperFunction*%
%TD*%
%TA.AperFunction,Conductor*%
%TO.N,Net-(U2-DIS)*%
G36*
X126484960Y-67171415D02*
G01*
X126485872Y-67173054D01*
X127108915Y-68541339D01*
X127109225Y-68550289D01*
X127106540Y-68554461D01*
X126764461Y-68896540D01*
X126756188Y-68899967D01*
X126751339Y-68898915D01*
X125383054Y-68275872D01*
X125376945Y-68269325D01*
X125377255Y-68260375D01*
X125378163Y-68258742D01*
X125812994Y-67606241D01*
X125816242Y-67602994D01*
X126468737Y-67168166D01*
X126477521Y-67166431D01*
X126484960Y-67171415D01*
G37*
%TD.AperFunction*%
%TD*%
%TA.AperFunction,Conductor*%
%TO.N,Net-(U2-DIS)*%
G36*
X140851149Y-68778373D02*
G01*
X140858587Y-68783357D01*
X140860323Y-68792142D01*
X140859809Y-68793946D01*
X140332844Y-70202029D01*
X140326735Y-70208576D01*
X140321886Y-70209628D01*
X139838114Y-70209628D01*
X139829841Y-70206201D01*
X139827156Y-70202029D01*
X139300190Y-68793946D01*
X139300500Y-68784996D01*
X139307047Y-68778887D01*
X139308842Y-68778375D01*
X140077707Y-68624459D01*
X140082293Y-68624459D01*
X140851149Y-68778373D01*
G37*
%TD.AperFunction*%
%TD*%
%TA.AperFunction,Conductor*%
%TO.N,Net-(U2-DIS)*%
G36*
X140330159Y-70043799D02*
G01*
X140332844Y-70047971D01*
X140859809Y-71456053D01*
X140859499Y-71465003D01*
X140852952Y-71471112D01*
X140851148Y-71471626D01*
X140082297Y-71625540D01*
X140077703Y-71625540D01*
X139308851Y-71471626D01*
X139301412Y-71466642D01*
X139299676Y-71457857D01*
X139300190Y-71456053D01*
X139827156Y-70047971D01*
X139833265Y-70041424D01*
X139838114Y-70040372D01*
X140321886Y-70040372D01*
X140330159Y-70043799D01*
G37*
%TD.AperFunction*%
%TD*%
%TA.AperFunction,Conductor*%
%TO.N,Net-(U2-DIS)*%
G36*
X139143658Y-70331083D02*
G01*
X139912728Y-70681276D01*
X140511945Y-70954127D01*
X140518054Y-70960674D01*
X140517744Y-70969624D01*
X140516832Y-70971263D01*
X140082005Y-71623757D01*
X140078757Y-71627005D01*
X139426263Y-72061832D01*
X139417478Y-72063568D01*
X139410039Y-72058584D01*
X139409127Y-72056945D01*
X138914020Y-70969624D01*
X138786083Y-70688659D01*
X138785774Y-70679710D01*
X138788457Y-70675540D01*
X139130539Y-70333458D01*
X139138811Y-70330032D01*
X139143658Y-70331083D01*
G37*
%TD.AperFunction*%
%TD*%
%TA.AperFunction,Conductor*%
%TO.N,/Out*%
G36*
X118864960Y-69711415D02*
G01*
X118865872Y-69713054D01*
X119488915Y-71081339D01*
X119489225Y-71090289D01*
X119486540Y-71094461D01*
X119144461Y-71436540D01*
X119136188Y-71439967D01*
X119131339Y-71438915D01*
X117763054Y-70815872D01*
X117756945Y-70809325D01*
X117757255Y-70800375D01*
X117758163Y-70798742D01*
X118192994Y-70146241D01*
X118196242Y-70142994D01*
X118848737Y-69708166D01*
X118857521Y-69706431D01*
X118864960Y-69711415D01*
G37*
%TD.AperFunction*%
%TD*%
%TA.AperFunction,Conductor*%
%TO.N,/Out*%
G36*
X119119461Y-74583459D02*
G01*
X119461540Y-74925538D01*
X119464967Y-74933811D01*
X119463915Y-74938660D01*
X118840872Y-76306945D01*
X118834325Y-76313054D01*
X118825375Y-76312744D01*
X118823736Y-76311832D01*
X118171242Y-75877005D01*
X118167994Y-75873757D01*
X117733167Y-75221263D01*
X117731431Y-75212478D01*
X117736415Y-75205039D01*
X117738047Y-75204130D01*
X119106340Y-74581083D01*
X119115289Y-74580774D01*
X119119461Y-74583459D01*
G37*
%TD.AperFunction*%
%TD*%
%TA.AperFunction,Conductor*%
%TO.N,/LED_G*%
G36*
X124218771Y-55756310D02*
G01*
X125716167Y-56332115D01*
X125722658Y-56338282D01*
X125723667Y-56343035D01*
X125723667Y-56826964D01*
X125720240Y-56835237D01*
X125716166Y-56837884D01*
X124218776Y-57413687D01*
X124209824Y-57413458D01*
X124203657Y-57406966D01*
X124203106Y-57405070D01*
X124039459Y-56587293D01*
X124039459Y-56582704D01*
X124088371Y-56338282D01*
X124203105Y-55764934D01*
X124208088Y-55757496D01*
X124216873Y-55755759D01*
X124218771Y-55756310D01*
G37*
%TD.AperFunction*%
%TD*%
%TA.AperFunction,Conductor*%
%TO.N,/LED_G*%
G36*
X129063658Y-57911083D02*
G01*
X129832728Y-58261276D01*
X130431945Y-58534127D01*
X130438054Y-58540674D01*
X130437744Y-58549624D01*
X130436832Y-58551263D01*
X130002005Y-59203757D01*
X129998757Y-59207005D01*
X129346263Y-59641832D01*
X129337478Y-59643568D01*
X129330039Y-59638584D01*
X129329127Y-59636945D01*
X128834020Y-58549624D01*
X128706083Y-58268659D01*
X128705774Y-58259710D01*
X128708457Y-58255540D01*
X129050539Y-57913458D01*
X129058811Y-57910032D01*
X129063658Y-57911083D01*
G37*
%TD.AperFunction*%
%TD*%
%TA.AperFunction,Conductor*%
%TO.N,/LED_R*%
G36*
X132063658Y-57911083D02*
G01*
X132832728Y-58261276D01*
X133431945Y-58534127D01*
X133438054Y-58540674D01*
X133437744Y-58549624D01*
X133436832Y-58551263D01*
X133002005Y-59203757D01*
X132998757Y-59207005D01*
X132346263Y-59641832D01*
X132337478Y-59643568D01*
X132330039Y-59638584D01*
X132329127Y-59636945D01*
X131834020Y-58549624D01*
X131706083Y-58268659D01*
X131705774Y-58259710D01*
X131708457Y-58255540D01*
X132050539Y-57913458D01*
X132058811Y-57910032D01*
X132063658Y-57911083D01*
G37*
%TD.AperFunction*%
%TD*%
%TA.AperFunction,Conductor*%
%TO.N,/LED_R*%
G36*
X122519438Y-55223373D02*
G01*
X122861626Y-55565561D01*
X122865053Y-55573834D01*
X122864044Y-55578587D01*
X122212384Y-57044557D01*
X122205892Y-57050724D01*
X122196940Y-57050495D01*
X122195204Y-57049540D01*
X121501241Y-56587005D01*
X121497994Y-56583758D01*
X121035459Y-55889795D01*
X121033722Y-55881010D01*
X121038706Y-55873570D01*
X121040434Y-55872618D01*
X122506413Y-55220954D01*
X122515364Y-55220726D01*
X122519438Y-55223373D01*
G37*
%TD.AperFunction*%
%TD*%
%TA.AperFunction,Conductor*%
%TO.N,Net-(LED1-Pad1)*%
G36*
X137304617Y-47389610D02*
G01*
X138242714Y-48326723D01*
X138246145Y-48334994D01*
X138242722Y-48343269D01*
X138242714Y-48343277D01*
X137304617Y-49280389D01*
X137296342Y-49283812D01*
X137289403Y-49281528D01*
X136349755Y-48588506D01*
X136345131Y-48580838D01*
X136345000Y-48579090D01*
X136345000Y-48090909D01*
X136348427Y-48082636D01*
X136349755Y-48081493D01*
X137289404Y-47388470D01*
X137298096Y-47386318D01*
X137304617Y-47389610D01*
G37*
%TD.AperFunction*%
%TD*%
%TA.AperFunction,Conductor*%
%TO.N,Net-(LED1-Pad1)*%
G36*
X134286054Y-48088995D02*
G01*
X134290452Y-48096796D01*
X134290537Y-48098204D01*
X134290537Y-48581348D01*
X134288461Y-48588002D01*
X133671720Y-49479990D01*
X133664196Y-49484846D01*
X133655603Y-49483069D01*
X133003042Y-49047697D01*
X132998062Y-49040257D01*
X132846371Y-48272735D01*
X132848129Y-48263957D01*
X132855581Y-48258991D01*
X132856413Y-48258858D01*
X134277429Y-48086589D01*
X134286054Y-48088995D01*
G37*
%TD.AperFunction*%
%TD*%
%TA.AperFunction,Conductor*%
%TO.N,Net-(LED1-Pad3)*%
G36*
X130669960Y-48611415D02*
G01*
X130670872Y-48613054D01*
X131293915Y-49981339D01*
X131294225Y-49990289D01*
X131291540Y-49994461D01*
X130949461Y-50336540D01*
X130941188Y-50339967D01*
X130936339Y-50338915D01*
X129568054Y-49715872D01*
X129561945Y-49709325D01*
X129562255Y-49700375D01*
X129563163Y-49698742D01*
X129997994Y-49046241D01*
X130001242Y-49042994D01*
X130653737Y-48608166D01*
X130662521Y-48606431D01*
X130669960Y-48611415D01*
G37*
%TD.AperFunction*%
%TD*%
%TA.AperFunction,Conductor*%
%TO.N,Net-(LED1-Pad3)*%
G36*
X138060054Y-52486153D02*
G01*
X138066321Y-52492550D01*
X138066939Y-52494622D01*
X138250541Y-53412706D01*
X138250541Y-53417294D01*
X138066939Y-54335377D01*
X138061956Y-54342818D01*
X138053172Y-54344556D01*
X138051100Y-54343938D01*
X136370636Y-53667950D01*
X136364239Y-53661683D01*
X136363302Y-53657095D01*
X136363302Y-53172904D01*
X136366729Y-53164631D01*
X136370632Y-53162051D01*
X138051102Y-52486061D01*
X138060054Y-52486153D01*
G37*
%TD.AperFunction*%
%TD*%
%TA.AperFunction,Conductor*%
%TO.N,Net-(LED2-K)*%
G36*
X139502669Y-64385669D02*
G01*
X140513445Y-64953637D01*
X140518978Y-64960677D01*
X140517913Y-64969569D01*
X140517446Y-64970330D01*
X140082697Y-65621957D01*
X140075255Y-65626937D01*
X140075246Y-65626939D01*
X140075232Y-65626942D01*
X139306698Y-65778833D01*
X139297918Y-65777075D01*
X139292983Y-65769775D01*
X139262781Y-65626942D01*
X139167011Y-65174016D01*
X139002986Y-64398289D01*
X139004627Y-64389486D01*
X139012013Y-64384422D01*
X139014433Y-64384169D01*
X139496937Y-64384169D01*
X139502669Y-64385669D01*
G37*
%TD.AperFunction*%
%TD*%
%TA.AperFunction,Conductor*%
%TO.N,Net-(LED2-K)*%
G36*
X139258269Y-59382278D02*
G01*
X139258278Y-59382287D01*
X140142962Y-60267954D01*
X140146384Y-60276229D01*
X140144169Y-60283073D01*
X139503503Y-61170150D01*
X139495881Y-61174851D01*
X139494018Y-61175000D01*
X139005982Y-61175000D01*
X138997709Y-61171573D01*
X138996497Y-61170150D01*
X138355830Y-60283073D01*
X138353764Y-60274360D01*
X138357035Y-60267956D01*
X139241722Y-59382286D01*
X139249994Y-59378856D01*
X139258269Y-59382278D01*
G37*
%TD.AperFunction*%
%TD*%
M02*
