M48
; DRILL file {KiCad 9.0.4} date 2026-03-03T00:13:07+1100
; FORMAT={-:-/ absolute / metric / decimal}
; #@! TF.CreationDate,2026-03-03T00:13:07+11:00
; #@! TF.GenerationSoftware,Kicad,Pcbnew,9.0.4
; #@! TF.FileFunction,Plated,1,2,PTH
FMAT,2
METRIC
; #@! TA.AperFunction,Plated,PTH,ComponentDrill
T1C0.800
; #@! TA.AperFunction,Plated,PTH,ComponentDrill
T2C0.900
; #@! TA.AperFunction,Plated,PTH,ComponentDrill
T3C1.000
; #@! TA.AperFunction,Plated,PTH,ComponentDrill
T4C1.397
%
G90
G05
T1
X118.17Y-75.875
X118.17Y-82.375
X118.195Y-65.065
X118.195Y-67.605
X118.195Y-70.145
X118.195Y-72.685
X118.295Y-86.625
X120.795Y-86.625
X125.815Y-65.065
X125.815Y-67.605
X125.815Y-70.145
X125.815Y-72.685
X128.33Y-75.875
X128.33Y-82.375
X129.92Y-65.625
X129.92Y-68.625
X129.92Y-71.625
X130.0Y-49.045
X130.0Y-59.205
X133.0Y-49.045
X133.0Y-59.205
X135.0Y-75.625
X140.0Y-75.625
X140.08Y-65.625
X140.08Y-68.625
X140.08Y-71.625
T2
X118.17Y-79.125
X128.33Y-79.125
X136.71Y-59.375
X139.25Y-59.375
T3
X118.96Y-56.585
X118.96Y-59.125
X121.5Y-56.585
X121.5Y-59.125
X124.04Y-56.585
X124.04Y-59.125
T4
X138.25Y-48.335
X138.25Y-50.875
X138.25Y-53.415
M30
