%TF.GenerationSoftware,KiCad,Pcbnew,9.0.4*%
%TF.CreationDate,2026-03-03T00:13:07+11:00*%
%TF.ProjectId,SMEE-DESIGNPROJECT,534d4545-2d44-4455-9349-474e50524f4a,1*%
%TF.SameCoordinates,Original*%
%TF.FileFunction,Drillmap*%
%TF.FilePolarity,Positive*%
%FSLAX45Y45*%
G04 Gerber Fmt 4.5, Leading zero omitted, Abs format (unit mm)*
G04 Created by KiCad (PCBNEW 9.0.4) date 2026-03-03 00:13:07*
%MOMM*%
%LPD*%
G01*
G04 APERTURE LIST*
%ADD10C,0.050000*%
%ADD11C,0.200000*%
%ADD12C,0.100000*%
%ADD13C,0.139700*%
G04 APERTURE END LIST*
D10*
X11600000Y-4637500D02*
X11600000Y-14362500D01*
X12875000Y-15637500D02*
X11600000Y-14362500D01*
X14150000Y-4637500D02*
X11600000Y-4637500D01*
X14150000Y-14362500D02*
X14150000Y-4637500D01*
X12875000Y-15637500D02*
X14150000Y-14362500D01*
D11*
D12*
X11777000Y-7547500D02*
X11857000Y-7627500D01*
X11857000Y-7547500D02*
X11777000Y-7627500D01*
X11777000Y-8197500D02*
X11857000Y-8277500D01*
X11857000Y-8197500D02*
X11777000Y-8277500D01*
X11779500Y-6466500D02*
X11859500Y-6546500D01*
X11859500Y-6466500D02*
X11779500Y-6546500D01*
X11779500Y-6720500D02*
X11859500Y-6800500D01*
X11859500Y-6720500D02*
X11779500Y-6800500D01*
X11779500Y-6974500D02*
X11859500Y-7054500D01*
X11859500Y-6974500D02*
X11779500Y-7054500D01*
X11779500Y-7228500D02*
X11859500Y-7308500D01*
X11859500Y-7228500D02*
X11779500Y-7308500D01*
X11789489Y-8622500D02*
X11869489Y-8702500D01*
X11869489Y-8622500D02*
X11789489Y-8702500D01*
X12039489Y-8622500D02*
X12119489Y-8702500D01*
X12119489Y-8622500D02*
X12039489Y-8702500D01*
X12541500Y-6466500D02*
X12621500Y-6546500D01*
X12621500Y-6466500D02*
X12541500Y-6546500D01*
X12541500Y-6720500D02*
X12621500Y-6800500D01*
X12621500Y-6720500D02*
X12541500Y-6800500D01*
X12541500Y-6974500D02*
X12621500Y-7054500D01*
X12621500Y-6974500D02*
X12541500Y-7054500D01*
X12541500Y-7228500D02*
X12621500Y-7308500D01*
X12621500Y-7228500D02*
X12541500Y-7308500D01*
X12793000Y-7547500D02*
X12873000Y-7627500D01*
X12873000Y-7547500D02*
X12793000Y-7627500D01*
X12793000Y-8197500D02*
X12873000Y-8277500D01*
X12873000Y-8197500D02*
X12793000Y-8277500D01*
X12952000Y-6522500D02*
X13032000Y-6602500D01*
X13032000Y-6522500D02*
X12952000Y-6602500D01*
X12952000Y-6822500D02*
X13032000Y-6902500D01*
X13032000Y-6822500D02*
X12952000Y-6902500D01*
X12952000Y-7122500D02*
X13032000Y-7202500D01*
X13032000Y-7122500D02*
X12952000Y-7202500D01*
X12960000Y-4864500D02*
X13040000Y-4944500D01*
X13040000Y-4864500D02*
X12960000Y-4944500D01*
X12960000Y-5880500D02*
X13040000Y-5960500D01*
X13040000Y-5880500D02*
X12960000Y-5960500D01*
X13260000Y-4864500D02*
X13340000Y-4944500D01*
X13340000Y-4864500D02*
X13260000Y-4944500D01*
X13260000Y-5880500D02*
X13340000Y-5960500D01*
X13340000Y-5880500D02*
X13260000Y-5960500D01*
X13460000Y-7522500D02*
X13540000Y-7602500D01*
X13540000Y-7522500D02*
X13460000Y-7602500D01*
X13960000Y-7522500D02*
X14040000Y-7602500D01*
X14040000Y-7522500D02*
X13960000Y-7602500D01*
X13968000Y-6522500D02*
X14048000Y-6602500D01*
X14048000Y-6522500D02*
X13968000Y-6602500D01*
X13968000Y-6822500D02*
X14048000Y-6902500D01*
X14048000Y-6822500D02*
X13968000Y-6902500D01*
X13968000Y-7122500D02*
X14048000Y-7202500D01*
X14048000Y-7122500D02*
X13968000Y-7202500D01*
X11862000Y-7912500D02*
G75*
G02*
X11772000Y-7912500I-45000J0D01*
G01*
X11772000Y-7912500D02*
G75*
G02*
X11862000Y-7912500I45000J0D01*
G01*
X12878000Y-7912500D02*
G75*
G02*
X12788000Y-7912500I-45000J0D01*
G01*
X12788000Y-7912500D02*
G75*
G02*
X12878000Y-7912500I45000J0D01*
G01*
X13716000Y-5937500D02*
G75*
G02*
X13626000Y-5937500I-45000J0D01*
G01*
X13626000Y-5937500D02*
G75*
G02*
X13716000Y-5937500I45000J0D01*
G01*
X13970000Y-5937500D02*
G75*
G02*
X13880000Y-5937500I-45000J0D01*
G01*
X13880000Y-5937500D02*
G75*
G02*
X13970000Y-5937500I45000J0D01*
G01*
X11896000Y-5608500D02*
X11896000Y-5708500D01*
X11846000Y-5658500D02*
X11946000Y-5658500D01*
X11896000Y-5862500D02*
X11896000Y-5962500D01*
X11846000Y-5912500D02*
X11946000Y-5912500D01*
X12150000Y-5608500D02*
X12150000Y-5708500D01*
X12100000Y-5658500D02*
X12200000Y-5658500D01*
X12150000Y-5862500D02*
X12150000Y-5962500D01*
X12100000Y-5912500D02*
X12200000Y-5912500D01*
X12404000Y-5608500D02*
X12404000Y-5708500D01*
X12354000Y-5658500D02*
X12454000Y-5658500D01*
X12404000Y-5862500D02*
X12404000Y-5962500D01*
X12354000Y-5912500D02*
X12454000Y-5912500D01*
D13*
X13874392Y-4882892D02*
X13874392Y-4784108D01*
X13775608Y-4784108D01*
X13775608Y-4882892D01*
X13874392Y-4882892D01*
X13874392Y-5136892D02*
X13874392Y-5038108D01*
X13775608Y-5038108D01*
X13775608Y-5136892D01*
X13874392Y-5136892D01*
X13874392Y-5390892D02*
X13874392Y-5292108D01*
X13775608Y-5292108D01*
X13775608Y-5390892D01*
X13874392Y-5390892D01*
D11*
X11858277Y-15951484D02*
X11858277Y-15751484D01*
X11858277Y-15751484D02*
X11905896Y-15751484D01*
X11905896Y-15751484D02*
X11934467Y-15761008D01*
X11934467Y-15761008D02*
X11953515Y-15780055D01*
X11953515Y-15780055D02*
X11963039Y-15799103D01*
X11963039Y-15799103D02*
X11972562Y-15837198D01*
X11972562Y-15837198D02*
X11972562Y-15865769D01*
X11972562Y-15865769D02*
X11963039Y-15903865D01*
X11963039Y-15903865D02*
X11953515Y-15922912D01*
X11953515Y-15922912D02*
X11934467Y-15941960D01*
X11934467Y-15941960D02*
X11905896Y-15951484D01*
X11905896Y-15951484D02*
X11858277Y-15951484D01*
X12058277Y-15951484D02*
X12058277Y-15818150D01*
X12058277Y-15856246D02*
X12067801Y-15837198D01*
X12067801Y-15837198D02*
X12077324Y-15827674D01*
X12077324Y-15827674D02*
X12096372Y-15818150D01*
X12096372Y-15818150D02*
X12115420Y-15818150D01*
X12182086Y-15951484D02*
X12182086Y-15818150D01*
X12182086Y-15751484D02*
X12172562Y-15761008D01*
X12172562Y-15761008D02*
X12182086Y-15770531D01*
X12182086Y-15770531D02*
X12191610Y-15761008D01*
X12191610Y-15761008D02*
X12182086Y-15751484D01*
X12182086Y-15751484D02*
X12182086Y-15770531D01*
X12305896Y-15951484D02*
X12286848Y-15941960D01*
X12286848Y-15941960D02*
X12277324Y-15922912D01*
X12277324Y-15922912D02*
X12277324Y-15751484D01*
X12410658Y-15951484D02*
X12391610Y-15941960D01*
X12391610Y-15941960D02*
X12382086Y-15922912D01*
X12382086Y-15922912D02*
X12382086Y-15751484D01*
X12639229Y-15951484D02*
X12639229Y-15751484D01*
X12639229Y-15751484D02*
X12705896Y-15894341D01*
X12705896Y-15894341D02*
X12772562Y-15751484D01*
X12772562Y-15751484D02*
X12772562Y-15951484D01*
X12953515Y-15951484D02*
X12953515Y-15846722D01*
X12953515Y-15846722D02*
X12943991Y-15827674D01*
X12943991Y-15827674D02*
X12924943Y-15818150D01*
X12924943Y-15818150D02*
X12886848Y-15818150D01*
X12886848Y-15818150D02*
X12867801Y-15827674D01*
X12953515Y-15941960D02*
X12934467Y-15951484D01*
X12934467Y-15951484D02*
X12886848Y-15951484D01*
X12886848Y-15951484D02*
X12867801Y-15941960D01*
X12867801Y-15941960D02*
X12858277Y-15922912D01*
X12858277Y-15922912D02*
X12858277Y-15903865D01*
X12858277Y-15903865D02*
X12867801Y-15884817D01*
X12867801Y-15884817D02*
X12886848Y-15875293D01*
X12886848Y-15875293D02*
X12934467Y-15875293D01*
X12934467Y-15875293D02*
X12953515Y-15865769D01*
X13048753Y-15818150D02*
X13048753Y-16018150D01*
X13048753Y-15827674D02*
X13067801Y-15818150D01*
X13067801Y-15818150D02*
X13105896Y-15818150D01*
X13105896Y-15818150D02*
X13124943Y-15827674D01*
X13124943Y-15827674D02*
X13134467Y-15837198D01*
X13134467Y-15837198D02*
X13143991Y-15856246D01*
X13143991Y-15856246D02*
X13143991Y-15913388D01*
X13143991Y-15913388D02*
X13134467Y-15932436D01*
X13134467Y-15932436D02*
X13124943Y-15941960D01*
X13124943Y-15941960D02*
X13105896Y-15951484D01*
X13105896Y-15951484D02*
X13067801Y-15951484D01*
X13067801Y-15951484D02*
X13048753Y-15941960D01*
X13229705Y-15932436D02*
X13239229Y-15941960D01*
X13239229Y-15941960D02*
X13229705Y-15951484D01*
X13229705Y-15951484D02*
X13220182Y-15941960D01*
X13220182Y-15941960D02*
X13229705Y-15932436D01*
X13229705Y-15932436D02*
X13229705Y-15951484D01*
X13229705Y-15827674D02*
X13239229Y-15837198D01*
X13239229Y-15837198D02*
X13229705Y-15846722D01*
X13229705Y-15846722D02*
X13220182Y-15837198D01*
X13220182Y-15837198D02*
X13229705Y-15827674D01*
X13229705Y-15827674D02*
X13229705Y-15846722D01*
D12*
X11517500Y-16240000D02*
X11597500Y-16320000D01*
X11597500Y-16240000D02*
X11517500Y-16320000D01*
D11*
X11896372Y-16171484D02*
X11915420Y-16171484D01*
X11915420Y-16171484D02*
X11934467Y-16181008D01*
X11934467Y-16181008D02*
X11943991Y-16190531D01*
X11943991Y-16190531D02*
X11953515Y-16209579D01*
X11953515Y-16209579D02*
X11963039Y-16247674D01*
X11963039Y-16247674D02*
X11963039Y-16295293D01*
X11963039Y-16295293D02*
X11953515Y-16333388D01*
X11953515Y-16333388D02*
X11943991Y-16352436D01*
X11943991Y-16352436D02*
X11934467Y-16361960D01*
X11934467Y-16361960D02*
X11915420Y-16371484D01*
X11915420Y-16371484D02*
X11896372Y-16371484D01*
X11896372Y-16371484D02*
X11877324Y-16361960D01*
X11877324Y-16361960D02*
X11867801Y-16352436D01*
X11867801Y-16352436D02*
X11858277Y-16333388D01*
X11858277Y-16333388D02*
X11848753Y-16295293D01*
X11848753Y-16295293D02*
X11848753Y-16247674D01*
X11848753Y-16247674D02*
X11858277Y-16209579D01*
X11858277Y-16209579D02*
X11867801Y-16190531D01*
X11867801Y-16190531D02*
X11877324Y-16181008D01*
X11877324Y-16181008D02*
X11896372Y-16171484D01*
X12048753Y-16352436D02*
X12058277Y-16361960D01*
X12058277Y-16361960D02*
X12048753Y-16371484D01*
X12048753Y-16371484D02*
X12039229Y-16361960D01*
X12039229Y-16361960D02*
X12048753Y-16352436D01*
X12048753Y-16352436D02*
X12048753Y-16371484D01*
X12172562Y-16257198D02*
X12153515Y-16247674D01*
X12153515Y-16247674D02*
X12143991Y-16238150D01*
X12143991Y-16238150D02*
X12134467Y-16219103D01*
X12134467Y-16219103D02*
X12134467Y-16209579D01*
X12134467Y-16209579D02*
X12143991Y-16190531D01*
X12143991Y-16190531D02*
X12153515Y-16181008D01*
X12153515Y-16181008D02*
X12172562Y-16171484D01*
X12172562Y-16171484D02*
X12210658Y-16171484D01*
X12210658Y-16171484D02*
X12229705Y-16181008D01*
X12229705Y-16181008D02*
X12239229Y-16190531D01*
X12239229Y-16190531D02*
X12248753Y-16209579D01*
X12248753Y-16209579D02*
X12248753Y-16219103D01*
X12248753Y-16219103D02*
X12239229Y-16238150D01*
X12239229Y-16238150D02*
X12229705Y-16247674D01*
X12229705Y-16247674D02*
X12210658Y-16257198D01*
X12210658Y-16257198D02*
X12172562Y-16257198D01*
X12172562Y-16257198D02*
X12153515Y-16266722D01*
X12153515Y-16266722D02*
X12143991Y-16276246D01*
X12143991Y-16276246D02*
X12134467Y-16295293D01*
X12134467Y-16295293D02*
X12134467Y-16333388D01*
X12134467Y-16333388D02*
X12143991Y-16352436D01*
X12143991Y-16352436D02*
X12153515Y-16361960D01*
X12153515Y-16361960D02*
X12172562Y-16371484D01*
X12172562Y-16371484D02*
X12210658Y-16371484D01*
X12210658Y-16371484D02*
X12229705Y-16361960D01*
X12229705Y-16361960D02*
X12239229Y-16352436D01*
X12239229Y-16352436D02*
X12248753Y-16333388D01*
X12248753Y-16333388D02*
X12248753Y-16295293D01*
X12248753Y-16295293D02*
X12239229Y-16276246D01*
X12239229Y-16276246D02*
X12229705Y-16266722D01*
X12229705Y-16266722D02*
X12210658Y-16257198D01*
X12372562Y-16171484D02*
X12391610Y-16171484D01*
X12391610Y-16171484D02*
X12410658Y-16181008D01*
X12410658Y-16181008D02*
X12420182Y-16190531D01*
X12420182Y-16190531D02*
X12429705Y-16209579D01*
X12429705Y-16209579D02*
X12439229Y-16247674D01*
X12439229Y-16247674D02*
X12439229Y-16295293D01*
X12439229Y-16295293D02*
X12429705Y-16333388D01*
X12429705Y-16333388D02*
X12420182Y-16352436D01*
X12420182Y-16352436D02*
X12410658Y-16361960D01*
X12410658Y-16361960D02*
X12391610Y-16371484D01*
X12391610Y-16371484D02*
X12372562Y-16371484D01*
X12372562Y-16371484D02*
X12353515Y-16361960D01*
X12353515Y-16361960D02*
X12343991Y-16352436D01*
X12343991Y-16352436D02*
X12334467Y-16333388D01*
X12334467Y-16333388D02*
X12324943Y-16295293D01*
X12324943Y-16295293D02*
X12324943Y-16247674D01*
X12324943Y-16247674D02*
X12334467Y-16209579D01*
X12334467Y-16209579D02*
X12343991Y-16190531D01*
X12343991Y-16190531D02*
X12353515Y-16181008D01*
X12353515Y-16181008D02*
X12372562Y-16171484D01*
X12563039Y-16171484D02*
X12582086Y-16171484D01*
X12582086Y-16171484D02*
X12601134Y-16181008D01*
X12601134Y-16181008D02*
X12610658Y-16190531D01*
X12610658Y-16190531D02*
X12620182Y-16209579D01*
X12620182Y-16209579D02*
X12629705Y-16247674D01*
X12629705Y-16247674D02*
X12629705Y-16295293D01*
X12629705Y-16295293D02*
X12620182Y-16333388D01*
X12620182Y-16333388D02*
X12610658Y-16352436D01*
X12610658Y-16352436D02*
X12601134Y-16361960D01*
X12601134Y-16361960D02*
X12582086Y-16371484D01*
X12582086Y-16371484D02*
X12563039Y-16371484D01*
X12563039Y-16371484D02*
X12543991Y-16361960D01*
X12543991Y-16361960D02*
X12534467Y-16352436D01*
X12534467Y-16352436D02*
X12524943Y-16333388D01*
X12524943Y-16333388D02*
X12515420Y-16295293D01*
X12515420Y-16295293D02*
X12515420Y-16247674D01*
X12515420Y-16247674D02*
X12524943Y-16209579D01*
X12524943Y-16209579D02*
X12534467Y-16190531D01*
X12534467Y-16190531D02*
X12543991Y-16181008D01*
X12543991Y-16181008D02*
X12563039Y-16171484D01*
X12715420Y-16371484D02*
X12715420Y-16238150D01*
X12715420Y-16257198D02*
X12724943Y-16247674D01*
X12724943Y-16247674D02*
X12743991Y-16238150D01*
X12743991Y-16238150D02*
X12772563Y-16238150D01*
X12772563Y-16238150D02*
X12791610Y-16247674D01*
X12791610Y-16247674D02*
X12801134Y-16266722D01*
X12801134Y-16266722D02*
X12801134Y-16371484D01*
X12801134Y-16266722D02*
X12810658Y-16247674D01*
X12810658Y-16247674D02*
X12829705Y-16238150D01*
X12829705Y-16238150D02*
X12858277Y-16238150D01*
X12858277Y-16238150D02*
X12877324Y-16247674D01*
X12877324Y-16247674D02*
X12886848Y-16266722D01*
X12886848Y-16266722D02*
X12886848Y-16371484D01*
X12982086Y-16371484D02*
X12982086Y-16238150D01*
X12982086Y-16257198D02*
X12991610Y-16247674D01*
X12991610Y-16247674D02*
X13010658Y-16238150D01*
X13010658Y-16238150D02*
X13039229Y-16238150D01*
X13039229Y-16238150D02*
X13058277Y-16247674D01*
X13058277Y-16247674D02*
X13067801Y-16266722D01*
X13067801Y-16266722D02*
X13067801Y-16371484D01*
X13067801Y-16266722D02*
X13077324Y-16247674D01*
X13077324Y-16247674D02*
X13096372Y-16238150D01*
X13096372Y-16238150D02*
X13124943Y-16238150D01*
X13124943Y-16238150D02*
X13143991Y-16247674D01*
X13143991Y-16247674D02*
X13153515Y-16266722D01*
X13153515Y-16266722D02*
X13153515Y-16371484D01*
X13543991Y-16161960D02*
X13372563Y-16419103D01*
X13801134Y-16171484D02*
X13820182Y-16171484D01*
X13820182Y-16171484D02*
X13839229Y-16181008D01*
X13839229Y-16181008D02*
X13848753Y-16190531D01*
X13848753Y-16190531D02*
X13858277Y-16209579D01*
X13858277Y-16209579D02*
X13867801Y-16247674D01*
X13867801Y-16247674D02*
X13867801Y-16295293D01*
X13867801Y-16295293D02*
X13858277Y-16333388D01*
X13858277Y-16333388D02*
X13848753Y-16352436D01*
X13848753Y-16352436D02*
X13839229Y-16361960D01*
X13839229Y-16361960D02*
X13820182Y-16371484D01*
X13820182Y-16371484D02*
X13801134Y-16371484D01*
X13801134Y-16371484D02*
X13782086Y-16361960D01*
X13782086Y-16361960D02*
X13772563Y-16352436D01*
X13772563Y-16352436D02*
X13763039Y-16333388D01*
X13763039Y-16333388D02*
X13753515Y-16295293D01*
X13753515Y-16295293D02*
X13753515Y-16247674D01*
X13753515Y-16247674D02*
X13763039Y-16209579D01*
X13763039Y-16209579D02*
X13772563Y-16190531D01*
X13772563Y-16190531D02*
X13782086Y-16181008D01*
X13782086Y-16181008D02*
X13801134Y-16171484D01*
X13953515Y-16352436D02*
X13963039Y-16361960D01*
X13963039Y-16361960D02*
X13953515Y-16371484D01*
X13953515Y-16371484D02*
X13943991Y-16361960D01*
X13943991Y-16361960D02*
X13953515Y-16352436D01*
X13953515Y-16352436D02*
X13953515Y-16371484D01*
X14086848Y-16171484D02*
X14105896Y-16171484D01*
X14105896Y-16171484D02*
X14124944Y-16181008D01*
X14124944Y-16181008D02*
X14134467Y-16190531D01*
X14134467Y-16190531D02*
X14143991Y-16209579D01*
X14143991Y-16209579D02*
X14153515Y-16247674D01*
X14153515Y-16247674D02*
X14153515Y-16295293D01*
X14153515Y-16295293D02*
X14143991Y-16333388D01*
X14143991Y-16333388D02*
X14134467Y-16352436D01*
X14134467Y-16352436D02*
X14124944Y-16361960D01*
X14124944Y-16361960D02*
X14105896Y-16371484D01*
X14105896Y-16371484D02*
X14086848Y-16371484D01*
X14086848Y-16371484D02*
X14067801Y-16361960D01*
X14067801Y-16361960D02*
X14058277Y-16352436D01*
X14058277Y-16352436D02*
X14048753Y-16333388D01*
X14048753Y-16333388D02*
X14039229Y-16295293D01*
X14039229Y-16295293D02*
X14039229Y-16247674D01*
X14039229Y-16247674D02*
X14048753Y-16209579D01*
X14048753Y-16209579D02*
X14058277Y-16190531D01*
X14058277Y-16190531D02*
X14067801Y-16181008D01*
X14067801Y-16181008D02*
X14086848Y-16171484D01*
X14220182Y-16171484D02*
X14343991Y-16171484D01*
X14343991Y-16171484D02*
X14277325Y-16247674D01*
X14277325Y-16247674D02*
X14305896Y-16247674D01*
X14305896Y-16247674D02*
X14324944Y-16257198D01*
X14324944Y-16257198D02*
X14334467Y-16266722D01*
X14334467Y-16266722D02*
X14343991Y-16285769D01*
X14343991Y-16285769D02*
X14343991Y-16333388D01*
X14343991Y-16333388D02*
X14334467Y-16352436D01*
X14334467Y-16352436D02*
X14324944Y-16361960D01*
X14324944Y-16361960D02*
X14305896Y-16371484D01*
X14305896Y-16371484D02*
X14248753Y-16371484D01*
X14248753Y-16371484D02*
X14229706Y-16361960D01*
X14229706Y-16361960D02*
X14220182Y-16352436D01*
X14534467Y-16371484D02*
X14420182Y-16371484D01*
X14477325Y-16371484D02*
X14477325Y-16171484D01*
X14477325Y-16171484D02*
X14458277Y-16200055D01*
X14458277Y-16200055D02*
X14439229Y-16219103D01*
X14439229Y-16219103D02*
X14420182Y-16228627D01*
X14715420Y-16171484D02*
X14620182Y-16171484D01*
X14620182Y-16171484D02*
X14610658Y-16266722D01*
X14610658Y-16266722D02*
X14620182Y-16257198D01*
X14620182Y-16257198D02*
X14639229Y-16247674D01*
X14639229Y-16247674D02*
X14686848Y-16247674D01*
X14686848Y-16247674D02*
X14705896Y-16257198D01*
X14705896Y-16257198D02*
X14715420Y-16266722D01*
X14715420Y-16266722D02*
X14724944Y-16285769D01*
X14724944Y-16285769D02*
X14724944Y-16333388D01*
X14724944Y-16333388D02*
X14715420Y-16352436D01*
X14715420Y-16352436D02*
X14705896Y-16361960D01*
X14705896Y-16361960D02*
X14686848Y-16371484D01*
X14686848Y-16371484D02*
X14639229Y-16371484D01*
X14639229Y-16371484D02*
X14620182Y-16361960D01*
X14620182Y-16361960D02*
X14610658Y-16352436D01*
X14801134Y-16171484D02*
X14801134Y-16209579D01*
X14877325Y-16171484D02*
X14877325Y-16209579D01*
X15172563Y-16447674D02*
X15163039Y-16438150D01*
X15163039Y-16438150D02*
X15143991Y-16409579D01*
X15143991Y-16409579D02*
X15134468Y-16390531D01*
X15134468Y-16390531D02*
X15124944Y-16361960D01*
X15124944Y-16361960D02*
X15115420Y-16314341D01*
X15115420Y-16314341D02*
X15115420Y-16276246D01*
X15115420Y-16276246D02*
X15124944Y-16228627D01*
X15124944Y-16228627D02*
X15134468Y-16200055D01*
X15134468Y-16200055D02*
X15143991Y-16181008D01*
X15143991Y-16181008D02*
X15163039Y-16152436D01*
X15163039Y-16152436D02*
X15172563Y-16142912D01*
X15239229Y-16190531D02*
X15248753Y-16181008D01*
X15248753Y-16181008D02*
X15267801Y-16171484D01*
X15267801Y-16171484D02*
X15315420Y-16171484D01*
X15315420Y-16171484D02*
X15334468Y-16181008D01*
X15334468Y-16181008D02*
X15343991Y-16190531D01*
X15343991Y-16190531D02*
X15353515Y-16209579D01*
X15353515Y-16209579D02*
X15353515Y-16228627D01*
X15353515Y-16228627D02*
X15343991Y-16257198D01*
X15343991Y-16257198D02*
X15229706Y-16371484D01*
X15229706Y-16371484D02*
X15353515Y-16371484D01*
X15524944Y-16171484D02*
X15486848Y-16171484D01*
X15486848Y-16171484D02*
X15467801Y-16181008D01*
X15467801Y-16181008D02*
X15458277Y-16190531D01*
X15458277Y-16190531D02*
X15439229Y-16219103D01*
X15439229Y-16219103D02*
X15429706Y-16257198D01*
X15429706Y-16257198D02*
X15429706Y-16333388D01*
X15429706Y-16333388D02*
X15439229Y-16352436D01*
X15439229Y-16352436D02*
X15448753Y-16361960D01*
X15448753Y-16361960D02*
X15467801Y-16371484D01*
X15467801Y-16371484D02*
X15505896Y-16371484D01*
X15505896Y-16371484D02*
X15524944Y-16361960D01*
X15524944Y-16361960D02*
X15534468Y-16352436D01*
X15534468Y-16352436D02*
X15543991Y-16333388D01*
X15543991Y-16333388D02*
X15543991Y-16285769D01*
X15543991Y-16285769D02*
X15534468Y-16266722D01*
X15534468Y-16266722D02*
X15524944Y-16257198D01*
X15524944Y-16257198D02*
X15505896Y-16247674D01*
X15505896Y-16247674D02*
X15467801Y-16247674D01*
X15467801Y-16247674D02*
X15448753Y-16257198D01*
X15448753Y-16257198D02*
X15439229Y-16266722D01*
X15439229Y-16266722D02*
X15429706Y-16285769D01*
X15782087Y-16371484D02*
X15782087Y-16171484D01*
X15867801Y-16371484D02*
X15867801Y-16266722D01*
X15867801Y-16266722D02*
X15858277Y-16247674D01*
X15858277Y-16247674D02*
X15839230Y-16238150D01*
X15839230Y-16238150D02*
X15810658Y-16238150D01*
X15810658Y-16238150D02*
X15791610Y-16247674D01*
X15791610Y-16247674D02*
X15782087Y-16257198D01*
X15991610Y-16371484D02*
X15972563Y-16361960D01*
X15972563Y-16361960D02*
X15963039Y-16352436D01*
X15963039Y-16352436D02*
X15953515Y-16333388D01*
X15953515Y-16333388D02*
X15953515Y-16276246D01*
X15953515Y-16276246D02*
X15963039Y-16257198D01*
X15963039Y-16257198D02*
X15972563Y-16247674D01*
X15972563Y-16247674D02*
X15991610Y-16238150D01*
X15991610Y-16238150D02*
X16020182Y-16238150D01*
X16020182Y-16238150D02*
X16039230Y-16247674D01*
X16039230Y-16247674D02*
X16048753Y-16257198D01*
X16048753Y-16257198D02*
X16058277Y-16276246D01*
X16058277Y-16276246D02*
X16058277Y-16333388D01*
X16058277Y-16333388D02*
X16048753Y-16352436D01*
X16048753Y-16352436D02*
X16039230Y-16361960D01*
X16039230Y-16361960D02*
X16020182Y-16371484D01*
X16020182Y-16371484D02*
X15991610Y-16371484D01*
X16172563Y-16371484D02*
X16153515Y-16361960D01*
X16153515Y-16361960D02*
X16143991Y-16342912D01*
X16143991Y-16342912D02*
X16143991Y-16171484D01*
X16324944Y-16361960D02*
X16305896Y-16371484D01*
X16305896Y-16371484D02*
X16267801Y-16371484D01*
X16267801Y-16371484D02*
X16248753Y-16361960D01*
X16248753Y-16361960D02*
X16239230Y-16342912D01*
X16239230Y-16342912D02*
X16239230Y-16266722D01*
X16239230Y-16266722D02*
X16248753Y-16247674D01*
X16248753Y-16247674D02*
X16267801Y-16238150D01*
X16267801Y-16238150D02*
X16305896Y-16238150D01*
X16305896Y-16238150D02*
X16324944Y-16247674D01*
X16324944Y-16247674D02*
X16334468Y-16266722D01*
X16334468Y-16266722D02*
X16334468Y-16285769D01*
X16334468Y-16285769D02*
X16239230Y-16304817D01*
X16410658Y-16361960D02*
X16429706Y-16371484D01*
X16429706Y-16371484D02*
X16467801Y-16371484D01*
X16467801Y-16371484D02*
X16486849Y-16361960D01*
X16486849Y-16361960D02*
X16496372Y-16342912D01*
X16496372Y-16342912D02*
X16496372Y-16333388D01*
X16496372Y-16333388D02*
X16486849Y-16314341D01*
X16486849Y-16314341D02*
X16467801Y-16304817D01*
X16467801Y-16304817D02*
X16439230Y-16304817D01*
X16439230Y-16304817D02*
X16420182Y-16295293D01*
X16420182Y-16295293D02*
X16410658Y-16276246D01*
X16410658Y-16276246D02*
X16410658Y-16266722D01*
X16410658Y-16266722D02*
X16420182Y-16247674D01*
X16420182Y-16247674D02*
X16439230Y-16238150D01*
X16439230Y-16238150D02*
X16467801Y-16238150D01*
X16467801Y-16238150D02*
X16486849Y-16247674D01*
X16563039Y-16447674D02*
X16572563Y-16438150D01*
X16572563Y-16438150D02*
X16591611Y-16409579D01*
X16591611Y-16409579D02*
X16601134Y-16390531D01*
X16601134Y-16390531D02*
X16610658Y-16361960D01*
X16610658Y-16361960D02*
X16620182Y-16314341D01*
X16620182Y-16314341D02*
X16620182Y-16276246D01*
X16620182Y-16276246D02*
X16610658Y-16228627D01*
X16610658Y-16228627D02*
X16601134Y-16200055D01*
X16601134Y-16200055D02*
X16591611Y-16181008D01*
X16591611Y-16181008D02*
X16572563Y-16152436D01*
X16572563Y-16152436D02*
X16563039Y-16142912D01*
D12*
X11597500Y-16544000D02*
G75*
G02*
X11507500Y-16544000I-45000J0D01*
G01*
X11507500Y-16544000D02*
G75*
G02*
X11597500Y-16544000I45000J0D01*
G01*
D11*
X11896372Y-16435484D02*
X11915420Y-16435484D01*
X11915420Y-16435484D02*
X11934467Y-16445008D01*
X11934467Y-16445008D02*
X11943991Y-16454531D01*
X11943991Y-16454531D02*
X11953515Y-16473579D01*
X11953515Y-16473579D02*
X11963039Y-16511674D01*
X11963039Y-16511674D02*
X11963039Y-16559293D01*
X11963039Y-16559293D02*
X11953515Y-16597388D01*
X11953515Y-16597388D02*
X11943991Y-16616436D01*
X11943991Y-16616436D02*
X11934467Y-16625960D01*
X11934467Y-16625960D02*
X11915420Y-16635484D01*
X11915420Y-16635484D02*
X11896372Y-16635484D01*
X11896372Y-16635484D02*
X11877324Y-16625960D01*
X11877324Y-16625960D02*
X11867801Y-16616436D01*
X11867801Y-16616436D02*
X11858277Y-16597388D01*
X11858277Y-16597388D02*
X11848753Y-16559293D01*
X11848753Y-16559293D02*
X11848753Y-16511674D01*
X11848753Y-16511674D02*
X11858277Y-16473579D01*
X11858277Y-16473579D02*
X11867801Y-16454531D01*
X11867801Y-16454531D02*
X11877324Y-16445008D01*
X11877324Y-16445008D02*
X11896372Y-16435484D01*
X12048753Y-16616436D02*
X12058277Y-16625960D01*
X12058277Y-16625960D02*
X12048753Y-16635484D01*
X12048753Y-16635484D02*
X12039229Y-16625960D01*
X12039229Y-16625960D02*
X12048753Y-16616436D01*
X12048753Y-16616436D02*
X12048753Y-16635484D01*
X12153515Y-16635484D02*
X12191610Y-16635484D01*
X12191610Y-16635484D02*
X12210658Y-16625960D01*
X12210658Y-16625960D02*
X12220182Y-16616436D01*
X12220182Y-16616436D02*
X12239229Y-16587865D01*
X12239229Y-16587865D02*
X12248753Y-16549769D01*
X12248753Y-16549769D02*
X12248753Y-16473579D01*
X12248753Y-16473579D02*
X12239229Y-16454531D01*
X12239229Y-16454531D02*
X12229705Y-16445008D01*
X12229705Y-16445008D02*
X12210658Y-16435484D01*
X12210658Y-16435484D02*
X12172562Y-16435484D01*
X12172562Y-16435484D02*
X12153515Y-16445008D01*
X12153515Y-16445008D02*
X12143991Y-16454531D01*
X12143991Y-16454531D02*
X12134467Y-16473579D01*
X12134467Y-16473579D02*
X12134467Y-16521198D01*
X12134467Y-16521198D02*
X12143991Y-16540246D01*
X12143991Y-16540246D02*
X12153515Y-16549769D01*
X12153515Y-16549769D02*
X12172562Y-16559293D01*
X12172562Y-16559293D02*
X12210658Y-16559293D01*
X12210658Y-16559293D02*
X12229705Y-16549769D01*
X12229705Y-16549769D02*
X12239229Y-16540246D01*
X12239229Y-16540246D02*
X12248753Y-16521198D01*
X12372562Y-16435484D02*
X12391610Y-16435484D01*
X12391610Y-16435484D02*
X12410658Y-16445008D01*
X12410658Y-16445008D02*
X12420182Y-16454531D01*
X12420182Y-16454531D02*
X12429705Y-16473579D01*
X12429705Y-16473579D02*
X12439229Y-16511674D01*
X12439229Y-16511674D02*
X12439229Y-16559293D01*
X12439229Y-16559293D02*
X12429705Y-16597388D01*
X12429705Y-16597388D02*
X12420182Y-16616436D01*
X12420182Y-16616436D02*
X12410658Y-16625960D01*
X12410658Y-16625960D02*
X12391610Y-16635484D01*
X12391610Y-16635484D02*
X12372562Y-16635484D01*
X12372562Y-16635484D02*
X12353515Y-16625960D01*
X12353515Y-16625960D02*
X12343991Y-16616436D01*
X12343991Y-16616436D02*
X12334467Y-16597388D01*
X12334467Y-16597388D02*
X12324943Y-16559293D01*
X12324943Y-16559293D02*
X12324943Y-16511674D01*
X12324943Y-16511674D02*
X12334467Y-16473579D01*
X12334467Y-16473579D02*
X12343991Y-16454531D01*
X12343991Y-16454531D02*
X12353515Y-16445008D01*
X12353515Y-16445008D02*
X12372562Y-16435484D01*
X12563039Y-16435484D02*
X12582086Y-16435484D01*
X12582086Y-16435484D02*
X12601134Y-16445008D01*
X12601134Y-16445008D02*
X12610658Y-16454531D01*
X12610658Y-16454531D02*
X12620182Y-16473579D01*
X12620182Y-16473579D02*
X12629705Y-16511674D01*
X12629705Y-16511674D02*
X12629705Y-16559293D01*
X12629705Y-16559293D02*
X12620182Y-16597388D01*
X12620182Y-16597388D02*
X12610658Y-16616436D01*
X12610658Y-16616436D02*
X12601134Y-16625960D01*
X12601134Y-16625960D02*
X12582086Y-16635484D01*
X12582086Y-16635484D02*
X12563039Y-16635484D01*
X12563039Y-16635484D02*
X12543991Y-16625960D01*
X12543991Y-16625960D02*
X12534467Y-16616436D01*
X12534467Y-16616436D02*
X12524943Y-16597388D01*
X12524943Y-16597388D02*
X12515420Y-16559293D01*
X12515420Y-16559293D02*
X12515420Y-16511674D01*
X12515420Y-16511674D02*
X12524943Y-16473579D01*
X12524943Y-16473579D02*
X12534467Y-16454531D01*
X12534467Y-16454531D02*
X12543991Y-16445008D01*
X12543991Y-16445008D02*
X12563039Y-16435484D01*
X12715420Y-16635484D02*
X12715420Y-16502150D01*
X12715420Y-16521198D02*
X12724943Y-16511674D01*
X12724943Y-16511674D02*
X12743991Y-16502150D01*
X12743991Y-16502150D02*
X12772563Y-16502150D01*
X12772563Y-16502150D02*
X12791610Y-16511674D01*
X12791610Y-16511674D02*
X12801134Y-16530722D01*
X12801134Y-16530722D02*
X12801134Y-16635484D01*
X12801134Y-16530722D02*
X12810658Y-16511674D01*
X12810658Y-16511674D02*
X12829705Y-16502150D01*
X12829705Y-16502150D02*
X12858277Y-16502150D01*
X12858277Y-16502150D02*
X12877324Y-16511674D01*
X12877324Y-16511674D02*
X12886848Y-16530722D01*
X12886848Y-16530722D02*
X12886848Y-16635484D01*
X12982086Y-16635484D02*
X12982086Y-16502150D01*
X12982086Y-16521198D02*
X12991610Y-16511674D01*
X12991610Y-16511674D02*
X13010658Y-16502150D01*
X13010658Y-16502150D02*
X13039229Y-16502150D01*
X13039229Y-16502150D02*
X13058277Y-16511674D01*
X13058277Y-16511674D02*
X13067801Y-16530722D01*
X13067801Y-16530722D02*
X13067801Y-16635484D01*
X13067801Y-16530722D02*
X13077324Y-16511674D01*
X13077324Y-16511674D02*
X13096372Y-16502150D01*
X13096372Y-16502150D02*
X13124943Y-16502150D01*
X13124943Y-16502150D02*
X13143991Y-16511674D01*
X13143991Y-16511674D02*
X13153515Y-16530722D01*
X13153515Y-16530722D02*
X13153515Y-16635484D01*
X13543991Y-16425960D02*
X13372563Y-16683103D01*
X13801134Y-16435484D02*
X13820182Y-16435484D01*
X13820182Y-16435484D02*
X13839229Y-16445008D01*
X13839229Y-16445008D02*
X13848753Y-16454531D01*
X13848753Y-16454531D02*
X13858277Y-16473579D01*
X13858277Y-16473579D02*
X13867801Y-16511674D01*
X13867801Y-16511674D02*
X13867801Y-16559293D01*
X13867801Y-16559293D02*
X13858277Y-16597388D01*
X13858277Y-16597388D02*
X13848753Y-16616436D01*
X13848753Y-16616436D02*
X13839229Y-16625960D01*
X13839229Y-16625960D02*
X13820182Y-16635484D01*
X13820182Y-16635484D02*
X13801134Y-16635484D01*
X13801134Y-16635484D02*
X13782086Y-16625960D01*
X13782086Y-16625960D02*
X13772563Y-16616436D01*
X13772563Y-16616436D02*
X13763039Y-16597388D01*
X13763039Y-16597388D02*
X13753515Y-16559293D01*
X13753515Y-16559293D02*
X13753515Y-16511674D01*
X13753515Y-16511674D02*
X13763039Y-16473579D01*
X13763039Y-16473579D02*
X13772563Y-16454531D01*
X13772563Y-16454531D02*
X13782086Y-16445008D01*
X13782086Y-16445008D02*
X13801134Y-16435484D01*
X13953515Y-16616436D02*
X13963039Y-16625960D01*
X13963039Y-16625960D02*
X13953515Y-16635484D01*
X13953515Y-16635484D02*
X13943991Y-16625960D01*
X13943991Y-16625960D02*
X13953515Y-16616436D01*
X13953515Y-16616436D02*
X13953515Y-16635484D01*
X14086848Y-16435484D02*
X14105896Y-16435484D01*
X14105896Y-16435484D02*
X14124944Y-16445008D01*
X14124944Y-16445008D02*
X14134467Y-16454531D01*
X14134467Y-16454531D02*
X14143991Y-16473579D01*
X14143991Y-16473579D02*
X14153515Y-16511674D01*
X14153515Y-16511674D02*
X14153515Y-16559293D01*
X14153515Y-16559293D02*
X14143991Y-16597388D01*
X14143991Y-16597388D02*
X14134467Y-16616436D01*
X14134467Y-16616436D02*
X14124944Y-16625960D01*
X14124944Y-16625960D02*
X14105896Y-16635484D01*
X14105896Y-16635484D02*
X14086848Y-16635484D01*
X14086848Y-16635484D02*
X14067801Y-16625960D01*
X14067801Y-16625960D02*
X14058277Y-16616436D01*
X14058277Y-16616436D02*
X14048753Y-16597388D01*
X14048753Y-16597388D02*
X14039229Y-16559293D01*
X14039229Y-16559293D02*
X14039229Y-16511674D01*
X14039229Y-16511674D02*
X14048753Y-16473579D01*
X14048753Y-16473579D02*
X14058277Y-16454531D01*
X14058277Y-16454531D02*
X14067801Y-16445008D01*
X14067801Y-16445008D02*
X14086848Y-16435484D01*
X14220182Y-16435484D02*
X14343991Y-16435484D01*
X14343991Y-16435484D02*
X14277325Y-16511674D01*
X14277325Y-16511674D02*
X14305896Y-16511674D01*
X14305896Y-16511674D02*
X14324944Y-16521198D01*
X14324944Y-16521198D02*
X14334467Y-16530722D01*
X14334467Y-16530722D02*
X14343991Y-16549769D01*
X14343991Y-16549769D02*
X14343991Y-16597388D01*
X14343991Y-16597388D02*
X14334467Y-16616436D01*
X14334467Y-16616436D02*
X14324944Y-16625960D01*
X14324944Y-16625960D02*
X14305896Y-16635484D01*
X14305896Y-16635484D02*
X14248753Y-16635484D01*
X14248753Y-16635484D02*
X14229706Y-16625960D01*
X14229706Y-16625960D02*
X14220182Y-16616436D01*
X14524944Y-16435484D02*
X14429706Y-16435484D01*
X14429706Y-16435484D02*
X14420182Y-16530722D01*
X14420182Y-16530722D02*
X14429706Y-16521198D01*
X14429706Y-16521198D02*
X14448753Y-16511674D01*
X14448753Y-16511674D02*
X14496372Y-16511674D01*
X14496372Y-16511674D02*
X14515420Y-16521198D01*
X14515420Y-16521198D02*
X14524944Y-16530722D01*
X14524944Y-16530722D02*
X14534467Y-16549769D01*
X14534467Y-16549769D02*
X14534467Y-16597388D01*
X14534467Y-16597388D02*
X14524944Y-16616436D01*
X14524944Y-16616436D02*
X14515420Y-16625960D01*
X14515420Y-16625960D02*
X14496372Y-16635484D01*
X14496372Y-16635484D02*
X14448753Y-16635484D01*
X14448753Y-16635484D02*
X14429706Y-16625960D01*
X14429706Y-16625960D02*
X14420182Y-16616436D01*
X14705896Y-16502150D02*
X14705896Y-16635484D01*
X14658277Y-16425960D02*
X14610658Y-16568817D01*
X14610658Y-16568817D02*
X14734467Y-16568817D01*
X14801134Y-16435484D02*
X14801134Y-16473579D01*
X14877325Y-16435484D02*
X14877325Y-16473579D01*
X15172563Y-16711674D02*
X15163039Y-16702150D01*
X15163039Y-16702150D02*
X15143991Y-16673579D01*
X15143991Y-16673579D02*
X15134468Y-16654531D01*
X15134468Y-16654531D02*
X15124944Y-16625960D01*
X15124944Y-16625960D02*
X15115420Y-16578341D01*
X15115420Y-16578341D02*
X15115420Y-16540246D01*
X15115420Y-16540246D02*
X15124944Y-16492627D01*
X15124944Y-16492627D02*
X15134468Y-16464055D01*
X15134468Y-16464055D02*
X15143991Y-16445008D01*
X15143991Y-16445008D02*
X15163039Y-16416436D01*
X15163039Y-16416436D02*
X15172563Y-16406912D01*
X15334468Y-16502150D02*
X15334468Y-16635484D01*
X15286848Y-16425960D02*
X15239229Y-16568817D01*
X15239229Y-16568817D02*
X15363039Y-16568817D01*
X15591610Y-16635484D02*
X15591610Y-16435484D01*
X15677325Y-16635484D02*
X15677325Y-16530722D01*
X15677325Y-16530722D02*
X15667801Y-16511674D01*
X15667801Y-16511674D02*
X15648753Y-16502150D01*
X15648753Y-16502150D02*
X15620182Y-16502150D01*
X15620182Y-16502150D02*
X15601134Y-16511674D01*
X15601134Y-16511674D02*
X15591610Y-16521198D01*
X15801134Y-16635484D02*
X15782087Y-16625960D01*
X15782087Y-16625960D02*
X15772563Y-16616436D01*
X15772563Y-16616436D02*
X15763039Y-16597388D01*
X15763039Y-16597388D02*
X15763039Y-16540246D01*
X15763039Y-16540246D02*
X15772563Y-16521198D01*
X15772563Y-16521198D02*
X15782087Y-16511674D01*
X15782087Y-16511674D02*
X15801134Y-16502150D01*
X15801134Y-16502150D02*
X15829706Y-16502150D01*
X15829706Y-16502150D02*
X15848753Y-16511674D01*
X15848753Y-16511674D02*
X15858277Y-16521198D01*
X15858277Y-16521198D02*
X15867801Y-16540246D01*
X15867801Y-16540246D02*
X15867801Y-16597388D01*
X15867801Y-16597388D02*
X15858277Y-16616436D01*
X15858277Y-16616436D02*
X15848753Y-16625960D01*
X15848753Y-16625960D02*
X15829706Y-16635484D01*
X15829706Y-16635484D02*
X15801134Y-16635484D01*
X15982087Y-16635484D02*
X15963039Y-16625960D01*
X15963039Y-16625960D02*
X15953515Y-16606912D01*
X15953515Y-16606912D02*
X15953515Y-16435484D01*
X16134468Y-16625960D02*
X16115420Y-16635484D01*
X16115420Y-16635484D02*
X16077325Y-16635484D01*
X16077325Y-16635484D02*
X16058277Y-16625960D01*
X16058277Y-16625960D02*
X16048753Y-16606912D01*
X16048753Y-16606912D02*
X16048753Y-16530722D01*
X16048753Y-16530722D02*
X16058277Y-16511674D01*
X16058277Y-16511674D02*
X16077325Y-16502150D01*
X16077325Y-16502150D02*
X16115420Y-16502150D01*
X16115420Y-16502150D02*
X16134468Y-16511674D01*
X16134468Y-16511674D02*
X16143991Y-16530722D01*
X16143991Y-16530722D02*
X16143991Y-16549769D01*
X16143991Y-16549769D02*
X16048753Y-16568817D01*
X16220182Y-16625960D02*
X16239230Y-16635484D01*
X16239230Y-16635484D02*
X16277325Y-16635484D01*
X16277325Y-16635484D02*
X16296372Y-16625960D01*
X16296372Y-16625960D02*
X16305896Y-16606912D01*
X16305896Y-16606912D02*
X16305896Y-16597388D01*
X16305896Y-16597388D02*
X16296372Y-16578341D01*
X16296372Y-16578341D02*
X16277325Y-16568817D01*
X16277325Y-16568817D02*
X16248753Y-16568817D01*
X16248753Y-16568817D02*
X16229706Y-16559293D01*
X16229706Y-16559293D02*
X16220182Y-16540246D01*
X16220182Y-16540246D02*
X16220182Y-16530722D01*
X16220182Y-16530722D02*
X16229706Y-16511674D01*
X16229706Y-16511674D02*
X16248753Y-16502150D01*
X16248753Y-16502150D02*
X16277325Y-16502150D01*
X16277325Y-16502150D02*
X16296372Y-16511674D01*
X16372563Y-16711674D02*
X16382087Y-16702150D01*
X16382087Y-16702150D02*
X16401134Y-16673579D01*
X16401134Y-16673579D02*
X16410658Y-16654531D01*
X16410658Y-16654531D02*
X16420182Y-16625960D01*
X16420182Y-16625960D02*
X16429706Y-16578341D01*
X16429706Y-16578341D02*
X16429706Y-16540246D01*
X16429706Y-16540246D02*
X16420182Y-16492627D01*
X16420182Y-16492627D02*
X16410658Y-16464055D01*
X16410658Y-16464055D02*
X16401134Y-16445008D01*
X16401134Y-16445008D02*
X16382087Y-16416436D01*
X16382087Y-16416436D02*
X16372563Y-16406912D01*
D12*
X11547500Y-16758000D02*
X11547500Y-16858000D01*
X11497500Y-16808000D02*
X11597500Y-16808000D01*
D11*
X11963039Y-16899484D02*
X11848753Y-16899484D01*
X11905896Y-16899484D02*
X11905896Y-16699484D01*
X11905896Y-16699484D02*
X11886848Y-16728055D01*
X11886848Y-16728055D02*
X11867801Y-16747103D01*
X11867801Y-16747103D02*
X11848753Y-16756627D01*
X12048753Y-16880436D02*
X12058277Y-16889960D01*
X12058277Y-16889960D02*
X12048753Y-16899484D01*
X12048753Y-16899484D02*
X12039229Y-16889960D01*
X12039229Y-16889960D02*
X12048753Y-16880436D01*
X12048753Y-16880436D02*
X12048753Y-16899484D01*
X12182086Y-16699484D02*
X12201134Y-16699484D01*
X12201134Y-16699484D02*
X12220182Y-16709008D01*
X12220182Y-16709008D02*
X12229705Y-16718531D01*
X12229705Y-16718531D02*
X12239229Y-16737579D01*
X12239229Y-16737579D02*
X12248753Y-16775674D01*
X12248753Y-16775674D02*
X12248753Y-16823293D01*
X12248753Y-16823293D02*
X12239229Y-16861389D01*
X12239229Y-16861389D02*
X12229705Y-16880436D01*
X12229705Y-16880436D02*
X12220182Y-16889960D01*
X12220182Y-16889960D02*
X12201134Y-16899484D01*
X12201134Y-16899484D02*
X12182086Y-16899484D01*
X12182086Y-16899484D02*
X12163039Y-16889960D01*
X12163039Y-16889960D02*
X12153515Y-16880436D01*
X12153515Y-16880436D02*
X12143991Y-16861389D01*
X12143991Y-16861389D02*
X12134467Y-16823293D01*
X12134467Y-16823293D02*
X12134467Y-16775674D01*
X12134467Y-16775674D02*
X12143991Y-16737579D01*
X12143991Y-16737579D02*
X12153515Y-16718531D01*
X12153515Y-16718531D02*
X12163039Y-16709008D01*
X12163039Y-16709008D02*
X12182086Y-16699484D01*
X12372562Y-16699484D02*
X12391610Y-16699484D01*
X12391610Y-16699484D02*
X12410658Y-16709008D01*
X12410658Y-16709008D02*
X12420182Y-16718531D01*
X12420182Y-16718531D02*
X12429705Y-16737579D01*
X12429705Y-16737579D02*
X12439229Y-16775674D01*
X12439229Y-16775674D02*
X12439229Y-16823293D01*
X12439229Y-16823293D02*
X12429705Y-16861389D01*
X12429705Y-16861389D02*
X12420182Y-16880436D01*
X12420182Y-16880436D02*
X12410658Y-16889960D01*
X12410658Y-16889960D02*
X12391610Y-16899484D01*
X12391610Y-16899484D02*
X12372562Y-16899484D01*
X12372562Y-16899484D02*
X12353515Y-16889960D01*
X12353515Y-16889960D02*
X12343991Y-16880436D01*
X12343991Y-16880436D02*
X12334467Y-16861389D01*
X12334467Y-16861389D02*
X12324943Y-16823293D01*
X12324943Y-16823293D02*
X12324943Y-16775674D01*
X12324943Y-16775674D02*
X12334467Y-16737579D01*
X12334467Y-16737579D02*
X12343991Y-16718531D01*
X12343991Y-16718531D02*
X12353515Y-16709008D01*
X12353515Y-16709008D02*
X12372562Y-16699484D01*
X12563039Y-16699484D02*
X12582086Y-16699484D01*
X12582086Y-16699484D02*
X12601134Y-16709008D01*
X12601134Y-16709008D02*
X12610658Y-16718531D01*
X12610658Y-16718531D02*
X12620182Y-16737579D01*
X12620182Y-16737579D02*
X12629705Y-16775674D01*
X12629705Y-16775674D02*
X12629705Y-16823293D01*
X12629705Y-16823293D02*
X12620182Y-16861389D01*
X12620182Y-16861389D02*
X12610658Y-16880436D01*
X12610658Y-16880436D02*
X12601134Y-16889960D01*
X12601134Y-16889960D02*
X12582086Y-16899484D01*
X12582086Y-16899484D02*
X12563039Y-16899484D01*
X12563039Y-16899484D02*
X12543991Y-16889960D01*
X12543991Y-16889960D02*
X12534467Y-16880436D01*
X12534467Y-16880436D02*
X12524943Y-16861389D01*
X12524943Y-16861389D02*
X12515420Y-16823293D01*
X12515420Y-16823293D02*
X12515420Y-16775674D01*
X12515420Y-16775674D02*
X12524943Y-16737579D01*
X12524943Y-16737579D02*
X12534467Y-16718531D01*
X12534467Y-16718531D02*
X12543991Y-16709008D01*
X12543991Y-16709008D02*
X12563039Y-16699484D01*
X12715420Y-16899484D02*
X12715420Y-16766150D01*
X12715420Y-16785198D02*
X12724943Y-16775674D01*
X12724943Y-16775674D02*
X12743991Y-16766150D01*
X12743991Y-16766150D02*
X12772563Y-16766150D01*
X12772563Y-16766150D02*
X12791610Y-16775674D01*
X12791610Y-16775674D02*
X12801134Y-16794722D01*
X12801134Y-16794722D02*
X12801134Y-16899484D01*
X12801134Y-16794722D02*
X12810658Y-16775674D01*
X12810658Y-16775674D02*
X12829705Y-16766150D01*
X12829705Y-16766150D02*
X12858277Y-16766150D01*
X12858277Y-16766150D02*
X12877324Y-16775674D01*
X12877324Y-16775674D02*
X12886848Y-16794722D01*
X12886848Y-16794722D02*
X12886848Y-16899484D01*
X12982086Y-16899484D02*
X12982086Y-16766150D01*
X12982086Y-16785198D02*
X12991610Y-16775674D01*
X12991610Y-16775674D02*
X13010658Y-16766150D01*
X13010658Y-16766150D02*
X13039229Y-16766150D01*
X13039229Y-16766150D02*
X13058277Y-16775674D01*
X13058277Y-16775674D02*
X13067801Y-16794722D01*
X13067801Y-16794722D02*
X13067801Y-16899484D01*
X13067801Y-16794722D02*
X13077324Y-16775674D01*
X13077324Y-16775674D02*
X13096372Y-16766150D01*
X13096372Y-16766150D02*
X13124943Y-16766150D01*
X13124943Y-16766150D02*
X13143991Y-16775674D01*
X13143991Y-16775674D02*
X13153515Y-16794722D01*
X13153515Y-16794722D02*
X13153515Y-16899484D01*
X13543991Y-16689960D02*
X13372563Y-16947103D01*
X13801134Y-16699484D02*
X13820182Y-16699484D01*
X13820182Y-16699484D02*
X13839229Y-16709008D01*
X13839229Y-16709008D02*
X13848753Y-16718531D01*
X13848753Y-16718531D02*
X13858277Y-16737579D01*
X13858277Y-16737579D02*
X13867801Y-16775674D01*
X13867801Y-16775674D02*
X13867801Y-16823293D01*
X13867801Y-16823293D02*
X13858277Y-16861389D01*
X13858277Y-16861389D02*
X13848753Y-16880436D01*
X13848753Y-16880436D02*
X13839229Y-16889960D01*
X13839229Y-16889960D02*
X13820182Y-16899484D01*
X13820182Y-16899484D02*
X13801134Y-16899484D01*
X13801134Y-16899484D02*
X13782086Y-16889960D01*
X13782086Y-16889960D02*
X13772563Y-16880436D01*
X13772563Y-16880436D02*
X13763039Y-16861389D01*
X13763039Y-16861389D02*
X13753515Y-16823293D01*
X13753515Y-16823293D02*
X13753515Y-16775674D01*
X13753515Y-16775674D02*
X13763039Y-16737579D01*
X13763039Y-16737579D02*
X13772563Y-16718531D01*
X13772563Y-16718531D02*
X13782086Y-16709008D01*
X13782086Y-16709008D02*
X13801134Y-16699484D01*
X13953515Y-16880436D02*
X13963039Y-16889960D01*
X13963039Y-16889960D02*
X13953515Y-16899484D01*
X13953515Y-16899484D02*
X13943991Y-16889960D01*
X13943991Y-16889960D02*
X13953515Y-16880436D01*
X13953515Y-16880436D02*
X13953515Y-16899484D01*
X14086848Y-16699484D02*
X14105896Y-16699484D01*
X14105896Y-16699484D02*
X14124944Y-16709008D01*
X14124944Y-16709008D02*
X14134467Y-16718531D01*
X14134467Y-16718531D02*
X14143991Y-16737579D01*
X14143991Y-16737579D02*
X14153515Y-16775674D01*
X14153515Y-16775674D02*
X14153515Y-16823293D01*
X14153515Y-16823293D02*
X14143991Y-16861389D01*
X14143991Y-16861389D02*
X14134467Y-16880436D01*
X14134467Y-16880436D02*
X14124944Y-16889960D01*
X14124944Y-16889960D02*
X14105896Y-16899484D01*
X14105896Y-16899484D02*
X14086848Y-16899484D01*
X14086848Y-16899484D02*
X14067801Y-16889960D01*
X14067801Y-16889960D02*
X14058277Y-16880436D01*
X14058277Y-16880436D02*
X14048753Y-16861389D01*
X14048753Y-16861389D02*
X14039229Y-16823293D01*
X14039229Y-16823293D02*
X14039229Y-16775674D01*
X14039229Y-16775674D02*
X14048753Y-16737579D01*
X14048753Y-16737579D02*
X14058277Y-16718531D01*
X14058277Y-16718531D02*
X14067801Y-16709008D01*
X14067801Y-16709008D02*
X14086848Y-16699484D01*
X14220182Y-16699484D02*
X14343991Y-16699484D01*
X14343991Y-16699484D02*
X14277325Y-16775674D01*
X14277325Y-16775674D02*
X14305896Y-16775674D01*
X14305896Y-16775674D02*
X14324944Y-16785198D01*
X14324944Y-16785198D02*
X14334467Y-16794722D01*
X14334467Y-16794722D02*
X14343991Y-16813770D01*
X14343991Y-16813770D02*
X14343991Y-16861389D01*
X14343991Y-16861389D02*
X14334467Y-16880436D01*
X14334467Y-16880436D02*
X14324944Y-16889960D01*
X14324944Y-16889960D02*
X14305896Y-16899484D01*
X14305896Y-16899484D02*
X14248753Y-16899484D01*
X14248753Y-16899484D02*
X14229706Y-16889960D01*
X14229706Y-16889960D02*
X14220182Y-16880436D01*
X14439229Y-16899484D02*
X14477325Y-16899484D01*
X14477325Y-16899484D02*
X14496372Y-16889960D01*
X14496372Y-16889960D02*
X14505896Y-16880436D01*
X14505896Y-16880436D02*
X14524944Y-16851865D01*
X14524944Y-16851865D02*
X14534467Y-16813770D01*
X14534467Y-16813770D02*
X14534467Y-16737579D01*
X14534467Y-16737579D02*
X14524944Y-16718531D01*
X14524944Y-16718531D02*
X14515420Y-16709008D01*
X14515420Y-16709008D02*
X14496372Y-16699484D01*
X14496372Y-16699484D02*
X14458277Y-16699484D01*
X14458277Y-16699484D02*
X14439229Y-16709008D01*
X14439229Y-16709008D02*
X14429706Y-16718531D01*
X14429706Y-16718531D02*
X14420182Y-16737579D01*
X14420182Y-16737579D02*
X14420182Y-16785198D01*
X14420182Y-16785198D02*
X14429706Y-16804246D01*
X14429706Y-16804246D02*
X14439229Y-16813770D01*
X14439229Y-16813770D02*
X14458277Y-16823293D01*
X14458277Y-16823293D02*
X14496372Y-16823293D01*
X14496372Y-16823293D02*
X14515420Y-16813770D01*
X14515420Y-16813770D02*
X14524944Y-16804246D01*
X14524944Y-16804246D02*
X14534467Y-16785198D01*
X14705896Y-16766150D02*
X14705896Y-16899484D01*
X14658277Y-16689960D02*
X14610658Y-16832817D01*
X14610658Y-16832817D02*
X14734467Y-16832817D01*
X14801134Y-16699484D02*
X14801134Y-16737579D01*
X14877325Y-16699484D02*
X14877325Y-16737579D01*
X15172563Y-16975674D02*
X15163039Y-16966150D01*
X15163039Y-16966150D02*
X15143991Y-16937579D01*
X15143991Y-16937579D02*
X15134468Y-16918531D01*
X15134468Y-16918531D02*
X15124944Y-16889960D01*
X15124944Y-16889960D02*
X15115420Y-16842341D01*
X15115420Y-16842341D02*
X15115420Y-16804246D01*
X15115420Y-16804246D02*
X15124944Y-16756627D01*
X15124944Y-16756627D02*
X15134468Y-16728055D01*
X15134468Y-16728055D02*
X15143991Y-16709008D01*
X15143991Y-16709008D02*
X15163039Y-16680436D01*
X15163039Y-16680436D02*
X15172563Y-16670912D01*
X15334468Y-16699484D02*
X15296372Y-16699484D01*
X15296372Y-16699484D02*
X15277325Y-16709008D01*
X15277325Y-16709008D02*
X15267801Y-16718531D01*
X15267801Y-16718531D02*
X15248753Y-16747103D01*
X15248753Y-16747103D02*
X15239229Y-16785198D01*
X15239229Y-16785198D02*
X15239229Y-16861389D01*
X15239229Y-16861389D02*
X15248753Y-16880436D01*
X15248753Y-16880436D02*
X15258277Y-16889960D01*
X15258277Y-16889960D02*
X15277325Y-16899484D01*
X15277325Y-16899484D02*
X15315420Y-16899484D01*
X15315420Y-16899484D02*
X15334468Y-16889960D01*
X15334468Y-16889960D02*
X15343991Y-16880436D01*
X15343991Y-16880436D02*
X15353515Y-16861389D01*
X15353515Y-16861389D02*
X15353515Y-16813770D01*
X15353515Y-16813770D02*
X15343991Y-16794722D01*
X15343991Y-16794722D02*
X15334468Y-16785198D01*
X15334468Y-16785198D02*
X15315420Y-16775674D01*
X15315420Y-16775674D02*
X15277325Y-16775674D01*
X15277325Y-16775674D02*
X15258277Y-16785198D01*
X15258277Y-16785198D02*
X15248753Y-16794722D01*
X15248753Y-16794722D02*
X15239229Y-16813770D01*
X15591610Y-16899484D02*
X15591610Y-16699484D01*
X15677325Y-16899484D02*
X15677325Y-16794722D01*
X15677325Y-16794722D02*
X15667801Y-16775674D01*
X15667801Y-16775674D02*
X15648753Y-16766150D01*
X15648753Y-16766150D02*
X15620182Y-16766150D01*
X15620182Y-16766150D02*
X15601134Y-16775674D01*
X15601134Y-16775674D02*
X15591610Y-16785198D01*
X15801134Y-16899484D02*
X15782087Y-16889960D01*
X15782087Y-16889960D02*
X15772563Y-16880436D01*
X15772563Y-16880436D02*
X15763039Y-16861389D01*
X15763039Y-16861389D02*
X15763039Y-16804246D01*
X15763039Y-16804246D02*
X15772563Y-16785198D01*
X15772563Y-16785198D02*
X15782087Y-16775674D01*
X15782087Y-16775674D02*
X15801134Y-16766150D01*
X15801134Y-16766150D02*
X15829706Y-16766150D01*
X15829706Y-16766150D02*
X15848753Y-16775674D01*
X15848753Y-16775674D02*
X15858277Y-16785198D01*
X15858277Y-16785198D02*
X15867801Y-16804246D01*
X15867801Y-16804246D02*
X15867801Y-16861389D01*
X15867801Y-16861389D02*
X15858277Y-16880436D01*
X15858277Y-16880436D02*
X15848753Y-16889960D01*
X15848753Y-16889960D02*
X15829706Y-16899484D01*
X15829706Y-16899484D02*
X15801134Y-16899484D01*
X15982087Y-16899484D02*
X15963039Y-16889960D01*
X15963039Y-16889960D02*
X15953515Y-16870912D01*
X15953515Y-16870912D02*
X15953515Y-16699484D01*
X16134468Y-16889960D02*
X16115420Y-16899484D01*
X16115420Y-16899484D02*
X16077325Y-16899484D01*
X16077325Y-16899484D02*
X16058277Y-16889960D01*
X16058277Y-16889960D02*
X16048753Y-16870912D01*
X16048753Y-16870912D02*
X16048753Y-16794722D01*
X16048753Y-16794722D02*
X16058277Y-16775674D01*
X16058277Y-16775674D02*
X16077325Y-16766150D01*
X16077325Y-16766150D02*
X16115420Y-16766150D01*
X16115420Y-16766150D02*
X16134468Y-16775674D01*
X16134468Y-16775674D02*
X16143991Y-16794722D01*
X16143991Y-16794722D02*
X16143991Y-16813770D01*
X16143991Y-16813770D02*
X16048753Y-16832817D01*
X16220182Y-16889960D02*
X16239230Y-16899484D01*
X16239230Y-16899484D02*
X16277325Y-16899484D01*
X16277325Y-16899484D02*
X16296372Y-16889960D01*
X16296372Y-16889960D02*
X16305896Y-16870912D01*
X16305896Y-16870912D02*
X16305896Y-16861389D01*
X16305896Y-16861389D02*
X16296372Y-16842341D01*
X16296372Y-16842341D02*
X16277325Y-16832817D01*
X16277325Y-16832817D02*
X16248753Y-16832817D01*
X16248753Y-16832817D02*
X16229706Y-16823293D01*
X16229706Y-16823293D02*
X16220182Y-16804246D01*
X16220182Y-16804246D02*
X16220182Y-16794722D01*
X16220182Y-16794722D02*
X16229706Y-16775674D01*
X16229706Y-16775674D02*
X16248753Y-16766150D01*
X16248753Y-16766150D02*
X16277325Y-16766150D01*
X16277325Y-16766150D02*
X16296372Y-16775674D01*
X16372563Y-16975674D02*
X16382087Y-16966150D01*
X16382087Y-16966150D02*
X16401134Y-16937579D01*
X16401134Y-16937579D02*
X16410658Y-16918531D01*
X16410658Y-16918531D02*
X16420182Y-16889960D01*
X16420182Y-16889960D02*
X16429706Y-16842341D01*
X16429706Y-16842341D02*
X16429706Y-16804246D01*
X16429706Y-16804246D02*
X16420182Y-16756627D01*
X16420182Y-16756627D02*
X16410658Y-16728055D01*
X16410658Y-16728055D02*
X16401134Y-16709008D01*
X16401134Y-16709008D02*
X16382087Y-16680436D01*
X16382087Y-16680436D02*
X16372563Y-16670912D01*
D13*
X11577042Y-17121392D02*
X11577042Y-17022608D01*
X11478258Y-17022608D01*
X11478258Y-17121392D01*
X11577042Y-17121392D01*
D11*
X11963039Y-17163484D02*
X11848753Y-17163484D01*
X11905896Y-17163484D02*
X11905896Y-16963484D01*
X11905896Y-16963484D02*
X11886848Y-16992055D01*
X11886848Y-16992055D02*
X11867801Y-17011103D01*
X11867801Y-17011103D02*
X11848753Y-17020627D01*
X12048753Y-17144436D02*
X12058277Y-17153960D01*
X12058277Y-17153960D02*
X12048753Y-17163484D01*
X12048753Y-17163484D02*
X12039229Y-17153960D01*
X12039229Y-17153960D02*
X12048753Y-17144436D01*
X12048753Y-17144436D02*
X12048753Y-17163484D01*
X12124943Y-16963484D02*
X12248753Y-16963484D01*
X12248753Y-16963484D02*
X12182086Y-17039674D01*
X12182086Y-17039674D02*
X12210658Y-17039674D01*
X12210658Y-17039674D02*
X12229705Y-17049198D01*
X12229705Y-17049198D02*
X12239229Y-17058722D01*
X12239229Y-17058722D02*
X12248753Y-17077770D01*
X12248753Y-17077770D02*
X12248753Y-17125389D01*
X12248753Y-17125389D02*
X12239229Y-17144436D01*
X12239229Y-17144436D02*
X12229705Y-17153960D01*
X12229705Y-17153960D02*
X12210658Y-17163484D01*
X12210658Y-17163484D02*
X12153515Y-17163484D01*
X12153515Y-17163484D02*
X12134467Y-17153960D01*
X12134467Y-17153960D02*
X12124943Y-17144436D01*
X12343991Y-17163484D02*
X12382086Y-17163484D01*
X12382086Y-17163484D02*
X12401134Y-17153960D01*
X12401134Y-17153960D02*
X12410658Y-17144436D01*
X12410658Y-17144436D02*
X12429705Y-17115865D01*
X12429705Y-17115865D02*
X12439229Y-17077770D01*
X12439229Y-17077770D02*
X12439229Y-17001579D01*
X12439229Y-17001579D02*
X12429705Y-16982531D01*
X12429705Y-16982531D02*
X12420182Y-16973008D01*
X12420182Y-16973008D02*
X12401134Y-16963484D01*
X12401134Y-16963484D02*
X12363039Y-16963484D01*
X12363039Y-16963484D02*
X12343991Y-16973008D01*
X12343991Y-16973008D02*
X12334467Y-16982531D01*
X12334467Y-16982531D02*
X12324943Y-17001579D01*
X12324943Y-17001579D02*
X12324943Y-17049198D01*
X12324943Y-17049198D02*
X12334467Y-17068246D01*
X12334467Y-17068246D02*
X12343991Y-17077770D01*
X12343991Y-17077770D02*
X12363039Y-17087293D01*
X12363039Y-17087293D02*
X12401134Y-17087293D01*
X12401134Y-17087293D02*
X12420182Y-17077770D01*
X12420182Y-17077770D02*
X12429705Y-17068246D01*
X12429705Y-17068246D02*
X12439229Y-17049198D01*
X12505896Y-16963484D02*
X12639229Y-16963484D01*
X12639229Y-16963484D02*
X12553515Y-17163484D01*
X12715420Y-17163484D02*
X12715420Y-17030150D01*
X12715420Y-17049198D02*
X12724943Y-17039674D01*
X12724943Y-17039674D02*
X12743991Y-17030150D01*
X12743991Y-17030150D02*
X12772563Y-17030150D01*
X12772563Y-17030150D02*
X12791610Y-17039674D01*
X12791610Y-17039674D02*
X12801134Y-17058722D01*
X12801134Y-17058722D02*
X12801134Y-17163484D01*
X12801134Y-17058722D02*
X12810658Y-17039674D01*
X12810658Y-17039674D02*
X12829705Y-17030150D01*
X12829705Y-17030150D02*
X12858277Y-17030150D01*
X12858277Y-17030150D02*
X12877324Y-17039674D01*
X12877324Y-17039674D02*
X12886848Y-17058722D01*
X12886848Y-17058722D02*
X12886848Y-17163484D01*
X12982086Y-17163484D02*
X12982086Y-17030150D01*
X12982086Y-17049198D02*
X12991610Y-17039674D01*
X12991610Y-17039674D02*
X13010658Y-17030150D01*
X13010658Y-17030150D02*
X13039229Y-17030150D01*
X13039229Y-17030150D02*
X13058277Y-17039674D01*
X13058277Y-17039674D02*
X13067801Y-17058722D01*
X13067801Y-17058722D02*
X13067801Y-17163484D01*
X13067801Y-17058722D02*
X13077324Y-17039674D01*
X13077324Y-17039674D02*
X13096372Y-17030150D01*
X13096372Y-17030150D02*
X13124943Y-17030150D01*
X13124943Y-17030150D02*
X13143991Y-17039674D01*
X13143991Y-17039674D02*
X13153515Y-17058722D01*
X13153515Y-17058722D02*
X13153515Y-17163484D01*
X13543991Y-16953960D02*
X13372563Y-17211103D01*
X13801134Y-16963484D02*
X13820182Y-16963484D01*
X13820182Y-16963484D02*
X13839229Y-16973008D01*
X13839229Y-16973008D02*
X13848753Y-16982531D01*
X13848753Y-16982531D02*
X13858277Y-17001579D01*
X13858277Y-17001579D02*
X13867801Y-17039674D01*
X13867801Y-17039674D02*
X13867801Y-17087293D01*
X13867801Y-17087293D02*
X13858277Y-17125389D01*
X13858277Y-17125389D02*
X13848753Y-17144436D01*
X13848753Y-17144436D02*
X13839229Y-17153960D01*
X13839229Y-17153960D02*
X13820182Y-17163484D01*
X13820182Y-17163484D02*
X13801134Y-17163484D01*
X13801134Y-17163484D02*
X13782086Y-17153960D01*
X13782086Y-17153960D02*
X13772563Y-17144436D01*
X13772563Y-17144436D02*
X13763039Y-17125389D01*
X13763039Y-17125389D02*
X13753515Y-17087293D01*
X13753515Y-17087293D02*
X13753515Y-17039674D01*
X13753515Y-17039674D02*
X13763039Y-17001579D01*
X13763039Y-17001579D02*
X13772563Y-16982531D01*
X13772563Y-16982531D02*
X13782086Y-16973008D01*
X13782086Y-16973008D02*
X13801134Y-16963484D01*
X13953515Y-17144436D02*
X13963039Y-17153960D01*
X13963039Y-17153960D02*
X13953515Y-17163484D01*
X13953515Y-17163484D02*
X13943991Y-17153960D01*
X13943991Y-17153960D02*
X13953515Y-17144436D01*
X13953515Y-17144436D02*
X13953515Y-17163484D01*
X14086848Y-16963484D02*
X14105896Y-16963484D01*
X14105896Y-16963484D02*
X14124944Y-16973008D01*
X14124944Y-16973008D02*
X14134467Y-16982531D01*
X14134467Y-16982531D02*
X14143991Y-17001579D01*
X14143991Y-17001579D02*
X14153515Y-17039674D01*
X14153515Y-17039674D02*
X14153515Y-17087293D01*
X14153515Y-17087293D02*
X14143991Y-17125389D01*
X14143991Y-17125389D02*
X14134467Y-17144436D01*
X14134467Y-17144436D02*
X14124944Y-17153960D01*
X14124944Y-17153960D02*
X14105896Y-17163484D01*
X14105896Y-17163484D02*
X14086848Y-17163484D01*
X14086848Y-17163484D02*
X14067801Y-17153960D01*
X14067801Y-17153960D02*
X14058277Y-17144436D01*
X14058277Y-17144436D02*
X14048753Y-17125389D01*
X14048753Y-17125389D02*
X14039229Y-17087293D01*
X14039229Y-17087293D02*
X14039229Y-17039674D01*
X14039229Y-17039674D02*
X14048753Y-17001579D01*
X14048753Y-17001579D02*
X14058277Y-16982531D01*
X14058277Y-16982531D02*
X14067801Y-16973008D01*
X14067801Y-16973008D02*
X14086848Y-16963484D01*
X14334467Y-16963484D02*
X14239229Y-16963484D01*
X14239229Y-16963484D02*
X14229706Y-17058722D01*
X14229706Y-17058722D02*
X14239229Y-17049198D01*
X14239229Y-17049198D02*
X14258277Y-17039674D01*
X14258277Y-17039674D02*
X14305896Y-17039674D01*
X14305896Y-17039674D02*
X14324944Y-17049198D01*
X14324944Y-17049198D02*
X14334467Y-17058722D01*
X14334467Y-17058722D02*
X14343991Y-17077770D01*
X14343991Y-17077770D02*
X14343991Y-17125389D01*
X14343991Y-17125389D02*
X14334467Y-17144436D01*
X14334467Y-17144436D02*
X14324944Y-17153960D01*
X14324944Y-17153960D02*
X14305896Y-17163484D01*
X14305896Y-17163484D02*
X14258277Y-17163484D01*
X14258277Y-17163484D02*
X14239229Y-17153960D01*
X14239229Y-17153960D02*
X14229706Y-17144436D01*
X14524944Y-16963484D02*
X14429706Y-16963484D01*
X14429706Y-16963484D02*
X14420182Y-17058722D01*
X14420182Y-17058722D02*
X14429706Y-17049198D01*
X14429706Y-17049198D02*
X14448753Y-17039674D01*
X14448753Y-17039674D02*
X14496372Y-17039674D01*
X14496372Y-17039674D02*
X14515420Y-17049198D01*
X14515420Y-17049198D02*
X14524944Y-17058722D01*
X14524944Y-17058722D02*
X14534467Y-17077770D01*
X14534467Y-17077770D02*
X14534467Y-17125389D01*
X14534467Y-17125389D02*
X14524944Y-17144436D01*
X14524944Y-17144436D02*
X14515420Y-17153960D01*
X14515420Y-17153960D02*
X14496372Y-17163484D01*
X14496372Y-17163484D02*
X14448753Y-17163484D01*
X14448753Y-17163484D02*
X14429706Y-17153960D01*
X14429706Y-17153960D02*
X14420182Y-17144436D01*
X14658277Y-16963484D02*
X14677325Y-16963484D01*
X14677325Y-16963484D02*
X14696372Y-16973008D01*
X14696372Y-16973008D02*
X14705896Y-16982531D01*
X14705896Y-16982531D02*
X14715420Y-17001579D01*
X14715420Y-17001579D02*
X14724944Y-17039674D01*
X14724944Y-17039674D02*
X14724944Y-17087293D01*
X14724944Y-17087293D02*
X14715420Y-17125389D01*
X14715420Y-17125389D02*
X14705896Y-17144436D01*
X14705896Y-17144436D02*
X14696372Y-17153960D01*
X14696372Y-17153960D02*
X14677325Y-17163484D01*
X14677325Y-17163484D02*
X14658277Y-17163484D01*
X14658277Y-17163484D02*
X14639229Y-17153960D01*
X14639229Y-17153960D02*
X14629706Y-17144436D01*
X14629706Y-17144436D02*
X14620182Y-17125389D01*
X14620182Y-17125389D02*
X14610658Y-17087293D01*
X14610658Y-17087293D02*
X14610658Y-17039674D01*
X14610658Y-17039674D02*
X14620182Y-17001579D01*
X14620182Y-17001579D02*
X14629706Y-16982531D01*
X14629706Y-16982531D02*
X14639229Y-16973008D01*
X14639229Y-16973008D02*
X14658277Y-16963484D01*
X14801134Y-16963484D02*
X14801134Y-17001579D01*
X14877325Y-16963484D02*
X14877325Y-17001579D01*
X15172563Y-17239674D02*
X15163039Y-17230150D01*
X15163039Y-17230150D02*
X15143991Y-17201579D01*
X15143991Y-17201579D02*
X15134468Y-17182531D01*
X15134468Y-17182531D02*
X15124944Y-17153960D01*
X15124944Y-17153960D02*
X15115420Y-17106341D01*
X15115420Y-17106341D02*
X15115420Y-17068246D01*
X15115420Y-17068246D02*
X15124944Y-17020627D01*
X15124944Y-17020627D02*
X15134468Y-16992055D01*
X15134468Y-16992055D02*
X15143991Y-16973008D01*
X15143991Y-16973008D02*
X15163039Y-16944436D01*
X15163039Y-16944436D02*
X15172563Y-16934912D01*
X15229706Y-16963484D02*
X15353515Y-16963484D01*
X15353515Y-16963484D02*
X15286848Y-17039674D01*
X15286848Y-17039674D02*
X15315420Y-17039674D01*
X15315420Y-17039674D02*
X15334468Y-17049198D01*
X15334468Y-17049198D02*
X15343991Y-17058722D01*
X15343991Y-17058722D02*
X15353515Y-17077770D01*
X15353515Y-17077770D02*
X15353515Y-17125389D01*
X15353515Y-17125389D02*
X15343991Y-17144436D01*
X15343991Y-17144436D02*
X15334468Y-17153960D01*
X15334468Y-17153960D02*
X15315420Y-17163484D01*
X15315420Y-17163484D02*
X15258277Y-17163484D01*
X15258277Y-17163484D02*
X15239229Y-17153960D01*
X15239229Y-17153960D02*
X15229706Y-17144436D01*
X15591610Y-17163484D02*
X15591610Y-16963484D01*
X15677325Y-17163484D02*
X15677325Y-17058722D01*
X15677325Y-17058722D02*
X15667801Y-17039674D01*
X15667801Y-17039674D02*
X15648753Y-17030150D01*
X15648753Y-17030150D02*
X15620182Y-17030150D01*
X15620182Y-17030150D02*
X15601134Y-17039674D01*
X15601134Y-17039674D02*
X15591610Y-17049198D01*
X15801134Y-17163484D02*
X15782087Y-17153960D01*
X15782087Y-17153960D02*
X15772563Y-17144436D01*
X15772563Y-17144436D02*
X15763039Y-17125389D01*
X15763039Y-17125389D02*
X15763039Y-17068246D01*
X15763039Y-17068246D02*
X15772563Y-17049198D01*
X15772563Y-17049198D02*
X15782087Y-17039674D01*
X15782087Y-17039674D02*
X15801134Y-17030150D01*
X15801134Y-17030150D02*
X15829706Y-17030150D01*
X15829706Y-17030150D02*
X15848753Y-17039674D01*
X15848753Y-17039674D02*
X15858277Y-17049198D01*
X15858277Y-17049198D02*
X15867801Y-17068246D01*
X15867801Y-17068246D02*
X15867801Y-17125389D01*
X15867801Y-17125389D02*
X15858277Y-17144436D01*
X15858277Y-17144436D02*
X15848753Y-17153960D01*
X15848753Y-17153960D02*
X15829706Y-17163484D01*
X15829706Y-17163484D02*
X15801134Y-17163484D01*
X15982087Y-17163484D02*
X15963039Y-17153960D01*
X15963039Y-17153960D02*
X15953515Y-17134912D01*
X15953515Y-17134912D02*
X15953515Y-16963484D01*
X16134468Y-17153960D02*
X16115420Y-17163484D01*
X16115420Y-17163484D02*
X16077325Y-17163484D01*
X16077325Y-17163484D02*
X16058277Y-17153960D01*
X16058277Y-17153960D02*
X16048753Y-17134912D01*
X16048753Y-17134912D02*
X16048753Y-17058722D01*
X16048753Y-17058722D02*
X16058277Y-17039674D01*
X16058277Y-17039674D02*
X16077325Y-17030150D01*
X16077325Y-17030150D02*
X16115420Y-17030150D01*
X16115420Y-17030150D02*
X16134468Y-17039674D01*
X16134468Y-17039674D02*
X16143991Y-17058722D01*
X16143991Y-17058722D02*
X16143991Y-17077770D01*
X16143991Y-17077770D02*
X16048753Y-17096817D01*
X16220182Y-17153960D02*
X16239230Y-17163484D01*
X16239230Y-17163484D02*
X16277325Y-17163484D01*
X16277325Y-17163484D02*
X16296372Y-17153960D01*
X16296372Y-17153960D02*
X16305896Y-17134912D01*
X16305896Y-17134912D02*
X16305896Y-17125389D01*
X16305896Y-17125389D02*
X16296372Y-17106341D01*
X16296372Y-17106341D02*
X16277325Y-17096817D01*
X16277325Y-17096817D02*
X16248753Y-17096817D01*
X16248753Y-17096817D02*
X16229706Y-17087293D01*
X16229706Y-17087293D02*
X16220182Y-17068246D01*
X16220182Y-17068246D02*
X16220182Y-17058722D01*
X16220182Y-17058722D02*
X16229706Y-17039674D01*
X16229706Y-17039674D02*
X16248753Y-17030150D01*
X16248753Y-17030150D02*
X16277325Y-17030150D01*
X16277325Y-17030150D02*
X16296372Y-17039674D01*
X16372563Y-17239674D02*
X16382087Y-17230150D01*
X16382087Y-17230150D02*
X16401134Y-17201579D01*
X16401134Y-17201579D02*
X16410658Y-17182531D01*
X16410658Y-17182531D02*
X16420182Y-17153960D01*
X16420182Y-17153960D02*
X16429706Y-17106341D01*
X16429706Y-17106341D02*
X16429706Y-17068246D01*
X16429706Y-17068246D02*
X16420182Y-17020627D01*
X16420182Y-17020627D02*
X16410658Y-16992055D01*
X16410658Y-16992055D02*
X16401134Y-16973008D01*
X16401134Y-16973008D02*
X16382087Y-16944436D01*
X16382087Y-16944436D02*
X16372563Y-16934912D01*
M02*
