%TF.GenerationSoftware,KiCad,Pcbnew,9.0.4*%
%TF.CreationDate,2026-03-03T00:13:03+11:00*%
%TF.ProjectId,SMEE-DESIGNPROJECT,534d4545-2d44-4455-9349-474e50524f4a,1*%
%TF.SameCoordinates,Original*%
%TF.FileFunction,Soldermask,Top*%
%TF.FilePolarity,Negative*%
%FSLAX46Y46*%
G04 Gerber Fmt 4.6, Leading zero omitted, Abs format (unit mm)*
G04 Created by KiCad (PCBNEW 9.0.4) date 2026-03-03 00:13:03*
%MOMM*%
%LPD*%
G01*
G04 APERTURE LIST*
G04 Aperture macros list*
%AMRoundRect*
0 Rectangle with rounded corners*
0 $1 Rounding radius*
0 $2 $3 $4 $5 $6 $7 $8 $9 X,Y pos of 4 corners*
0 Add a 4 corners polygon primitive as box body*
4,1,4,$2,$3,$4,$5,$6,$7,$8,$9,$2,$3,0*
0 Add four circle primitives for the rounded corners*
1,1,$1+$1,$2,$3*
1,1,$1+$1,$4,$5*
1,1,$1+$1,$6,$7*
1,1,$1+$1,$8,$9*
0 Add four rect primitives between the rounded corners*
20,1,$1+$1,$2,$3,$4,$5,0*
20,1,$1+$1,$4,$5,$6,$7,0*
20,1,$1+$1,$6,$7,$8,$9,0*
20,1,$1+$1,$8,$9,$2,$3,0*%
G04 Aperture macros list end*
%ADD10C,1.600000*%
%ADD11RoundRect,0.250000X-0.550000X-0.550000X0.550000X-0.550000X0.550000X0.550000X-0.550000X0.550000X0*%
%ADD12R,1.905000X1.905000*%
%ADD13C,1.905000*%
%ADD14R,1.800000X1.800000*%
%ADD15C,1.800000*%
%ADD16RoundRect,0.250000X-0.650000X-0.650000X0.650000X-0.650000X0.650000X0.650000X-0.650000X0.650000X0*%
%ADD17R,1.700000X1.700000*%
%ADD18C,1.700000*%
G04 APERTURE END LIST*
D10*
%TO.C,C1*%
X135000000Y-75625000D03*
X140000000Y-75625000D03*
%TD*%
D11*
%TO.C,U2*%
X118195000Y-65065000D03*
D10*
X118195000Y-67605000D03*
X118195000Y-70145000D03*
X118195000Y-72685000D03*
X125815000Y-72685000D03*
X125815000Y-70145000D03*
X125815000Y-67605000D03*
X125815000Y-65065000D03*
%TD*%
%TO.C,R7*%
X133000000Y-49045000D03*
X133000000Y-59205000D03*
%TD*%
%TO.C,R6*%
X118170000Y-75875000D03*
X128330000Y-75875000D03*
%TD*%
%TO.C,R1*%
X129920000Y-68625000D03*
X140080000Y-68625000D03*
%TD*%
D12*
%TO.C,LED1*%
X138250000Y-48335000D03*
D13*
X138250000Y-50875000D03*
X138250000Y-53415000D03*
%TD*%
D14*
%TO.C,LED2*%
X139250000Y-59375000D03*
D15*
X136710000Y-59375000D03*
%TD*%
D11*
%TO.C,C3*%
X118294888Y-86625000D03*
D10*
X120794888Y-86625000D03*
%TD*%
D16*
%TO.C,D1*%
X118170000Y-79125000D03*
D15*
X128330000Y-79125000D03*
%TD*%
D10*
%TO.C,R5*%
X128330000Y-82375000D03*
X118170000Y-82375000D03*
%TD*%
%TO.C,R4*%
X140080000Y-65625000D03*
X129920000Y-65625000D03*
%TD*%
%TO.C,R2*%
X140080000Y-71625000D03*
X129920000Y-71625000D03*
%TD*%
%TO.C,R3*%
X130000000Y-49045000D03*
X130000000Y-59205000D03*
%TD*%
D17*
%TO.C,J1*%
X118960000Y-59125000D03*
D18*
X118960000Y-56585000D03*
X121500000Y-59125000D03*
X121500000Y-56585000D03*
X124040000Y-59125000D03*
X124040000Y-56585000D03*
%TD*%
M02*
